ISO-10303-21;
HEADER;
/* Generated by software containing ST-Developer
 * from STEP Tools, Inc. (www.steptools.com) 
 */

FILE_DESCRIPTION(
/* description */ (''),
/* implementation_level */ '2;1');

FILE_NAME(
/* name */ 'PCB_Case_UPPER.step',
/* time_stamp */ '2026-01-16T13:29:29+02:00',
/* author */ (''),
/* organization */ (''),
/* preprocessor_version */ 'ST-DEVELOPER v20.1',
/* originating_system */ 'Autodesk Translation Framework v14.21.0.0',
/* authorisation */ '');

FILE_SCHEMA (('AUTOMOTIVE_DESIGN { 1 0 10303 214 3 1 1 }'));
ENDSEC;

DATA;
#10=MECHANICAL_DESIGN_GEOMETRIC_PRESENTATION_REPRESENTATION('',(#13),#560);
#11=SHAPE_REPRESENTATION_RELATIONSHIP('SRR','None',#567,#12);
#12=ADVANCED_BREP_SHAPE_REPRESENTATION('',(#14),#559);
#13=STYLED_ITEM('',(#577),#14);
#14=MANIFOLD_SOLID_BREP('Body1',#332);
#15=FACE_BOUND('',#65,.T.);
#16=FACE_BOUND('',#67,.T.);
#17=CIRCLE('',#351,2.99999999999995);
#18=CIRCLE('',#352,2.99999999999995);
#19=CIRCLE('',#355,5.99999999999989);
#20=CIRCLE('',#356,5.99999999999989);
#21=CIRCLE('',#360,1.99999350624917);
#22=CIRCLE('',#361,1.99999350624917);
#23=CIRCLE('',#364,2.00000000000003);
#24=CIRCLE('',#365,2.00000000000003);
#25=CIRCLE('',#368,2.00017242703603);
#26=CIRCLE('',#369,2.00017242703603);
#27=CYLINDRICAL_SURFACE('',#350,2.99999999999995);
#28=CYLINDRICAL_SURFACE('',#354,5.99999999999989);
#29=CYLINDRICAL_SURFACE('',#359,1.99999350624917);
#30=CYLINDRICAL_SURFACE('',#363,2.00000000000003);
#31=CYLINDRICAL_SURFACE('',#367,2.00017242703603);
#32=FACE_OUTER_BOUND('',#49,.T.);
#33=FACE_OUTER_BOUND('',#50,.T.);
#34=FACE_OUTER_BOUND('',#51,.T.);
#35=FACE_OUTER_BOUND('',#52,.T.);
#36=FACE_OUTER_BOUND('',#53,.T.);
#37=FACE_OUTER_BOUND('',#54,.T.);
#38=FACE_OUTER_BOUND('',#55,.T.);
#39=FACE_OUTER_BOUND('',#56,.T.);
#40=FACE_OUTER_BOUND('',#57,.T.);
#41=FACE_OUTER_BOUND('',#58,.T.);
#42=FACE_OUTER_BOUND('',#59,.T.);
#43=FACE_OUTER_BOUND('',#60,.T.);
#44=FACE_OUTER_BOUND('',#61,.T.);
#45=FACE_OUTER_BOUND('',#62,.T.);
#46=FACE_OUTER_BOUND('',#63,.T.);
#47=FACE_OUTER_BOUND('',#64,.T.);
#48=FACE_OUTER_BOUND('',#66,.T.);
#49=EDGE_LOOP('',(#213,#214,#215,#216));
#50=EDGE_LOOP('',(#217,#218,#219,#220));
#51=EDGE_LOOP('',(#221,#222,#223,#224));
#52=EDGE_LOOP('',(#225,#226,#227,#228));
#53=EDGE_LOOP('',(#229,#230,#231,#232));
#54=EDGE_LOOP('',(#233,#234,#235,#236));
#55=EDGE_LOOP('',(#237,#238,#239,#240));
#56=EDGE_LOOP('',(#241,#242,#243,#244));
#57=EDGE_LOOP('',(#245,#246,#247,#248));
#58=EDGE_LOOP('',(#249,#250,#251,#252));
#59=EDGE_LOOP('',(#253,#254,#255,#256));
#60=EDGE_LOOP('',(#257,#258,#259,#260));
#61=EDGE_LOOP('',(#261,#262,#263,#264));
#62=EDGE_LOOP('',(#265,#266,#267,#268));
#63=EDGE_LOOP('',(#269,#270,#271,#272));
#64=EDGE_LOOP('',(#273,#274,#275,#276,#277,#278,#279,#280,#281,#282,#283));
#65=EDGE_LOOP('',(#284,#285,#286,#287));
#66=EDGE_LOOP('',(#288,#289,#290,#291,#292,#293,#294,#295,#296,#297,#298));
#67=EDGE_LOOP('',(#299,#300,#301,#302));
#68=LINE('',#468,#103);
#69=LINE('',#470,#104);
#70=LINE('',#472,#105);
#71=LINE('',#473,#106);
#72=LINE('',#476,#107);
#73=LINE('',#478,#108);
#74=LINE('',#479,#109);
#75=LINE('',#482,#110);
#76=LINE('',#484,#111);
#77=LINE('',#485,#112);
#78=LINE('',#487,#113);
#79=LINE('',#488,#114);
#80=LINE('',#494,#115);
#81=LINE('',#497,#116);
#82=LINE('',#500,#117);
#83=LINE('',#502,#118);
#84=LINE('',#503,#119);
#85=LINE('',#509,#120);
#86=LINE('',#512,#121);
#87=LINE('',#514,#122);
#88=LINE('',#515,#123);
#89=LINE('',#518,#124);
#90=LINE('',#520,#125);
#91=LINE('',#521,#126);
#92=LINE('',#527,#127);
#93=LINE('',#530,#128);
#94=LINE('',#532,#129);
#95=LINE('',#533,#130);
#96=LINE('',#539,#131);
#97=LINE('',#542,#132);
#98=LINE('',#544,#133);
#99=LINE('',#545,#134);
#100=LINE('',#551,#135);
#101=LINE('',#553,#136);
#102=LINE('',#554,#137);
#103=VECTOR('',#377,10.);
#104=VECTOR('',#378,10.);
#105=VECTOR('',#379,10.);
#106=VECTOR('',#380,10.);
#107=VECTOR('',#383,10.);
#108=VECTOR('',#384,10.);
#109=VECTOR('',#385,10.);
#110=VECTOR('',#388,10.);
#111=VECTOR('',#389,10.);
#112=VECTOR('',#390,10.);
#113=VECTOR('',#393,10.);
#114=VECTOR('',#394,10.);
#115=VECTOR('',#399,10.);
#116=VECTOR('',#402,10.);
#117=VECTOR('',#405,10.);
#118=VECTOR('',#406,10.);
#119=VECTOR('',#407,10.);
#120=VECTOR('',#414,10.);
#121=VECTOR('',#417,10.);
#122=VECTOR('',#418,10.);
#123=VECTOR('',#419,10.);
#124=VECTOR('',#422,10.);
#125=VECTOR('',#423,10.);
#126=VECTOR('',#424,10.);
#127=VECTOR('',#431,10.);
#128=VECTOR('',#434,10.);
#129=VECTOR('',#435,10.);
#130=VECTOR('',#436,10.);
#131=VECTOR('',#443,10.);
#132=VECTOR('',#446,10.);
#133=VECTOR('',#447,10.);
#134=VECTOR('',#448,10.);
#135=VECTOR('',#455,10.);
#136=VECTOR('',#458,10.);
#137=VECTOR('',#459,10.);
#138=VERTEX_POINT('',#466);
#139=VERTEX_POINT('',#467);
#140=VERTEX_POINT('',#469);
#141=VERTEX_POINT('',#471);
#142=VERTEX_POINT('',#475);
#143=VERTEX_POINT('',#477);
#144=VERTEX_POINT('',#481);
#145=VERTEX_POINT('',#483);
#146=VERTEX_POINT('',#490);
#147=VERTEX_POINT('',#491);
#148=VERTEX_POINT('',#493);
#149=VERTEX_POINT('',#495);
#150=VERTEX_POINT('',#499);
#151=VERTEX_POINT('',#501);
#152=VERTEX_POINT('',#505);
#153=VERTEX_POINT('',#507);
#154=VERTEX_POINT('',#511);
#155=VERTEX_POINT('',#513);
#156=VERTEX_POINT('',#517);
#157=VERTEX_POINT('',#519);
#158=VERTEX_POINT('',#523);
#159=VERTEX_POINT('',#525);
#160=VERTEX_POINT('',#529);
#161=VERTEX_POINT('',#531);
#162=VERTEX_POINT('',#535);
#163=VERTEX_POINT('',#537);
#164=VERTEX_POINT('',#541);
#165=VERTEX_POINT('',#543);
#166=VERTEX_POINT('',#547);
#167=VERTEX_POINT('',#549);
#168=EDGE_CURVE('',#138,#139,#68,.T.);
#169=EDGE_CURVE('',#138,#140,#69,.T.);
#170=EDGE_CURVE('',#141,#140,#70,.T.);
#171=EDGE_CURVE('',#141,#139,#71,.T.);
#172=EDGE_CURVE('',#142,#140,#72,.T.);
#173=EDGE_CURVE('',#142,#143,#73,.T.);
#174=EDGE_CURVE('',#143,#141,#74,.T.);
#175=EDGE_CURVE('',#139,#144,#75,.T.);
#176=EDGE_CURVE('',#145,#144,#76,.T.);
#177=EDGE_CURVE('',#145,#138,#77,.T.);
#178=EDGE_CURVE('',#144,#143,#78,.T.);
#179=EDGE_CURVE('',#142,#145,#79,.T.);
#180=EDGE_CURVE('',#146,#147,#17,.T.);
#181=EDGE_CURVE('',#147,#148,#80,.T.);
#182=EDGE_CURVE('',#149,#148,#18,.T.);
#183=EDGE_CURVE('',#146,#149,#81,.T.);
#184=EDGE_CURVE('',#150,#146,#82,.T.);
#185=EDGE_CURVE('',#151,#149,#83,.T.);
#186=EDGE_CURVE('',#150,#151,#84,.T.);
#187=EDGE_CURVE('',#152,#150,#19,.T.);
#188=EDGE_CURVE('',#153,#151,#20,.T.);
#189=EDGE_CURVE('',#152,#153,#85,.T.);
#190=EDGE_CURVE('',#154,#152,#86,.T.);
#191=EDGE_CURVE('',#155,#153,#87,.T.);
#192=EDGE_CURVE('',#154,#155,#88,.T.);
#193=EDGE_CURVE('',#156,#154,#89,.T.);
#194=EDGE_CURVE('',#157,#155,#90,.T.);
#195=EDGE_CURVE('',#156,#157,#91,.T.);
#196=EDGE_CURVE('',#158,#156,#21,.T.);
#197=EDGE_CURVE('',#159,#157,#22,.T.);
#198=EDGE_CURVE('',#158,#159,#92,.T.);
#199=EDGE_CURVE('',#160,#158,#93,.T.);
#200=EDGE_CURVE('',#161,#159,#94,.T.);
#201=EDGE_CURVE('',#160,#161,#95,.T.);
#202=EDGE_CURVE('',#162,#160,#23,.T.);
#203=EDGE_CURVE('',#163,#161,#24,.T.);
#204=EDGE_CURVE('',#162,#163,#96,.T.);
#205=EDGE_CURVE('',#164,#162,#97,.T.);
#206=EDGE_CURVE('',#165,#163,#98,.T.);
#207=EDGE_CURVE('',#164,#165,#99,.T.);
#208=EDGE_CURVE('',#166,#164,#25,.T.);
#209=EDGE_CURVE('',#167,#165,#26,.T.);
#210=EDGE_CURVE('',#166,#167,#100,.T.);
#211=EDGE_CURVE('',#147,#166,#101,.T.);
#212=EDGE_CURVE('',#148,#167,#102,.T.);
#213=ORIENTED_EDGE('',*,*,#168,.F.);
#214=ORIENTED_EDGE('',*,*,#169,.T.);
#215=ORIENTED_EDGE('',*,*,#170,.F.);
#216=ORIENTED_EDGE('',*,*,#171,.T.);
#217=ORIENTED_EDGE('',*,*,#170,.T.);
#218=ORIENTED_EDGE('',*,*,#172,.F.);
#219=ORIENTED_EDGE('',*,*,#173,.T.);
#220=ORIENTED_EDGE('',*,*,#174,.T.);
#221=ORIENTED_EDGE('',*,*,#168,.T.);
#222=ORIENTED_EDGE('',*,*,#175,.T.);
#223=ORIENTED_EDGE('',*,*,#176,.F.);
#224=ORIENTED_EDGE('',*,*,#177,.T.);
#225=ORIENTED_EDGE('',*,*,#176,.T.);
#226=ORIENTED_EDGE('',*,*,#178,.T.);
#227=ORIENTED_EDGE('',*,*,#173,.F.);
#228=ORIENTED_EDGE('',*,*,#179,.T.);
#229=ORIENTED_EDGE('',*,*,#180,.T.);
#230=ORIENTED_EDGE('',*,*,#181,.T.);
#231=ORIENTED_EDGE('',*,*,#182,.F.);
#232=ORIENTED_EDGE('',*,*,#183,.F.);
#233=ORIENTED_EDGE('',*,*,#184,.T.);
#234=ORIENTED_EDGE('',*,*,#183,.T.);
#235=ORIENTED_EDGE('',*,*,#185,.F.);
#236=ORIENTED_EDGE('',*,*,#186,.F.);
#237=ORIENTED_EDGE('',*,*,#187,.T.);
#238=ORIENTED_EDGE('',*,*,#186,.T.);
#239=ORIENTED_EDGE('',*,*,#188,.F.);
#240=ORIENTED_EDGE('',*,*,#189,.F.);
#241=ORIENTED_EDGE('',*,*,#190,.T.);
#242=ORIENTED_EDGE('',*,*,#189,.T.);
#243=ORIENTED_EDGE('',*,*,#191,.F.);
#244=ORIENTED_EDGE('',*,*,#192,.F.);
#245=ORIENTED_EDGE('',*,*,#193,.T.);
#246=ORIENTED_EDGE('',*,*,#192,.T.);
#247=ORIENTED_EDGE('',*,*,#194,.F.);
#248=ORIENTED_EDGE('',*,*,#195,.F.);
#249=ORIENTED_EDGE('',*,*,#196,.T.);
#250=ORIENTED_EDGE('',*,*,#195,.T.);
#251=ORIENTED_EDGE('',*,*,#197,.F.);
#252=ORIENTED_EDGE('',*,*,#198,.F.);
#253=ORIENTED_EDGE('',*,*,#199,.T.);
#254=ORIENTED_EDGE('',*,*,#198,.T.);
#255=ORIENTED_EDGE('',*,*,#200,.F.);
#256=ORIENTED_EDGE('',*,*,#201,.F.);
#257=ORIENTED_EDGE('',*,*,#202,.T.);
#258=ORIENTED_EDGE('',*,*,#201,.T.);
#259=ORIENTED_EDGE('',*,*,#203,.F.);
#260=ORIENTED_EDGE('',*,*,#204,.F.);
#261=ORIENTED_EDGE('',*,*,#205,.T.);
#262=ORIENTED_EDGE('',*,*,#204,.T.);
#263=ORIENTED_EDGE('',*,*,#206,.F.);
#264=ORIENTED_EDGE('',*,*,#207,.F.);
#265=ORIENTED_EDGE('',*,*,#208,.T.);
#266=ORIENTED_EDGE('',*,*,#207,.T.);
#267=ORIENTED_EDGE('',*,*,#209,.F.);
#268=ORIENTED_EDGE('',*,*,#210,.F.);
#269=ORIENTED_EDGE('',*,*,#211,.T.);
#270=ORIENTED_EDGE('',*,*,#210,.T.);
#271=ORIENTED_EDGE('',*,*,#212,.F.);
#272=ORIENTED_EDGE('',*,*,#181,.F.);
#273=ORIENTED_EDGE('',*,*,#212,.T.);
#274=ORIENTED_EDGE('',*,*,#209,.T.);
#275=ORIENTED_EDGE('',*,*,#206,.T.);
#276=ORIENTED_EDGE('',*,*,#203,.T.);
#277=ORIENTED_EDGE('',*,*,#200,.T.);
#278=ORIENTED_EDGE('',*,*,#197,.T.);
#279=ORIENTED_EDGE('',*,*,#194,.T.);
#280=ORIENTED_EDGE('',*,*,#191,.T.);
#281=ORIENTED_EDGE('',*,*,#188,.T.);
#282=ORIENTED_EDGE('',*,*,#185,.T.);
#283=ORIENTED_EDGE('',*,*,#182,.T.);
#284=ORIENTED_EDGE('',*,*,#179,.F.);
#285=ORIENTED_EDGE('',*,*,#172,.T.);
#286=ORIENTED_EDGE('',*,*,#169,.F.);
#287=ORIENTED_EDGE('',*,*,#177,.F.);
#288=ORIENTED_EDGE('',*,*,#211,.F.);
#289=ORIENTED_EDGE('',*,*,#180,.F.);
#290=ORIENTED_EDGE('',*,*,#184,.F.);
#291=ORIENTED_EDGE('',*,*,#187,.F.);
#292=ORIENTED_EDGE('',*,*,#190,.F.);
#293=ORIENTED_EDGE('',*,*,#193,.F.);
#294=ORIENTED_EDGE('',*,*,#196,.F.);
#295=ORIENTED_EDGE('',*,*,#199,.F.);
#296=ORIENTED_EDGE('',*,*,#202,.F.);
#297=ORIENTED_EDGE('',*,*,#205,.F.);
#298=ORIENTED_EDGE('',*,*,#208,.F.);
#299=ORIENTED_EDGE('',*,*,#174,.F.);
#300=ORIENTED_EDGE('',*,*,#178,.F.);
#301=ORIENTED_EDGE('',*,*,#175,.F.);
#302=ORIENTED_EDGE('',*,*,#171,.F.);
#303=PLANE('',#346);
#304=PLANE('',#347);
#305=PLANE('',#348);
#306=PLANE('',#349);
#307=PLANE('',#353);
#308=PLANE('',#357);
#309=PLANE('',#358);
#310=PLANE('',#362);
#311=PLANE('',#366);
#312=PLANE('',#370);
#313=PLANE('',#371);
#314=PLANE('',#372);
#315=ADVANCED_FACE('',(#32),#303,.T.);
#316=ADVANCED_FACE('',(#33),#304,.T.);
#317=ADVANCED_FACE('',(#34),#305,.T.);
#318=ADVANCED_FACE('',(#35),#306,.T.);
#319=ADVANCED_FACE('',(#36),#27,.T.);
#320=ADVANCED_FACE('',(#37),#307,.T.);
#321=ADVANCED_FACE('',(#38),#28,.T.);
#322=ADVANCED_FACE('',(#39),#308,.T.);
#323=ADVANCED_FACE('',(#40),#309,.T.);
#324=ADVANCED_FACE('',(#41),#29,.T.);
#325=ADVANCED_FACE('',(#42),#310,.T.);
#326=ADVANCED_FACE('',(#43),#30,.T.);
#327=ADVANCED_FACE('',(#44),#311,.T.);
#328=ADVANCED_FACE('',(#45),#31,.T.);
#329=ADVANCED_FACE('',(#46),#312,.T.);
#330=ADVANCED_FACE('',(#47,#15),#313,.T.);
#331=ADVANCED_FACE('',(#48,#16),#314,.F.);
#332=CLOSED_SHELL('',(#315,#316,#317,#318,#319,#320,#321,#322,#323,#324,
#325,#326,#327,#328,#329,#330,#331));
#333=DERIVED_UNIT_ELEMENT(#335,1.);
#334=DERIVED_UNIT_ELEMENT(#562,-3.);
#335=(
MASS_UNIT()
NAMED_UNIT(*)
SI_UNIT(.KILO.,.GRAM.)
);
#336=DERIVED_UNIT((#333,#334));
#337=MEASURE_REPRESENTATION_ITEM('density measure',
POSITIVE_RATIO_MEASURE(7850.),#336);
#338=PROPERTY_DEFINITION_REPRESENTATION(#343,#340);
#339=PROPERTY_DEFINITION_REPRESENTATION(#344,#341);
#340=REPRESENTATION('material name',(#342),#559);
#341=REPRESENTATION('density',(#337),#559);
#342=DESCRIPTIVE_REPRESENTATION_ITEM('Steel','Steel');
#343=PROPERTY_DEFINITION('material property','material name',#569);
#344=PROPERTY_DEFINITION('material property','density of part',#569);
#345=AXIS2_PLACEMENT_3D('',#464,#373,#374);
#346=AXIS2_PLACEMENT_3D('',#465,#375,#376);
#347=AXIS2_PLACEMENT_3D('',#474,#381,#382);
#348=AXIS2_PLACEMENT_3D('',#480,#386,#387);
#349=AXIS2_PLACEMENT_3D('',#486,#391,#392);
#350=AXIS2_PLACEMENT_3D('',#489,#395,#396);
#351=AXIS2_PLACEMENT_3D('',#492,#397,#398);
#352=AXIS2_PLACEMENT_3D('',#496,#400,#401);
#353=AXIS2_PLACEMENT_3D('',#498,#403,#404);
#354=AXIS2_PLACEMENT_3D('',#504,#408,#409);
#355=AXIS2_PLACEMENT_3D('',#506,#410,#411);
#356=AXIS2_PLACEMENT_3D('',#508,#412,#413);
#357=AXIS2_PLACEMENT_3D('',#510,#415,#416);
#358=AXIS2_PLACEMENT_3D('',#516,#420,#421);
#359=AXIS2_PLACEMENT_3D('',#522,#425,#426);
#360=AXIS2_PLACEMENT_3D('',#524,#427,#428);
#361=AXIS2_PLACEMENT_3D('',#526,#429,#430);
#362=AXIS2_PLACEMENT_3D('',#528,#432,#433);
#363=AXIS2_PLACEMENT_3D('',#534,#437,#438);
#364=AXIS2_PLACEMENT_3D('',#536,#439,#440);
#365=AXIS2_PLACEMENT_3D('',#538,#441,#442);
#366=AXIS2_PLACEMENT_3D('',#540,#444,#445);
#367=AXIS2_PLACEMENT_3D('',#546,#449,#450);
#368=AXIS2_PLACEMENT_3D('',#548,#451,#452);
#369=AXIS2_PLACEMENT_3D('',#550,#453,#454);
#370=AXIS2_PLACEMENT_3D('',#552,#456,#457);
#371=AXIS2_PLACEMENT_3D('',#555,#460,#461);
#372=AXIS2_PLACEMENT_3D('',#556,#462,#463);
#373=DIRECTION('axis',(0.,0.,1.));
#374=DIRECTION('refdir',(1.,0.,0.));
#375=DIRECTION('center_axis',(0.,1.,0.));
#376=DIRECTION('ref_axis',(0.,0.,1.));
#377=DIRECTION('',(0.,0.,-1.));
#378=DIRECTION('',(1.,0.,0.));
#379=DIRECTION('',(0.,0.,1.));
#380=DIRECTION('',(-1.,0.,0.));
#381=DIRECTION('center_axis',(-1.,0.,0.));
#382=DIRECTION('ref_axis',(0.,-1.,0.));
#383=DIRECTION('',(0.,-1.,0.));
#384=DIRECTION('',(0.,0.,-1.));
#385=DIRECTION('',(0.,-1.,0.));
#386=DIRECTION('center_axis',(1.,0.,0.));
#387=DIRECTION('ref_axis',(0.,0.,-1.));
#388=DIRECTION('',(0.,1.,0.));
#389=DIRECTION('',(0.,0.,-1.));
#390=DIRECTION('',(0.,-1.,0.));
#391=DIRECTION('center_axis',(0.,-1.,0.));
#392=DIRECTION('ref_axis',(0.,0.,-1.));
#393=DIRECTION('',(1.,0.,0.));
#394=DIRECTION('',(-1.,0.,0.));
#395=DIRECTION('center_axis',(0.,0.,1.));
#396=DIRECTION('ref_axis',(-0.00720150687663525,0.99997406881314,0.));
#397=DIRECTION('center_axis',(0.,0.,1.));
#398=DIRECTION('ref_axis',(-0.00720150687663525,0.99997406881314,0.));
#399=DIRECTION('',(0.,0.,1.));
#400=DIRECTION('center_axis',(0.,0.,1.));
#401=DIRECTION('ref_axis',(-0.00720150687663525,0.99997406881314,0.));
#402=DIRECTION('',(0.,0.,1.));
#403=DIRECTION('center_axis',(-0.00720150687665606,0.99997406881314,0.));
#404=DIRECTION('ref_axis',(-0.99997406881314,-0.00720150687665606,0.));
#405=DIRECTION('',(-0.99997406881314,-0.00720150687665606,0.));
#406=DIRECTION('',(-0.99997406881314,-0.00720150687665606,0.));
#407=DIRECTION('',(0.,0.,1.));
#408=DIRECTION('center_axis',(0.,0.,1.));
#409=DIRECTION('ref_axis',(0.672380798732678,0.740205418445181,0.));
#410=DIRECTION('center_axis',(0.,0.,1.));
#411=DIRECTION('ref_axis',(0.672380798732678,0.740205418445181,0.));
#412=DIRECTION('center_axis',(0.,0.,1.));
#413=DIRECTION('ref_axis',(0.672380798732678,0.740205418445181,0.));
#414=DIRECTION('',(0.,0.,1.));
#415=DIRECTION('center_axis',(0.672380798732673,0.740205418445186,0.));
#416=DIRECTION('ref_axis',(-0.740205418445186,0.672380798732673,0.));
#417=DIRECTION('',(-0.740205418445186,0.672380798732673,0.));
#418=DIRECTION('',(-0.740205418445186,0.672380798732673,0.));
#419=DIRECTION('',(0.,0.,1.));
#420=DIRECTION('center_axis',(-0.00255153282515476,0.999996744834823,0.));
#421=DIRECTION('ref_axis',(-0.999996744834823,-0.00255153282515476,0.));
#422=DIRECTION('',(-0.999996744834823,-0.00255153282515476,0.));
#423=DIRECTION('',(-0.999996744834823,-0.00255153282515476,0.));
#424=DIRECTION('',(0.,0.,1.));
#425=DIRECTION('center_axis',(0.,0.,1.));
#426=DIRECTION('ref_axis',(0.999999999994729,-3.24687534588515E-6,0.));
#427=DIRECTION('center_axis',(0.,0.,1.));
#428=DIRECTION('ref_axis',(0.999999999994729,-3.24687534588515E-6,0.));
#429=DIRECTION('center_axis',(0.,0.,1.));
#430=DIRECTION('ref_axis',(0.999999999994729,-3.24687534588515E-6,0.));
#431=DIRECTION('',(0.,0.,1.));
#432=DIRECTION('center_axis',(0.999999999999999,4.3678835344548E-8,0.));
#433=DIRECTION('ref_axis',(-4.3678835344548E-8,0.999999999999999,0.));
#434=DIRECTION('',(-4.3678835344548E-8,0.999999999999999,0.));
#435=DIRECTION('',(-4.3678835344548E-8,0.999999999999999,0.));
#436=DIRECTION('',(0.,0.,1.));
#437=DIRECTION('center_axis',(0.,0.,1.));
#438=DIRECTION('ref_axis',(0.,-1.,0.));
#439=DIRECTION('center_axis',(0.,0.,1.));
#440=DIRECTION('ref_axis',(0.,-1.,0.));
#441=DIRECTION('center_axis',(0.,0.,1.));
#442=DIRECTION('ref_axis',(0.,-1.,0.));
#443=DIRECTION('',(0.,0.,1.));
#444=DIRECTION('center_axis',(0.,-1.,0.));
#445=DIRECTION('ref_axis',(1.,0.,0.));
#446=DIRECTION('',(1.,0.,0.));
#447=DIRECTION('',(1.,0.,0.));
#448=DIRECTION('',(0.,0.,1.));
#449=DIRECTION('center_axis',(0.,0.,1.));
#450=DIRECTION('ref_axis',(-0.999999996284576,-8.62023704650757E-5,0.));
#451=DIRECTION('center_axis',(0.,0.,1.));
#452=DIRECTION('ref_axis',(-0.999999996284576,-8.62023704650757E-5,0.));
#453=DIRECTION('center_axis',(0.,0.,1.));
#454=DIRECTION('ref_axis',(-0.999999996284576,-8.62023704650757E-5,0.));
#455=DIRECTION('',(0.,0.,1.));
#456=DIRECTION('center_axis',(-0.999999996284576,-8.62023704674814E-5,0.));
#457=DIRECTION('ref_axis',(8.62023704674814E-5,-0.999999996284576,0.));
#458=DIRECTION('',(8.62023704674814E-5,-0.999999996284576,0.));
#459=DIRECTION('',(8.62023704674814E-5,-0.999999996284576,0.));
#460=DIRECTION('center_axis',(0.,0.,1.));
#461=DIRECTION('ref_axis',(-1.,0.,0.));
#462=DIRECTION('center_axis',(0.,0.,1.));
#463=DIRECTION('ref_axis',(-1.,0.,0.));
#464=CARTESIAN_POINT('',(0.,0.,0.));
#465=CARTESIAN_POINT('Origin',(332.634717268259,-145.,3.));
#466=CARTESIAN_POINT('',(28.3983516110166,-145.,7.));
#467=CARTESIAN_POINT('',(28.3983516110166,-145.,3.));
#468=CARTESIAN_POINT('',(28.3983516110166,-145.,3.));
#469=CARTESIAN_POINT('',(332.634717268259,-145.,7.));
#470=CARTESIAN_POINT('',(332.634717268259,-145.,7.));
#471=CARTESIAN_POINT('',(332.634717268259,-145.,3.));
#472=CARTESIAN_POINT('',(332.634717268259,-145.,3.));
#473=CARTESIAN_POINT('',(332.634717268259,-145.,3.));
#474=CARTESIAN_POINT('Origin',(332.634717268259,-10.,3.));
#475=CARTESIAN_POINT('',(332.634717268259,-24.,7.));
#476=CARTESIAN_POINT('',(332.634717268259,-10.,7.));
#477=CARTESIAN_POINT('',(332.634717268259,-24.,3.));
#478=CARTESIAN_POINT('',(332.634717268259,-24.,3.));
#479=CARTESIAN_POINT('',(332.634717268259,-10.,3.));
#480=CARTESIAN_POINT('Origin',(28.3983516110166,-155.,3.));
#481=CARTESIAN_POINT('',(28.3983516110166,-24.,3.));
#482=CARTESIAN_POINT('',(28.3983516110166,5.39138419483557,3.));
#483=CARTESIAN_POINT('',(28.3983516110166,-24.,7.));
#484=CARTESIAN_POINT('',(28.3983516110166,-24.,3.));
#485=CARTESIAN_POINT('',(28.3983516110166,5.39138419483557,7.));
#486=CARTESIAN_POINT('Origin',(70.,-24.,3.));
#487=CARTESIAN_POINT('',(70.,-24.,3.));
#488=CARTESIAN_POINT('',(70.,-24.,7.));
#489=CARTESIAN_POINT('Origin',(20.3983516110166,8.11859625829456,3.));
#490=CARTESIAN_POINT('',(20.3767470903867,11.1185184647339,3.));
#491=CARTESIAN_POINT('',(17.3983516221629,8.11833765118315,3.));
#492=CARTESIAN_POINT('Origin',(20.3983516110166,8.11859625829456,3.));
#493=CARTESIAN_POINT('',(17.3983516221629,8.11833765118315,7.));
#494=CARTESIAN_POINT('',(17.3983516221629,8.11833765118315,3.));
#495=CARTESIAN_POINT('',(20.3767470903867,11.1185184647339,7.));
#496=CARTESIAN_POINT('Origin',(20.3983516110166,8.11859625829456,7.));
#497=CARTESIAN_POINT('',(20.3767470903867,11.1185184647339,3.));
#498=CARTESIAN_POINT('Origin',(69.604958189962,11.4730449587858,3.));
#499=CARTESIAN_POINT('',(69.604958189962,11.4730449587858,3.));
#500=CARTESIAN_POINT('',(69.604958189962,11.4730449587858,3.));
#501=CARTESIAN_POINT('',(69.604958189962,11.4730449587858,7.));
#502=CARTESIAN_POINT('',(69.604958189962,11.4730449587858,7.));
#503=CARTESIAN_POINT('',(69.604958189962,11.4730449587858,3.));
#504=CARTESIAN_POINT('Origin',(69.648167231222,5.47320054590703,3.));
#505=CARTESIAN_POINT('',(73.682452023618,9.91443305657803,3.));
#506=CARTESIAN_POINT('Origin',(69.648167231222,5.47320054590703,3.));
#507=CARTESIAN_POINT('',(73.682452023618,9.91443305657803,7.));
#508=CARTESIAN_POINT('Origin',(69.648167231222,5.47320054590703,7.));
#509=CARTESIAN_POINT('',(73.682452023618,9.91443305657803,3.));
#510=CARTESIAN_POINT('Origin',(90.0573429343497,-4.96003551033034,3.));
#511=CARTESIAN_POINT('',(90.0573429343497,-4.96003551033034,3.));
#512=CARTESIAN_POINT('',(90.0573429343497,-4.96003551033034,3.));
#513=CARTESIAN_POINT('',(90.0573429343497,-4.96003551033034,7.));
#514=CARTESIAN_POINT('',(90.0573429343497,-4.96003551033034,7.));
#515=CARTESIAN_POINT('',(90.0573429343497,-4.96003551033034,3.));
#516=CARTESIAN_POINT('Origin',(335.00734293435,-4.33503551033045,3.));
#517=CARTESIAN_POINT('',(335.00734293435,-4.33503551033045,3.));
#518=CARTESIAN_POINT('',(335.00734293435,-4.33503551033045,3.));
#519=CARTESIAN_POINT('',(335.00734293435,-4.33503551033045,7.));
#520=CARTESIAN_POINT('',(335.00734293435,-4.33503551033045,7.));
#521=CARTESIAN_POINT('',(335.00734293435,-4.33503551033045,3.));
#522=CARTESIAN_POINT('Origin',(335.012445983431,-6.33502250627039,3.));
#523=CARTESIAN_POINT('',(337.01243948967,-6.335029,3.));
#524=CARTESIAN_POINT('Origin',(335.012445983431,-6.33502250627039,3.));
#525=CARTESIAN_POINT('',(337.01243948967,-6.335029,7.));
#526=CARTESIAN_POINT('Origin',(335.012445983431,-6.33502250627039,7.));
#527=CARTESIAN_POINT('',(337.01243948967,-6.335029,3.));
#528=CARTESIAN_POINT('Origin',(337.012446,-155.385029,3.));
#529=CARTESIAN_POINT('',(337.012446,-155.385029,3.));
#530=CARTESIAN_POINT('',(337.012446,-155.385029,3.));
#531=CARTESIAN_POINT('',(337.012446,-155.385029,7.));
#532=CARTESIAN_POINT('',(337.012446,-155.385029,7.));
#533=CARTESIAN_POINT('',(337.012446,-155.385029,3.));
#534=CARTESIAN_POINT('Origin',(335.012446,-155.385029,3.));
#535=CARTESIAN_POINT('',(335.012446,-157.385029,3.));
#536=CARTESIAN_POINT('Origin',(335.012446,-155.385029,3.));
#537=CARTESIAN_POINT('',(335.012446,-157.385029,7.));
#538=CARTESIAN_POINT('Origin',(335.012446,-155.385029,7.));
#539=CARTESIAN_POINT('',(335.012446,-157.385029,3.));
#540=CARTESIAN_POINT('Origin',(19.412446,-157.385029,3.));
#541=CARTESIAN_POINT('',(19.412446,-157.385029,3.));
#542=CARTESIAN_POINT('',(19.412446,-157.385029,3.));
#543=CARTESIAN_POINT('',(19.412446,-157.385029,7.));
#544=CARTESIAN_POINT('',(19.412446,-157.385029,7.));
#545=CARTESIAN_POINT('',(19.412446,-157.385029,3.));
#546=CARTESIAN_POINT('Origin',(19.4126184196045,-155.384856580395,3.));
#547=CARTESIAN_POINT('',(17.412446,-155.385029,3.));
#548=CARTESIAN_POINT('Origin',(19.4126184196045,-155.384856580395,3.));
#549=CARTESIAN_POINT('',(17.412446,-155.385029,7.));
#550=CARTESIAN_POINT('Origin',(19.4126184196045,-155.384856580395,7.));
#551=CARTESIAN_POINT('',(17.412446,-155.385029,3.));
#552=CARTESIAN_POINT('Origin',(17.3983516221629,8.11833765118315,3.));
#553=CARTESIAN_POINT('',(17.3985867143067,5.39112560798969,3.));
#554=CARTESIAN_POINT('',(17.3985867143067,5.39112560798969,7.));
#555=CARTESIAN_POINT('Origin',(177.205398805508,-72.9559142270465,7.));
#556=CARTESIAN_POINT('Origin',(177.205398805508,-72.9559142270465,3.));
#557=UNCERTAINTY_MEASURE_WITH_UNIT(LENGTH_MEASURE(0.01),#561,
'DISTANCE_ACCURACY_VALUE',
'Maximum model space distance between geometric entities at asserted c
onnectivities');
#558=UNCERTAINTY_MEASURE_WITH_UNIT(LENGTH_MEASURE(0.01),#561,
'DISTANCE_ACCURACY_VALUE',
'Maximum model space distance between geometric entities at asserted c
onnectivities');
#559=(
GEOMETRIC_REPRESENTATION_CONTEXT(3)
GLOBAL_UNCERTAINTY_ASSIGNED_CONTEXT((#557))
GLOBAL_UNIT_ASSIGNED_CONTEXT((#561,#563,#564))
REPRESENTATION_CONTEXT('','3D')
);
#560=(
GEOMETRIC_REPRESENTATION_CONTEXT(3)
GLOBAL_UNCERTAINTY_ASSIGNED_CONTEXT((#558))
GLOBAL_UNIT_ASSIGNED_CONTEXT((#561,#563,#564))
REPRESENTATION_CONTEXT('','3D')
);
#561=(
LENGTH_UNIT()
NAMED_UNIT(*)
SI_UNIT(.MILLI.,.METRE.)
);
#562=(
LENGTH_UNIT()
NAMED_UNIT(*)
SI_UNIT($,.METRE.)
);
#563=(
NAMED_UNIT(*)
PLANE_ANGLE_UNIT()
SI_UNIT($,.RADIAN.)
);
#564=(
NAMED_UNIT(*)
SI_UNIT($,.STERADIAN.)
SOLID_ANGLE_UNIT()
);
#565=SHAPE_DEFINITION_REPRESENTATION(#566,#567);
#566=PRODUCT_DEFINITION_SHAPE('',$,#569);
#567=SHAPE_REPRESENTATION('',(#345),#559);
#568=PRODUCT_DEFINITION_CONTEXT('part definition',#573,'design');
#569=PRODUCT_DEFINITION('MyCustom_75Keeb_Component18',
'MyCustom_75Keeb_Component18 v1',#570,#568);
#570=PRODUCT_DEFINITION_FORMATION('',$,#575);
#571=PRODUCT_RELATED_PRODUCT_CATEGORY('MyCustom_75Keeb_Component18 v1',
'MyCustom_75Keeb_Component18 v1',(#575));
#572=APPLICATION_PROTOCOL_DEFINITION('international standard',
'automotive_design',2009,#573);
#573=APPLICATION_CONTEXT(
'Core Data for Automotive Mechanical Design Process');
#574=PRODUCT_CONTEXT('part definition',#573,'mechanical');
#575=PRODUCT('MyCustom_75Keeb_Component18',
'MyCustom_75Keeb_Component18 v1',$,(#574));
#576=PRESENTATION_STYLE_ASSIGNMENT((#578));
#577=PRESENTATION_STYLE_ASSIGNMENT((#579));
#578=SURFACE_STYLE_USAGE(.BOTH.,#580);
#579=SURFACE_STYLE_USAGE(.BOTH.,#581);
#580=SURFACE_SIDE_STYLE('',(#582));
#581=SURFACE_SIDE_STYLE('',(#583));
#582=SURFACE_STYLE_FILL_AREA(#584);
#583=SURFACE_STYLE_FILL_AREA(#585);
#584=FILL_AREA_STYLE('Steel - Satin',(#586));
#585=FILL_AREA_STYLE('Opaque(219,188,126)',(#587));
#586=FILL_AREA_STYLE_COLOUR('Steel - Satin',#588);
#587=FILL_AREA_STYLE_COLOUR('Opaque(219,188,126)',#589);
#588=COLOUR_RGB('Steel - Satin',0.627450980392157,0.627450980392157,0.627450980392157);
#589=COLOUR_RGB('Opaque(219,188,126)',0.858823529411765,0.737254901960784,
0.494117647058824);
ENDSEC;
END-ISO-10303-21;
