ISO-10303-21;
HEADER;
/* Generated by software containing ST-Developer
 * from STEP Tools, Inc. (www.steptools.com) 
 */

FILE_DESCRIPTION(
/* description */ (''),
/* implementation_level */ '2;1');

FILE_NAME(
/* name */ 'PCB_CASE_BOTTOM.step',
/* time_stamp */ '2026-01-16T13:29:03+02:00',
/* author */ (''),
/* organization */ (''),
/* preprocessor_version */ 'ST-DEVELOPER v20.1',
/* originating_system */ 'Autodesk Translation Framework v14.21.0.0',
/* authorisation */ '');

FILE_SCHEMA (('AUTOMOTIVE_DESIGN { 1 0 10303 214 3 1 1 }'));
ENDSEC;

DATA;
#10=MECHANICAL_DESIGN_GEOMETRIC_PRESENTATION_REPRESENTATION('',(#13),#910);
#11=SHAPE_REPRESENTATION_RELATIONSHIP('SRR','None',#917,#12);
#12=ADVANCED_BREP_SHAPE_REPRESENTATION('',(#14),#909);
#13=STYLED_ITEM('',(#927),#14);
#14=MANIFOLD_SOLID_BREP('Body1',#546);
#15=CYLINDRICAL_SURFACE('',#584,6.);
#16=CYLINDRICAL_SURFACE('',#587,3.);
#17=CYLINDRICAL_SURFACE('',#590,1.04999900000003);
#18=CYLINDRICAL_SURFACE('',#591,1.04999900000003);
#19=CYLINDRICAL_SURFACE('',#592,1.04999900000001);
#20=CYLINDRICAL_SURFACE('',#593,1.049999);
#21=CYLINDRICAL_SURFACE('',#595,1.99999350624917);
#22=CYLINDRICAL_SURFACE('',#599,2.00017242703603);
#23=CYLINDRICAL_SURFACE('',#602,2.00000000000003);
#24=FACE_BOUND('',#82,.T.);
#25=FACE_BOUND('',#83,.T.);
#26=FACE_BOUND('',#84,.T.);
#27=FACE_BOUND('',#85,.T.);
#28=FACE_BOUND('',#87,.T.);
#29=FACE_BOUND('',#88,.T.);
#30=FACE_BOUND('',#89,.T.);
#31=FACE_BOUND('',#90,.T.);
#32=CIRCLE('',#565,1.04999900000003);
#33=CIRCLE('',#566,1.04999900000003);
#34=CIRCLE('',#567,1.049999);
#35=CIRCLE('',#568,1.04999900000001);
#36=CIRCLE('',#570,6.);
#37=CIRCLE('',#571,1.99999350624917);
#38=CIRCLE('',#572,2.00000000000003);
#39=CIRCLE('',#573,2.00017242703603);
#40=CIRCLE('',#574,3.);
#41=CIRCLE('',#575,1.049999);
#42=CIRCLE('',#576,1.04999900000001);
#43=CIRCLE('',#577,1.04999900000003);
#44=CIRCLE('',#578,1.04999900000003);
#45=CIRCLE('',#585,6.);
#46=CIRCLE('',#588,3.);
#47=CIRCLE('',#596,1.99999350624917);
#48=CIRCLE('',#600,2.00017242703603);
#49=CIRCLE('',#603,2.00000000000003);
#50=FACE_OUTER_BOUND('',#77,.T.);
#51=FACE_OUTER_BOUND('',#78,.T.);
#52=FACE_OUTER_BOUND('',#79,.T.);
#53=FACE_OUTER_BOUND('',#80,.T.);
#54=FACE_OUTER_BOUND('',#81,.T.);
#55=FACE_OUTER_BOUND('',#86,.T.);
#56=FACE_OUTER_BOUND('',#91,.T.);
#57=FACE_OUTER_BOUND('',#92,.T.);
#58=FACE_OUTER_BOUND('',#93,.T.);
#59=FACE_OUTER_BOUND('',#94,.T.);
#60=FACE_OUTER_BOUND('',#95,.T.);
#61=FACE_OUTER_BOUND('',#96,.T.);
#62=FACE_OUTER_BOUND('',#97,.T.);
#63=FACE_OUTER_BOUND('',#98,.T.);
#64=FACE_OUTER_BOUND('',#99,.T.);
#65=FACE_OUTER_BOUND('',#100,.T.);
#66=FACE_OUTER_BOUND('',#101,.T.);
#67=FACE_OUTER_BOUND('',#102,.T.);
#68=FACE_OUTER_BOUND('',#103,.T.);
#69=FACE_OUTER_BOUND('',#104,.T.);
#70=FACE_OUTER_BOUND('',#105,.T.);
#71=FACE_OUTER_BOUND('',#106,.T.);
#72=FACE_OUTER_BOUND('',#107,.T.);
#73=FACE_OUTER_BOUND('',#108,.T.);
#74=FACE_OUTER_BOUND('',#109,.T.);
#75=FACE_OUTER_BOUND('',#110,.T.);
#76=FACE_OUTER_BOUND('',#111,.T.);
#77=EDGE_LOOP('',(#351,#352,#353,#354));
#78=EDGE_LOOP('',(#355,#356,#357,#358));
#79=EDGE_LOOP('',(#359,#360,#361,#362));
#80=EDGE_LOOP('',(#363,#364,#365,#366,#367,#368,#369,#370));
#81=EDGE_LOOP('',(#371,#372,#373,#374,#375,#376));
#82=EDGE_LOOP('',(#377));
#83=EDGE_LOOP('',(#378));
#84=EDGE_LOOP('',(#379));
#85=EDGE_LOOP('',(#380));
#86=EDGE_LOOP('',(#381,#382,#383,#384,#385,#386,#387,#388,#389,#390,#391));
#87=EDGE_LOOP('',(#392));
#88=EDGE_LOOP('',(#393));
#89=EDGE_LOOP('',(#394));
#90=EDGE_LOOP('',(#395));
#91=EDGE_LOOP('',(#396,#397,#398,#399));
#92=EDGE_LOOP('',(#400,#401,#402,#403));
#93=EDGE_LOOP('',(#404,#405,#406,#407));
#94=EDGE_LOOP('',(#408,#409,#410,#411));
#95=EDGE_LOOP('',(#412,#413,#414,#415));
#96=EDGE_LOOP('',(#416,#417,#418,#419));
#97=EDGE_LOOP('',(#420,#421,#422,#423));
#98=EDGE_LOOP('',(#424,#425,#426,#427));
#99=EDGE_LOOP('',(#428,#429,#430,#431,#432,#433,#434,#435));
#100=EDGE_LOOP('',(#436,#437,#438,#439));
#101=EDGE_LOOP('',(#440,#441,#442,#443));
#102=EDGE_LOOP('',(#444,#445,#446,#447));
#103=EDGE_LOOP('',(#448,#449,#450,#451));
#104=EDGE_LOOP('',(#452,#453,#454,#455));
#105=EDGE_LOOP('',(#456,#457,#458,#459));
#106=EDGE_LOOP('',(#460,#461,#462,#463));
#107=EDGE_LOOP('',(#464,#465,#466,#467));
#108=EDGE_LOOP('',(#468,#469,#470,#471));
#109=EDGE_LOOP('',(#472,#473,#474,#475));
#110=EDGE_LOOP('',(#476,#477,#478,#479));
#111=EDGE_LOOP('',(#480,#481,#482,#483,#484,#485,#486,#487,#488,#489,#490,
#491,#492,#493,#494,#495,#496,#497,#498,#499,#500));
#112=LINE('',#758,#169);
#113=LINE('',#760,#170);
#114=LINE('',#762,#171);
#115=LINE('',#763,#172);
#116=LINE('',#766,#173);
#117=LINE('',#768,#174);
#118=LINE('',#769,#175);
#119=LINE('',#772,#176);
#120=LINE('',#774,#177);
#121=LINE('',#775,#178);
#122=LINE('',#778,#179);
#123=LINE('',#780,#180);
#124=LINE('',#782,#181);
#125=LINE('',#784,#182);
#126=LINE('',#785,#183);
#127=LINE('',#789,#184);
#128=LINE('',#791,#185);
#129=LINE('',#793,#186);
#130=LINE('',#794,#187);
#131=LINE('',#795,#188);
#132=LINE('',#809,#189);
#133=LINE('',#811,#190);
#134=LINE('',#815,#191);
#135=LINE('',#819,#192);
#136=LINE('',#823,#193);
#137=LINE('',#826,#194);
#138=LINE('',#838,#195);
#139=LINE('',#839,#196);
#140=LINE('',#840,#197);
#141=LINE('',#843,#198);
#142=LINE('',#844,#199);
#143=LINE('',#846,#200);
#144=LINE('',#849,#201);
#145=LINE('',#850,#202);
#146=LINE('',#852,#203);
#147=LINE('',#855,#204);
#148=LINE('',#858,#205);
#149=LINE('',#861,#206);
#150=LINE('',#862,#207);
#151=LINE('',#865,#208);
#152=LINE('',#868,#209);
#153=LINE('',#870,#210);
#154=LINE('',#871,#211);
#155=LINE('',#873,#212);
#156=LINE('',#875,#213);
#157=LINE('',#877,#214);
#158=LINE('',#879,#215);
#159=LINE('',#883,#216);
#160=LINE('',#884,#217);
#161=LINE('',#885,#218);
#162=LINE('',#889,#219);
#163=LINE('',#892,#220);
#164=LINE('',#893,#221);
#165=LINE('',#895,#222);
#166=LINE('',#899,#223);
#167=LINE('',#902,#224);
#168=LINE('',#903,#225);
#169=VECTOR('',#609,10.);
#170=VECTOR('',#610,10.);
#171=VECTOR('',#611,10.);
#172=VECTOR('',#612,10.);
#173=VECTOR('',#615,10.);
#174=VECTOR('',#616,10.);
#175=VECTOR('',#617,10.);
#176=VECTOR('',#620,10.);
#177=VECTOR('',#621,10.);
#178=VECTOR('',#622,10.);
#179=VECTOR('',#625,10.);
#180=VECTOR('',#626,10.);
#181=VECTOR('',#627,10.);
#182=VECTOR('',#628,10.);
#183=VECTOR('',#629,10.);
#184=VECTOR('',#632,10.);
#185=VECTOR('',#633,10.);
#186=VECTOR('',#634,10.);
#187=VECTOR('',#635,10.);
#188=VECTOR('',#636,10.);
#189=VECTOR('',#649,10.);
#190=VECTOR('',#650,10.);
#191=VECTOR('',#653,10.);
#192=VECTOR('',#656,10.);
#193=VECTOR('',#659,10.);
#194=VECTOR('',#662,10.);
#195=VECTOR('',#673,10.);
#196=VECTOR('',#674,10.);
#197=VECTOR('',#675,10.);
#198=VECTOR('',#678,10.);
#199=VECTOR('',#679,10.);
#200=VECTOR('',#682,10.);
#201=VECTOR('',#685,10.);
#202=VECTOR('',#686,10.);
#203=VECTOR('',#689,10.);
#204=VECTOR('',#692,10.);
#205=VECTOR('',#695,10.);
#206=VECTOR('',#698,10.);
#207=VECTOR('',#699,10.);
#208=VECTOR('',#702,10.);
#209=VECTOR('',#707,10.);
#210=VECTOR('',#708,10.);
#211=VECTOR('',#709,10.);
#212=VECTOR('',#712,1.04999900000003);
#213=VECTOR('',#715,1.04999900000003);
#214=VECTOR('',#718,1.04999900000001);
#215=VECTOR('',#721,1.049999);
#216=VECTOR('',#724,10.);
#217=VECTOR('',#725,10.);
#218=VECTOR('',#726,10.);
#219=VECTOR('',#731,10.);
#220=VECTOR('',#734,10.);
#221=VECTOR('',#735,10.);
#222=VECTOR('',#738,10.);
#223=VECTOR('',#743,10.);
#224=VECTOR('',#746,10.);
#225=VECTOR('',#747,10.);
#226=VERTEX_POINT('',#756);
#227=VERTEX_POINT('',#757);
#228=VERTEX_POINT('',#759);
#229=VERTEX_POINT('',#761);
#230=VERTEX_POINT('',#765);
#231=VERTEX_POINT('',#767);
#232=VERTEX_POINT('',#771);
#233=VERTEX_POINT('',#773);
#234=VERTEX_POINT('',#777);
#235=VERTEX_POINT('',#779);
#236=VERTEX_POINT('',#781);
#237=VERTEX_POINT('',#783);
#238=VERTEX_POINT('',#787);
#239=VERTEX_POINT('',#788);
#240=VERTEX_POINT('',#790);
#241=VERTEX_POINT('',#792);
#242=VERTEX_POINT('',#796);
#243=VERTEX_POINT('',#798);
#244=VERTEX_POINT('',#800);
#245=VERTEX_POINT('',#802);
#246=VERTEX_POINT('',#805);
#247=VERTEX_POINT('',#806);
#248=VERTEX_POINT('',#808);
#249=VERTEX_POINT('',#810);
#250=VERTEX_POINT('',#812);
#251=VERTEX_POINT('',#814);
#252=VERTEX_POINT('',#816);
#253=VERTEX_POINT('',#818);
#254=VERTEX_POINT('',#820);
#255=VERTEX_POINT('',#822);
#256=VERTEX_POINT('',#824);
#257=VERTEX_POINT('',#827);
#258=VERTEX_POINT('',#829);
#259=VERTEX_POINT('',#831);
#260=VERTEX_POINT('',#833);
#261=VERTEX_POINT('',#836);
#262=VERTEX_POINT('',#837);
#263=VERTEX_POINT('',#842);
#264=VERTEX_POINT('',#848);
#265=VERTEX_POINT('',#854);
#266=VERTEX_POINT('',#856);
#267=VERTEX_POINT('',#860);
#268=VERTEX_POINT('',#864);
#269=VERTEX_POINT('',#869);
#270=VERTEX_POINT('',#881);
#271=VERTEX_POINT('',#882);
#272=VERTEX_POINT('',#887);
#273=VERTEX_POINT('',#891);
#274=VERTEX_POINT('',#897);
#275=VERTEX_POINT('',#901);
#276=EDGE_CURVE('',#226,#227,#112,.T.);
#277=EDGE_CURVE('',#228,#226,#113,.T.);
#278=EDGE_CURVE('',#229,#228,#114,.T.);
#279=EDGE_CURVE('',#229,#227,#115,.T.);
#280=EDGE_CURVE('',#227,#230,#116,.T.);
#281=EDGE_CURVE('',#231,#229,#117,.T.);
#282=EDGE_CURVE('',#230,#231,#118,.T.);
#283=EDGE_CURVE('',#232,#226,#119,.T.);
#284=EDGE_CURVE('',#233,#232,#120,.T.);
#285=EDGE_CURVE('',#228,#233,#121,.T.);
#286=EDGE_CURVE('',#234,#230,#122,.T.);
#287=EDGE_CURVE('',#234,#235,#123,.T.);
#288=EDGE_CURVE('',#235,#236,#124,.T.);
#289=EDGE_CURVE('',#237,#236,#125,.T.);
#290=EDGE_CURVE('',#232,#237,#126,.T.);
#291=EDGE_CURVE('',#238,#239,#127,.T.);
#292=EDGE_CURVE('',#240,#238,#128,.T.);
#293=EDGE_CURVE('',#241,#240,#129,.T.);
#294=EDGE_CURVE('',#236,#241,#130,.T.);
#295=EDGE_CURVE('',#239,#235,#131,.T.);
#296=EDGE_CURVE('',#242,#242,#32,.T.);
#297=EDGE_CURVE('',#243,#243,#33,.T.);
#298=EDGE_CURVE('',#244,#244,#34,.T.);
#299=EDGE_CURVE('',#245,#245,#35,.T.);
#300=EDGE_CURVE('',#246,#247,#36,.T.);
#301=EDGE_CURVE('',#247,#248,#132,.T.);
#302=EDGE_CURVE('',#248,#249,#133,.T.);
#303=EDGE_CURVE('',#249,#250,#37,.T.);
#304=EDGE_CURVE('',#250,#251,#134,.T.);
#305=EDGE_CURVE('',#251,#252,#38,.T.);
#306=EDGE_CURVE('',#252,#253,#135,.T.);
#307=EDGE_CURVE('',#253,#254,#39,.T.);
#308=EDGE_CURVE('',#254,#255,#136,.T.);
#309=EDGE_CURVE('',#255,#256,#40,.T.);
#310=EDGE_CURVE('',#256,#246,#137,.T.);
#311=EDGE_CURVE('',#257,#257,#41,.T.);
#312=EDGE_CURVE('',#258,#258,#42,.T.);
#313=EDGE_CURVE('',#259,#259,#43,.T.);
#314=EDGE_CURVE('',#260,#260,#44,.T.);
#315=EDGE_CURVE('',#261,#262,#138,.T.);
#316=EDGE_CURVE('',#261,#240,#139,.T.);
#317=EDGE_CURVE('',#262,#238,#140,.T.);
#318=EDGE_CURVE('',#263,#261,#141,.T.);
#319=EDGE_CURVE('',#263,#241,#142,.T.);
#320=EDGE_CURVE('',#237,#263,#143,.T.);
#321=EDGE_CURVE('',#264,#234,#144,.T.);
#322=EDGE_CURVE('',#264,#239,#145,.T.);
#323=EDGE_CURVE('',#262,#264,#146,.T.);
#324=EDGE_CURVE('',#246,#265,#147,.T.);
#325=EDGE_CURVE('',#265,#266,#45,.T.);
#326=EDGE_CURVE('',#266,#247,#148,.T.);
#327=EDGE_CURVE('',#267,#256,#149,.T.);
#328=EDGE_CURVE('',#265,#267,#150,.T.);
#329=EDGE_CURVE('',#255,#268,#151,.T.);
#330=EDGE_CURVE('',#268,#267,#46,.T.);
#331=EDGE_CURVE('',#233,#268,#152,.T.);
#332=EDGE_CURVE('',#269,#254,#153,.T.);
#333=EDGE_CURVE('',#269,#231,#154,.T.);
#334=EDGE_CURVE('',#260,#243,#155,.T.);
#335=EDGE_CURVE('',#259,#242,#156,.T.);
#336=EDGE_CURVE('',#258,#245,#157,.T.);
#337=EDGE_CURVE('',#257,#244,#158,.T.);
#338=EDGE_CURVE('',#270,#271,#159,.T.);
#339=EDGE_CURVE('',#271,#251,#160,.T.);
#340=EDGE_CURVE('',#270,#250,#161,.T.);
#341=EDGE_CURVE('',#270,#272,#47,.T.);
#342=EDGE_CURVE('',#272,#249,#162,.T.);
#343=EDGE_CURVE('',#273,#272,#163,.T.);
#344=EDGE_CURVE('',#273,#248,#164,.T.);
#345=EDGE_CURVE('',#266,#273,#165,.T.);
#346=EDGE_CURVE('',#269,#274,#48,.T.);
#347=EDGE_CURVE('',#274,#253,#166,.T.);
#348=EDGE_CURVE('',#275,#274,#167,.T.);
#349=EDGE_CURVE('',#275,#252,#168,.T.);
#350=EDGE_CURVE('',#275,#271,#49,.T.);
#351=ORIENTED_EDGE('',*,*,#276,.F.);
#352=ORIENTED_EDGE('',*,*,#277,.F.);
#353=ORIENTED_EDGE('',*,*,#278,.F.);
#354=ORIENTED_EDGE('',*,*,#279,.T.);
#355=ORIENTED_EDGE('',*,*,#280,.F.);
#356=ORIENTED_EDGE('',*,*,#279,.F.);
#357=ORIENTED_EDGE('',*,*,#281,.F.);
#358=ORIENTED_EDGE('',*,*,#282,.F.);
#359=ORIENTED_EDGE('',*,*,#283,.F.);
#360=ORIENTED_EDGE('',*,*,#284,.F.);
#361=ORIENTED_EDGE('',*,*,#285,.F.);
#362=ORIENTED_EDGE('',*,*,#277,.T.);
#363=ORIENTED_EDGE('',*,*,#283,.T.);
#364=ORIENTED_EDGE('',*,*,#276,.T.);
#365=ORIENTED_EDGE('',*,*,#280,.T.);
#366=ORIENTED_EDGE('',*,*,#286,.F.);
#367=ORIENTED_EDGE('',*,*,#287,.T.);
#368=ORIENTED_EDGE('',*,*,#288,.T.);
#369=ORIENTED_EDGE('',*,*,#289,.F.);
#370=ORIENTED_EDGE('',*,*,#290,.F.);
#371=ORIENTED_EDGE('',*,*,#291,.F.);
#372=ORIENTED_EDGE('',*,*,#292,.F.);
#373=ORIENTED_EDGE('',*,*,#293,.F.);
#374=ORIENTED_EDGE('',*,*,#294,.F.);
#375=ORIENTED_EDGE('',*,*,#288,.F.);
#376=ORIENTED_EDGE('',*,*,#295,.F.);
#377=ORIENTED_EDGE('',*,*,#296,.F.);
#378=ORIENTED_EDGE('',*,*,#297,.F.);
#379=ORIENTED_EDGE('',*,*,#298,.F.);
#380=ORIENTED_EDGE('',*,*,#299,.F.);
#381=ORIENTED_EDGE('',*,*,#300,.T.);
#382=ORIENTED_EDGE('',*,*,#301,.T.);
#383=ORIENTED_EDGE('',*,*,#302,.T.);
#384=ORIENTED_EDGE('',*,*,#303,.T.);
#385=ORIENTED_EDGE('',*,*,#304,.T.);
#386=ORIENTED_EDGE('',*,*,#305,.T.);
#387=ORIENTED_EDGE('',*,*,#306,.T.);
#388=ORIENTED_EDGE('',*,*,#307,.T.);
#389=ORIENTED_EDGE('',*,*,#308,.T.);
#390=ORIENTED_EDGE('',*,*,#309,.T.);
#391=ORIENTED_EDGE('',*,*,#310,.T.);
#392=ORIENTED_EDGE('',*,*,#311,.T.);
#393=ORIENTED_EDGE('',*,*,#312,.T.);
#394=ORIENTED_EDGE('',*,*,#313,.T.);
#395=ORIENTED_EDGE('',*,*,#314,.T.);
#396=ORIENTED_EDGE('',*,*,#315,.F.);
#397=ORIENTED_EDGE('',*,*,#316,.T.);
#398=ORIENTED_EDGE('',*,*,#292,.T.);
#399=ORIENTED_EDGE('',*,*,#317,.F.);
#400=ORIENTED_EDGE('',*,*,#318,.F.);
#401=ORIENTED_EDGE('',*,*,#319,.T.);
#402=ORIENTED_EDGE('',*,*,#293,.T.);
#403=ORIENTED_EDGE('',*,*,#316,.F.);
#404=ORIENTED_EDGE('',*,*,#320,.F.);
#405=ORIENTED_EDGE('',*,*,#289,.T.);
#406=ORIENTED_EDGE('',*,*,#294,.T.);
#407=ORIENTED_EDGE('',*,*,#319,.F.);
#408=ORIENTED_EDGE('',*,*,#321,.F.);
#409=ORIENTED_EDGE('',*,*,#322,.T.);
#410=ORIENTED_EDGE('',*,*,#295,.T.);
#411=ORIENTED_EDGE('',*,*,#287,.F.);
#412=ORIENTED_EDGE('',*,*,#323,.F.);
#413=ORIENTED_EDGE('',*,*,#317,.T.);
#414=ORIENTED_EDGE('',*,*,#291,.T.);
#415=ORIENTED_EDGE('',*,*,#322,.F.);
#416=ORIENTED_EDGE('',*,*,#324,.T.);
#417=ORIENTED_EDGE('',*,*,#325,.T.);
#418=ORIENTED_EDGE('',*,*,#326,.T.);
#419=ORIENTED_EDGE('',*,*,#300,.F.);
#420=ORIENTED_EDGE('',*,*,#324,.F.);
#421=ORIENTED_EDGE('',*,*,#310,.F.);
#422=ORIENTED_EDGE('',*,*,#327,.F.);
#423=ORIENTED_EDGE('',*,*,#328,.F.);
#424=ORIENTED_EDGE('',*,*,#329,.T.);
#425=ORIENTED_EDGE('',*,*,#330,.T.);
#426=ORIENTED_EDGE('',*,*,#327,.T.);
#427=ORIENTED_EDGE('',*,*,#309,.F.);
#428=ORIENTED_EDGE('',*,*,#285,.T.);
#429=ORIENTED_EDGE('',*,*,#331,.T.);
#430=ORIENTED_EDGE('',*,*,#329,.F.);
#431=ORIENTED_EDGE('',*,*,#308,.F.);
#432=ORIENTED_EDGE('',*,*,#332,.F.);
#433=ORIENTED_EDGE('',*,*,#333,.T.);
#434=ORIENTED_EDGE('',*,*,#281,.T.);
#435=ORIENTED_EDGE('',*,*,#278,.T.);
#436=ORIENTED_EDGE('',*,*,#314,.F.);
#437=ORIENTED_EDGE('',*,*,#334,.T.);
#438=ORIENTED_EDGE('',*,*,#297,.T.);
#439=ORIENTED_EDGE('',*,*,#334,.F.);
#440=ORIENTED_EDGE('',*,*,#313,.F.);
#441=ORIENTED_EDGE('',*,*,#335,.T.);
#442=ORIENTED_EDGE('',*,*,#296,.T.);
#443=ORIENTED_EDGE('',*,*,#335,.F.);
#444=ORIENTED_EDGE('',*,*,#312,.F.);
#445=ORIENTED_EDGE('',*,*,#336,.T.);
#446=ORIENTED_EDGE('',*,*,#299,.T.);
#447=ORIENTED_EDGE('',*,*,#336,.F.);
#448=ORIENTED_EDGE('',*,*,#311,.F.);
#449=ORIENTED_EDGE('',*,*,#337,.T.);
#450=ORIENTED_EDGE('',*,*,#298,.T.);
#451=ORIENTED_EDGE('',*,*,#337,.F.);
#452=ORIENTED_EDGE('',*,*,#338,.T.);
#453=ORIENTED_EDGE('',*,*,#339,.T.);
#454=ORIENTED_EDGE('',*,*,#304,.F.);
#455=ORIENTED_EDGE('',*,*,#340,.F.);
#456=ORIENTED_EDGE('',*,*,#341,.F.);
#457=ORIENTED_EDGE('',*,*,#340,.T.);
#458=ORIENTED_EDGE('',*,*,#303,.F.);
#459=ORIENTED_EDGE('',*,*,#342,.F.);
#460=ORIENTED_EDGE('',*,*,#343,.T.);
#461=ORIENTED_EDGE('',*,*,#342,.T.);
#462=ORIENTED_EDGE('',*,*,#302,.F.);
#463=ORIENTED_EDGE('',*,*,#344,.F.);
#464=ORIENTED_EDGE('',*,*,#326,.F.);
#465=ORIENTED_EDGE('',*,*,#345,.T.);
#466=ORIENTED_EDGE('',*,*,#344,.T.);
#467=ORIENTED_EDGE('',*,*,#301,.F.);
#468=ORIENTED_EDGE('',*,*,#346,.F.);
#469=ORIENTED_EDGE('',*,*,#332,.T.);
#470=ORIENTED_EDGE('',*,*,#307,.F.);
#471=ORIENTED_EDGE('',*,*,#347,.F.);
#472=ORIENTED_EDGE('',*,*,#348,.T.);
#473=ORIENTED_EDGE('',*,*,#347,.T.);
#474=ORIENTED_EDGE('',*,*,#306,.F.);
#475=ORIENTED_EDGE('',*,*,#349,.F.);
#476=ORIENTED_EDGE('',*,*,#350,.F.);
#477=ORIENTED_EDGE('',*,*,#349,.T.);
#478=ORIENTED_EDGE('',*,*,#305,.F.);
#479=ORIENTED_EDGE('',*,*,#339,.F.);
#480=ORIENTED_EDGE('',*,*,#284,.T.);
#481=ORIENTED_EDGE('',*,*,#290,.T.);
#482=ORIENTED_EDGE('',*,*,#320,.T.);
#483=ORIENTED_EDGE('',*,*,#318,.T.);
#484=ORIENTED_EDGE('',*,*,#315,.T.);
#485=ORIENTED_EDGE('',*,*,#323,.T.);
#486=ORIENTED_EDGE('',*,*,#321,.T.);
#487=ORIENTED_EDGE('',*,*,#286,.T.);
#488=ORIENTED_EDGE('',*,*,#282,.T.);
#489=ORIENTED_EDGE('',*,*,#333,.F.);
#490=ORIENTED_EDGE('',*,*,#346,.T.);
#491=ORIENTED_EDGE('',*,*,#348,.F.);
#492=ORIENTED_EDGE('',*,*,#350,.T.);
#493=ORIENTED_EDGE('',*,*,#338,.F.);
#494=ORIENTED_EDGE('',*,*,#341,.T.);
#495=ORIENTED_EDGE('',*,*,#343,.F.);
#496=ORIENTED_EDGE('',*,*,#345,.F.);
#497=ORIENTED_EDGE('',*,*,#325,.F.);
#498=ORIENTED_EDGE('',*,*,#328,.T.);
#499=ORIENTED_EDGE('',*,*,#330,.F.);
#500=ORIENTED_EDGE('',*,*,#331,.F.);
#501=PLANE('',#560);
#502=PLANE('',#561);
#503=PLANE('',#562);
#504=PLANE('',#563);
#505=PLANE('',#564);
#506=PLANE('',#569);
#507=PLANE('',#579);
#508=PLANE('',#580);
#509=PLANE('',#581);
#510=PLANE('',#582);
#511=PLANE('',#583);
#512=PLANE('',#586);
#513=PLANE('',#589);
#514=PLANE('',#594);
#515=PLANE('',#597);
#516=PLANE('',#598);
#517=PLANE('',#601);
#518=PLANE('',#604);
#519=ADVANCED_FACE('',(#50),#501,.F.);
#520=ADVANCED_FACE('',(#51),#502,.F.);
#521=ADVANCED_FACE('',(#52),#503,.F.);
#522=ADVANCED_FACE('',(#53),#504,.F.);
#523=ADVANCED_FACE('',(#54,#24,#25,#26,#27),#505,.T.);
#524=ADVANCED_FACE('',(#55,#28,#29,#30,#31),#506,.F.);
#525=ADVANCED_FACE('',(#56),#507,.F.);
#526=ADVANCED_FACE('',(#57),#508,.F.);
#527=ADVANCED_FACE('',(#58),#509,.F.);
#528=ADVANCED_FACE('',(#59),#510,.F.);
#529=ADVANCED_FACE('',(#60),#511,.F.);
#530=ADVANCED_FACE('',(#61),#15,.T.);
#531=ADVANCED_FACE('',(#62),#512,.T.);
#532=ADVANCED_FACE('',(#63),#16,.T.);
#533=ADVANCED_FACE('',(#64),#513,.T.);
#534=ADVANCED_FACE('',(#65),#17,.F.);
#535=ADVANCED_FACE('',(#66),#18,.F.);
#536=ADVANCED_FACE('',(#67),#19,.F.);
#537=ADVANCED_FACE('',(#68),#20,.F.);
#538=ADVANCED_FACE('',(#69),#514,.T.);
#539=ADVANCED_FACE('',(#70),#21,.T.);
#540=ADVANCED_FACE('',(#71),#515,.T.);
#541=ADVANCED_FACE('',(#72),#516,.T.);
#542=ADVANCED_FACE('',(#73),#22,.T.);
#543=ADVANCED_FACE('',(#74),#517,.T.);
#544=ADVANCED_FACE('',(#75),#23,.T.);
#545=ADVANCED_FACE('',(#76),#518,.T.);
#546=CLOSED_SHELL('',(#519,#520,#521,#522,#523,#524,#525,#526,#527,#528,
#529,#530,#531,#532,#533,#534,#535,#536,#537,#538,#539,#540,#541,#542,#543,
#544,#545));
#547=DERIVED_UNIT_ELEMENT(#549,1.);
#548=DERIVED_UNIT_ELEMENT(#912,-3.);
#549=(
MASS_UNIT()
NAMED_UNIT(*)
SI_UNIT(.KILO.,.GRAM.)
);
#550=DERIVED_UNIT((#547,#548));
#551=MEASURE_REPRESENTATION_ITEM('density measure',
POSITIVE_RATIO_MEASURE(7850.),#550);
#552=PROPERTY_DEFINITION_REPRESENTATION(#557,#554);
#553=PROPERTY_DEFINITION_REPRESENTATION(#558,#555);
#554=REPRESENTATION('material name',(#556),#909);
#555=REPRESENTATION('density',(#551),#909);
#556=DESCRIPTIVE_REPRESENTATION_ITEM('Steel','Steel');
#557=PROPERTY_DEFINITION('material property','material name',#919);
#558=PROPERTY_DEFINITION('material property','density of part',#919);
#559=AXIS2_PLACEMENT_3D('',#754,#605,#606);
#560=AXIS2_PLACEMENT_3D('',#755,#607,#608);
#561=AXIS2_PLACEMENT_3D('',#764,#613,#614);
#562=AXIS2_PLACEMENT_3D('',#770,#618,#619);
#563=AXIS2_PLACEMENT_3D('',#776,#623,#624);
#564=AXIS2_PLACEMENT_3D('',#786,#630,#631);
#565=AXIS2_PLACEMENT_3D('',#797,#637,#638);
#566=AXIS2_PLACEMENT_3D('',#799,#639,#640);
#567=AXIS2_PLACEMENT_3D('',#801,#641,#642);
#568=AXIS2_PLACEMENT_3D('',#803,#643,#644);
#569=AXIS2_PLACEMENT_3D('',#804,#645,#646);
#570=AXIS2_PLACEMENT_3D('',#807,#647,#648);
#571=AXIS2_PLACEMENT_3D('',#813,#651,#652);
#572=AXIS2_PLACEMENT_3D('',#817,#654,#655);
#573=AXIS2_PLACEMENT_3D('',#821,#657,#658);
#574=AXIS2_PLACEMENT_3D('',#825,#660,#661);
#575=AXIS2_PLACEMENT_3D('',#828,#663,#664);
#576=AXIS2_PLACEMENT_3D('',#830,#665,#666);
#577=AXIS2_PLACEMENT_3D('',#832,#667,#668);
#578=AXIS2_PLACEMENT_3D('',#834,#669,#670);
#579=AXIS2_PLACEMENT_3D('',#835,#671,#672);
#580=AXIS2_PLACEMENT_3D('',#841,#676,#677);
#581=AXIS2_PLACEMENT_3D('',#845,#680,#681);
#582=AXIS2_PLACEMENT_3D('',#847,#683,#684);
#583=AXIS2_PLACEMENT_3D('',#851,#687,#688);
#584=AXIS2_PLACEMENT_3D('',#853,#690,#691);
#585=AXIS2_PLACEMENT_3D('',#857,#693,#694);
#586=AXIS2_PLACEMENT_3D('',#859,#696,#697);
#587=AXIS2_PLACEMENT_3D('',#863,#700,#701);
#588=AXIS2_PLACEMENT_3D('',#866,#703,#704);
#589=AXIS2_PLACEMENT_3D('',#867,#705,#706);
#590=AXIS2_PLACEMENT_3D('',#872,#710,#711);
#591=AXIS2_PLACEMENT_3D('',#874,#713,#714);
#592=AXIS2_PLACEMENT_3D('',#876,#716,#717);
#593=AXIS2_PLACEMENT_3D('',#878,#719,#720);
#594=AXIS2_PLACEMENT_3D('',#880,#722,#723);
#595=AXIS2_PLACEMENT_3D('',#886,#727,#728);
#596=AXIS2_PLACEMENT_3D('',#888,#729,#730);
#597=AXIS2_PLACEMENT_3D('',#890,#732,#733);
#598=AXIS2_PLACEMENT_3D('',#894,#736,#737);
#599=AXIS2_PLACEMENT_3D('',#896,#739,#740);
#600=AXIS2_PLACEMENT_3D('',#898,#741,#742);
#601=AXIS2_PLACEMENT_3D('',#900,#744,#745);
#602=AXIS2_PLACEMENT_3D('',#904,#748,#749);
#603=AXIS2_PLACEMENT_3D('',#905,#750,#751);
#604=AXIS2_PLACEMENT_3D('',#906,#752,#753);
#605=DIRECTION('axis',(0.,0.,1.));
#606=DIRECTION('refdir',(1.,0.,0.));
#607=DIRECTION('center_axis',(0.,0.,-1.));
#608=DIRECTION('ref_axis',(-8.62023704674745E-5,0.999999996284576,0.));
#609=DIRECTION('',(0.,-1.,0.));
#610=DIRECTION('',(0.999999996284576,8.62023704674991E-5,0.));
#611=DIRECTION('',(-8.62023704674745E-5,0.999999996284576,0.));
#612=DIRECTION('',(0.999999996284576,8.62023704674991E-5,0.));
#613=DIRECTION('center_axis',(8.62023704674991E-5,-0.999999996284576,0.));
#614=DIRECTION('ref_axis',(0.,0.,-1.));
#615=DIRECTION('',(0.,0.,1.));
#616=DIRECTION('',(0.,0.,-1.));
#617=DIRECTION('',(-0.999999996284576,-8.62023704674991E-5,0.));
#618=DIRECTION('center_axis',(-8.62023704674991E-5,0.999999996284576,-3.40799322190398E-33));
#619=DIRECTION('ref_axis',(-1.38777874977586E-16,-1.19629818359543E-20,
1.));
#620=DIRECTION('',(0.,-3.40799323456612E-33,-1.));
#621=DIRECTION('',(0.999999996284576,8.62023704674991E-5,0.));
#622=DIRECTION('',(-2.93777094265209E-37,3.40799320924183E-33,1.));
#623=DIRECTION('center_axis',(-1.,0.,0.));
#624=DIRECTION('ref_axis',(0.,1.,0.));
#625=DIRECTION('',(0.,1.,0.));
#626=DIRECTION('',(0.,0.,-1.));
#627=DIRECTION('',(0.,1.,0.));
#628=DIRECTION('',(0.,0.,-1.));
#629=DIRECTION('',(0.,1.,0.));
#630=DIRECTION('center_axis',(0.,0.,1.));
#631=DIRECTION('ref_axis',(-1.,0.,0.));
#632=DIRECTION('',(0.,-1.,0.));
#633=DIRECTION('',(1.,0.,0.));
#634=DIRECTION('',(0.,-1.,0.));
#635=DIRECTION('',(1.,0.,0.));
#636=DIRECTION('',(-1.,0.,0.));
#637=DIRECTION('center_axis',(0.,0.,1.));
#638=DIRECTION('ref_axis',(1.,0.,0.));
#639=DIRECTION('center_axis',(0.,0.,1.));
#640=DIRECTION('ref_axis',(1.,0.,0.));
#641=DIRECTION('center_axis',(0.,0.,1.));
#642=DIRECTION('ref_axis',(1.,0.,0.));
#643=DIRECTION('center_axis',(0.,0.,1.));
#644=DIRECTION('ref_axis',(1.,0.,0.));
#645=DIRECTION('center_axis',(0.,0.,1.));
#646=DIRECTION('ref_axis',(1.,0.,0.));
#647=DIRECTION('center_axis',(0.,0.,-1.));
#648=DIRECTION('ref_axis',(0.35705155160987,0.934084680044044,0.));
#649=DIRECTION('',(0.740205418445185,-0.672380798732674,0.));
#650=DIRECTION('',(0.999996744834823,0.00255153282515519,0.));
#651=DIRECTION('center_axis',(0.,0.,-1.));
#652=DIRECTION('ref_axis',(0.999999999994729,-3.24687535365674E-6,0.));
#653=DIRECTION('',(4.3678835344548E-8,-0.999999999999999,0.));
#654=DIRECTION('center_axis',(0.,0.,-1.));
#655=DIRECTION('ref_axis',(0.,-1.,0.));
#656=DIRECTION('',(-1.,0.,0.));
#657=DIRECTION('center_axis',(0.,0.,-1.));
#658=DIRECTION('ref_axis',(-0.999999996284576,-8.62023704650757E-5,0.));
#659=DIRECTION('',(-8.62023704674745E-5,0.999999996284576,0.));
#660=DIRECTION('center_axis',(0.,0.,-1.));
#661=DIRECTION('ref_axis',(-0.70967869736418,0.70452547612381,0.));
#662=DIRECTION('',(0.99997406881314,0.00720150687665584,0.));
#663=DIRECTION('center_axis',(0.,0.,1.));
#664=DIRECTION('ref_axis',(1.,0.,0.));
#665=DIRECTION('center_axis',(0.,0.,1.));
#666=DIRECTION('ref_axis',(1.,0.,0.));
#667=DIRECTION('center_axis',(0.,0.,1.));
#668=DIRECTION('ref_axis',(1.,0.,0.));
#669=DIRECTION('center_axis',(0.,0.,1.));
#670=DIRECTION('ref_axis',(1.,0.,0.));
#671=DIRECTION('center_axis',(0.,1.,0.));
#672=DIRECTION('ref_axis',(1.,0.,0.));
#673=DIRECTION('',(1.,0.,0.));
#674=DIRECTION('',(0.,0.,-1.));
#675=DIRECTION('',(0.,0.,-1.));
#676=DIRECTION('center_axis',(1.,0.,0.));
#677=DIRECTION('ref_axis',(0.,-1.,0.));
#678=DIRECTION('',(0.,-1.,0.));
#679=DIRECTION('',(0.,0.,-1.));
#680=DIRECTION('center_axis',(0.,1.,0.));
#681=DIRECTION('ref_axis',(1.,0.,0.));
#682=DIRECTION('',(1.,0.,0.));
#683=DIRECTION('center_axis',(0.,-1.,0.));
#684=DIRECTION('ref_axis',(-1.,0.,0.));
#685=DIRECTION('',(-1.,0.,0.));
#686=DIRECTION('',(0.,0.,-1.));
#687=DIRECTION('center_axis',(1.,0.,0.));
#688=DIRECTION('ref_axis',(0.,-1.,0.));
#689=DIRECTION('',(0.,-1.,0.));
#690=DIRECTION('center_axis',(0.,0.,-1.));
#691=DIRECTION('ref_axis',(0.35705155160987,0.934084680044044,0.));
#692=DIRECTION('',(0.,0.,1.));
#693=DIRECTION('center_axis',(0.,0.,-1.));
#694=DIRECTION('ref_axis',(0.35705155160987,0.934084680044044,0.));
#695=DIRECTION('',(0.,0.,-1.));
#696=DIRECTION('center_axis',(-0.00720150687665584,0.99997406881314,0.));
#697=DIRECTION('ref_axis',(0.99997406881314,0.00720150687665584,0.));
#698=DIRECTION('',(0.,0.,-1.));
#699=DIRECTION('',(-0.99997406881314,-0.00720150687665584,0.));
#700=DIRECTION('center_axis',(0.,0.,-1.));
#701=DIRECTION('ref_axis',(-0.70967869736418,0.70452547612381,0.));
#702=DIRECTION('',(0.,0.,1.));
#703=DIRECTION('center_axis',(0.,0.,-1.));
#704=DIRECTION('ref_axis',(-0.70967869736418,0.70452547612381,0.));
#705=DIRECTION('center_axis',(-0.999999996284576,-8.62023704674745E-5,0.));
#706=DIRECTION('ref_axis',(-8.62023704674745E-5,0.999999996284576,0.));
#707=DIRECTION('',(-8.62023704674745E-5,0.999999996284576,0.));
#708=DIRECTION('',(0.,0.,-1.));
#709=DIRECTION('',(-8.62023704674745E-5,0.999999996284576,0.));
#710=DIRECTION('center_axis',(0.,0.,-1.));
#711=DIRECTION('ref_axis',(1.,0.,0.));
#712=DIRECTION('',(0.,0.,1.));
#713=DIRECTION('center_axis',(0.,0.,-1.));
#714=DIRECTION('ref_axis',(1.,0.,0.));
#715=DIRECTION('',(0.,0.,1.));
#716=DIRECTION('center_axis',(0.,0.,-1.));
#717=DIRECTION('ref_axis',(1.,0.,0.));
#718=DIRECTION('',(0.,0.,1.));
#719=DIRECTION('center_axis',(0.,0.,-1.));
#720=DIRECTION('ref_axis',(1.,0.,0.));
#721=DIRECTION('',(0.,0.,1.));
#722=DIRECTION('center_axis',(0.999999999999999,4.3678835344548E-8,0.));
#723=DIRECTION('ref_axis',(4.3678835344548E-8,-0.999999999999999,0.));
#724=DIRECTION('',(4.3678835344548E-8,-0.999999999999999,0.));
#725=DIRECTION('',(0.,0.,-1.));
#726=DIRECTION('',(0.,0.,-1.));
#727=DIRECTION('center_axis',(0.,0.,-1.));
#728=DIRECTION('ref_axis',(0.999999999994729,-3.24687535365674E-6,0.));
#729=DIRECTION('center_axis',(0.,0.,1.));
#730=DIRECTION('ref_axis',(0.999999999994729,-3.24687535365674E-6,0.));
#731=DIRECTION('',(0.,0.,-1.));
#732=DIRECTION('center_axis',(-0.00255153282515519,0.999996744834823,0.));
#733=DIRECTION('ref_axis',(0.999996744834823,0.00255153282515519,0.));
#734=DIRECTION('',(0.999996744834823,0.00255153282515519,0.));
#735=DIRECTION('',(0.,0.,-1.));
#736=DIRECTION('center_axis',(0.672380798732674,0.740205418445185,0.));
#737=DIRECTION('ref_axis',(0.740205418445185,-0.672380798732674,0.));
#738=DIRECTION('',(0.740205418445185,-0.672380798732674,0.));
#739=DIRECTION('center_axis',(0.,0.,-1.));
#740=DIRECTION('ref_axis',(-0.999999996284576,-8.62023704650757E-5,0.));
#741=DIRECTION('center_axis',(0.,0.,1.));
#742=DIRECTION('ref_axis',(-0.999999996284576,-8.62023704650757E-5,0.));
#743=DIRECTION('',(0.,0.,-1.));
#744=DIRECTION('center_axis',(0.,-1.,0.));
#745=DIRECTION('ref_axis',(-1.,0.,0.));
#746=DIRECTION('',(-1.,0.,0.));
#747=DIRECTION('',(0.,0.,-1.));
#748=DIRECTION('center_axis',(0.,0.,-1.));
#749=DIRECTION('ref_axis',(0.,-1.,0.));
#750=DIRECTION('center_axis',(0.,0.,1.));
#751=DIRECTION('ref_axis',(0.,-1.,0.));
#752=DIRECTION('center_axis',(0.,0.,1.));
#753=DIRECTION('ref_axis',(1.,0.,0.));
#754=CARTESIAN_POINT('',(0.,0.,0.));
#755=CARTESIAN_POINT('Origin',(17.4005167531453,-16.9985003506849,-10.0000001490116));
#756=CARTESIAN_POINT('',(20.3983516110166,5.39138419483557,-10.0000001490116));
#757=CARTESIAN_POINT('',(20.3983516110166,-16.9982419302129,-10.0000001490116));
#758=CARTESIAN_POINT('',(20.3983516110166,-85.9992501753425,-10.0000001490116));
#759=CARTESIAN_POINT('',(17.3985867143067,5.39112560798969,-10.0000001490116));
#760=CARTESIAN_POINT('',(17.3985867143067,5.39112560798969,-10.0000001490116));
#761=CARTESIAN_POINT('',(17.4005167531453,-16.9985003506849,-10.0000001490116));
#762=CARTESIAN_POINT('',(17.4064813765727,-86.1917646753425,-10.0000001490116));
#763=CARTESIAN_POINT('',(17.4005167531453,-16.9985003506849,-10.0000001490116));
#764=CARTESIAN_POINT('Origin',(17.4005167531453,-16.9985003506849,-2.));
#765=CARTESIAN_POINT('',(20.3983516110166,-16.9982419302129,-2.));
#766=CARTESIAN_POINT('',(20.3983516110166,-16.9982419302129,-2.));
#767=CARTESIAN_POINT('',(17.4005167531453,-16.9985003506849,-2.));
#768=CARTESIAN_POINT('',(17.4005167531453,-16.9985003506849,-2.));
#769=CARTESIAN_POINT('',(97.3004815244291,-16.9916127842957,-2.));
#770=CARTESIAN_POINT('Origin',(17.3985867143067,5.39112560798969,-10.0000001490116));
#771=CARTESIAN_POINT('',(20.3983516110166,5.39138419483557,-2.));
#772=CARTESIAN_POINT('',(20.3983516110166,5.3913841948356,-6.0000000745058));
#773=CARTESIAN_POINT('',(17.3985867143067,5.39112560798969,-2.));
#774=CARTESIAN_POINT('',(97.2985514855905,5.39801317437881,-2.));
#775=CARTESIAN_POINT('',(17.3985867143067,5.39112560798969,-6.0000000745058));
#776=CARTESIAN_POINT('Origin',(20.3983516110166,-155.,-2.));
#777=CARTESIAN_POINT('',(20.3983516110166,-155.,-2.));
#778=CARTESIAN_POINT('',(20.3983516110166,-113.973777465593,-2.));
#779=CARTESIAN_POINT('',(20.3983516110166,-155.,-12.));
#780=CARTESIAN_POINT('',(20.3983516110166,-155.,-2.));
#781=CARTESIAN_POINT('',(20.3983516110166,8.11859625829456,-12.));
#782=CARTESIAN_POINT('',(20.3983516110166,-155.,-12.));
#783=CARTESIAN_POINT('',(20.3983516110166,8.11859625829456,-2.));
#784=CARTESIAN_POINT('',(20.3983516110166,8.11859625829456,-2.));
#785=CARTESIAN_POINT('',(20.3983516110166,-113.973777465593,-2.));
#786=CARTESIAN_POINT('Origin',(176.516534439638,-73.4407018708527,-12.));
#787=CARTESIAN_POINT('',(332.634717268259,-10.,-12.));
#788=CARTESIAN_POINT('',(332.634717268259,-155.,-12.));
#789=CARTESIAN_POINT('',(332.634717268259,-10.,-12.));
#790=CARTESIAN_POINT('',(70.,-10.,-12.));
#791=CARTESIAN_POINT('',(70.,-10.,-12.));
#792=CARTESIAN_POINT('',(70.,8.11859625829456,-12.));
#793=CARTESIAN_POINT('',(70.,8.11859625829456,-12.));
#794=CARTESIAN_POINT('',(20.3983516110166,8.11859625829456,-12.));
#795=CARTESIAN_POINT('',(70.,-155.,-12.));
#796=CARTESIAN_POINT('',(328.962447,-151.835029,-12.));
#797=CARTESIAN_POINT('Origin',(330.012446,-151.835029,-12.));
#798=CARTESIAN_POINT('',(328.962447,-18.485029,-12.));
#799=CARTESIAN_POINT('Origin',(330.012446,-18.485029,-12.));
#800=CARTESIAN_POINT('',(21.762447,-18.235029,-12.));
#801=CARTESIAN_POINT('Origin',(22.812446,-18.235029,-12.));
#802=CARTESIAN_POINT('',(21.812447,-151.585029,-12.));
#803=CARTESIAN_POINT('Origin',(22.862446,-151.585029,-12.));
#804=CARTESIAN_POINT('Origin',(177.20527042431,-72.9475549311869,-15.));
#805=CARTESIAN_POINT('',(69.604958189962,11.4730449587858,-15.));
#806=CARTESIAN_POINT('',(73.682452023618,9.91443305657803,-15.));
#807=CARTESIAN_POINT('Origin',(69.6481672312219,5.47320054590692,-15.));
#808=CARTESIAN_POINT('',(90.0573429343497,-4.96003551033034,-15.));
#809=CARTESIAN_POINT('',(71.9480429862467,11.4899191376263,-15.));
#810=CARTESIAN_POINT('',(335.00734293435,-4.33503551033041,-15.));
#811=CARTESIAN_POINT('',(90.0573429343497,-4.96003551033034,-15.));
#812=CARTESIAN_POINT('',(337.01243948967,-6.335029,-15.));
#813=CARTESIAN_POINT('Origin',(335.012445983431,-6.33502250627039,-15.));
#814=CARTESIAN_POINT('',(337.012446,-155.385029,-15.));
#815=CARTESIAN_POINT('',(337.01243948967,-6.335029,-15.));
#816=CARTESIAN_POINT('',(335.012446,-157.385029,-15.));
#817=CARTESIAN_POINT('Origin',(335.012446,-155.385029,-15.));
#818=CARTESIAN_POINT('',(19.412446,-157.385029,-15.));
#819=CARTESIAN_POINT('',(335.012446,-157.385029,-15.));
#820=CARTESIAN_POINT('',(17.412446,-155.385029,-15.));
#821=CARTESIAN_POINT('Origin',(19.4126184196045,-155.384856580395,-15.));
#822=CARTESIAN_POINT('',(17.3983516221629,8.11833765118315,-15.));
#823=CARTESIAN_POINT('',(17.412446,-155.385029,-15.));
#824=CARTESIAN_POINT('',(20.3767470903867,11.1185184647339,-15.));
#825=CARTESIAN_POINT('Origin',(20.3983516110166,8.11859625829452,-15.));
#826=CARTESIAN_POINT('',(71.9480429862467,11.4899191376263,-15.));
#827=CARTESIAN_POINT('',(21.762447,-18.235029,-15.));
#828=CARTESIAN_POINT('Origin',(22.812446,-18.235029,-15.));
#829=CARTESIAN_POINT('',(21.812447,-151.585029,-15.));
#830=CARTESIAN_POINT('Origin',(22.862446,-151.585029,-15.));
#831=CARTESIAN_POINT('',(328.962447,-151.835029,-15.));
#832=CARTESIAN_POINT('Origin',(330.012446,-151.835029,-15.));
#833=CARTESIAN_POINT('',(328.962447,-18.485029,-15.));
#834=CARTESIAN_POINT('Origin',(330.012446,-18.485029,-15.));
#835=CARTESIAN_POINT('Origin',(70.,-10.,-2.));
#836=CARTESIAN_POINT('',(70.,-10.,-2.));
#837=CARTESIAN_POINT('',(332.634717268259,-10.,-2.));
#838=CARTESIAN_POINT('',(123.602635212155,-10.,-2.));
#839=CARTESIAN_POINT('',(70.,-10.,-2.));
#840=CARTESIAN_POINT('',(332.634717268259,-10.,-2.));
#841=CARTESIAN_POINT('Origin',(70.,8.11859625829456,-2.));
#842=CARTESIAN_POINT('',(70.,8.11859625829456,-2.));
#843=CARTESIAN_POINT('',(70.,-32.4144793364461,-2.));
#844=CARTESIAN_POINT('',(70.,8.11859625829456,-2.));
#845=CARTESIAN_POINT('Origin',(20.3983516110166,8.11859625829456,-2.));
#846=CARTESIAN_POINT('',(98.8018110176634,8.11859625829456,-2.));
#847=CARTESIAN_POINT('Origin',(332.634717268259,-155.,-2.));
#848=CARTESIAN_POINT('',(332.634717268259,-155.,-2.));
#849=CARTESIAN_POINT('',(254.919993846285,-155.,-2.));
#850=CARTESIAN_POINT('',(332.634717268259,-155.,-2.));
#851=CARTESIAN_POINT('Origin',(332.634717268259,-10.,-2.));
#852=CARTESIAN_POINT('',(332.634717268259,-41.4737774655934,-2.));
#853=CARTESIAN_POINT('Origin',(69.6481672312219,5.47320054590692,-2.));
#854=CARTESIAN_POINT('',(69.604958189962,11.4730449587858,-2.));
#855=CARTESIAN_POINT('',(69.604958189962,11.4730449587858,-2.));
#856=CARTESIAN_POINT('',(73.682452023618,9.91443305657803,-2.));
#857=CARTESIAN_POINT('Origin',(69.6481672312219,5.47320054590692,-2.));
#858=CARTESIAN_POINT('',(73.682452023618,9.91443305657803,-2.));
#859=CARTESIAN_POINT('Origin',(17.3980948486204,11.097067123873,-2.));
#860=CARTESIAN_POINT('',(20.3767470903867,11.1185184647339,-2.));
#861=CARTESIAN_POINT('',(20.3767470903867,11.1185184647339,-2.));
#862=CARTESIAN_POINT('',(71.9480429862467,11.4899191376263,-2.));
#863=CARTESIAN_POINT('Origin',(20.3983516110166,8.11859625829452,-2.));
#864=CARTESIAN_POINT('',(17.3983516221629,8.11833765118315,-2.));
#865=CARTESIAN_POINT('',(17.3983516221629,8.11833765118312,-2.));
#866=CARTESIAN_POINT('Origin',(20.3983516110166,8.11859625829452,-2.));
#867=CARTESIAN_POINT('Origin',(17.412446,-155.385029,-2.));
#868=CARTESIAN_POINT('',(17.412446,-155.385029,-2.));
#869=CARTESIAN_POINT('',(17.412446,-155.385029,-2.));
#870=CARTESIAN_POINT('',(17.412446,-155.385029,-2.));
#871=CARTESIAN_POINT('',(17.412446,-155.385029,-2.));
#872=CARTESIAN_POINT('Origin',(330.012446,-18.485029,-2.));
#873=CARTESIAN_POINT('',(328.962447,-18.485029,-2.));
#874=CARTESIAN_POINT('Origin',(330.012446,-151.835029,-2.));
#875=CARTESIAN_POINT('',(328.962447,-151.835029,-2.));
#876=CARTESIAN_POINT('Origin',(22.862446,-151.585029,-2.));
#877=CARTESIAN_POINT('',(21.812447,-151.585029,-2.));
#878=CARTESIAN_POINT('Origin',(22.812446,-18.235029,-2.));
#879=CARTESIAN_POINT('',(21.762447,-18.235029,-2.));
#880=CARTESIAN_POINT('Origin',(337.01243948967,-6.335029,-2.));
#881=CARTESIAN_POINT('',(337.01243948967,-6.335029,-2.));
#882=CARTESIAN_POINT('',(337.012446,-155.385029,-2.));
#883=CARTESIAN_POINT('',(337.01243948967,-6.335029,-2.));
#884=CARTESIAN_POINT('',(337.012446,-155.385029,-2.));
#885=CARTESIAN_POINT('',(337.01243948967,-6.335029,-2.));
#886=CARTESIAN_POINT('Origin',(335.012445983431,-6.33502250627039,-2.));
#887=CARTESIAN_POINT('',(335.00734293435,-4.33503551033041,-2.));
#888=CARTESIAN_POINT('Origin',(335.012445983431,-6.33502250627039,-2.));
#889=CARTESIAN_POINT('',(335.00734293435,-4.33503551033041,-2.));
#890=CARTESIAN_POINT('Origin',(90.0573429343497,-4.96003551033034,-2.));
#891=CARTESIAN_POINT('',(90.0573429343497,-4.96003551033034,-2.));
#892=CARTESIAN_POINT('',(90.0573429343497,-4.96003551033034,-2.));
#893=CARTESIAN_POINT('',(90.0573429343497,-4.96003551033034,-2.));
#894=CARTESIAN_POINT('Origin',(71.9480429862467,11.4899191376263,-2.));
#895=CARTESIAN_POINT('',(71.9480429862467,11.4899191376263,-2.));
#896=CARTESIAN_POINT('Origin',(19.4126184196045,-155.384856580395,-2.));
#897=CARTESIAN_POINT('',(19.412446,-157.385029,-2.));
#898=CARTESIAN_POINT('Origin',(19.4126184196045,-155.384856580395,-2.));
#899=CARTESIAN_POINT('',(19.412446,-157.385029,-2.));
#900=CARTESIAN_POINT('Origin',(335.012446,-157.385029,-2.));
#901=CARTESIAN_POINT('',(335.012446,-157.385029,-2.));
#902=CARTESIAN_POINT('',(335.012446,-157.385029,-2.));
#903=CARTESIAN_POINT('',(335.012446,-157.385029,-2.));
#904=CARTESIAN_POINT('Origin',(335.012446,-155.385029,-2.));
#905=CARTESIAN_POINT('Origin',(335.012446,-155.385029,-2.));
#906=CARTESIAN_POINT('Origin',(177.20527042431,-72.9475549311869,-2.));
#907=UNCERTAINTY_MEASURE_WITH_UNIT(LENGTH_MEASURE(0.01),#911,
'DISTANCE_ACCURACY_VALUE',
'Maximum model space distance between geometric entities at asserted c
onnectivities');
#908=UNCERTAINTY_MEASURE_WITH_UNIT(LENGTH_MEASURE(0.01),#911,
'DISTANCE_ACCURACY_VALUE',
'Maximum model space distance between geometric entities at asserted c
onnectivities');
#909=(
GEOMETRIC_REPRESENTATION_CONTEXT(3)
GLOBAL_UNCERTAINTY_ASSIGNED_CONTEXT((#907))
GLOBAL_UNIT_ASSIGNED_CONTEXT((#911,#913,#914))
REPRESENTATION_CONTEXT('','3D')
);
#910=(
GEOMETRIC_REPRESENTATION_CONTEXT(3)
GLOBAL_UNCERTAINTY_ASSIGNED_CONTEXT((#908))
GLOBAL_UNIT_ASSIGNED_CONTEXT((#911,#913,#914))
REPRESENTATION_CONTEXT('','3D')
);
#911=(
LENGTH_UNIT()
NAMED_UNIT(*)
SI_UNIT(.MILLI.,.METRE.)
);
#912=(
LENGTH_UNIT()
NAMED_UNIT(*)
SI_UNIT($,.METRE.)
);
#913=(
NAMED_UNIT(*)
PLANE_ANGLE_UNIT()
SI_UNIT($,.RADIAN.)
);
#914=(
NAMED_UNIT(*)
SI_UNIT($,.STERADIAN.)
SOLID_ANGLE_UNIT()
);
#915=SHAPE_DEFINITION_REPRESENTATION(#916,#917);
#916=PRODUCT_DEFINITION_SHAPE('',$,#919);
#917=SHAPE_REPRESENTATION('',(#559),#909);
#918=PRODUCT_DEFINITION_CONTEXT('part definition',#923,'design');
#919=PRODUCT_DEFINITION('MyCustom_75Keeb_Component17',
'MyCustom_75Keeb_Component17 v1',#920,#918);
#920=PRODUCT_DEFINITION_FORMATION('',$,#925);
#921=PRODUCT_RELATED_PRODUCT_CATEGORY('MyCustom_75Keeb_Component17 v1',
'MyCustom_75Keeb_Component17 v1',(#925));
#922=APPLICATION_PROTOCOL_DEFINITION('international standard',
'automotive_design',2009,#923);
#923=APPLICATION_CONTEXT(
'Core Data for Automotive Mechanical Design Process');
#924=PRODUCT_CONTEXT('part definition',#923,'mechanical');
#925=PRODUCT('MyCustom_75Keeb_Component17',
'MyCustom_75Keeb_Component17 v1',$,(#924));
#926=PRESENTATION_STYLE_ASSIGNMENT((#928));
#927=PRESENTATION_STYLE_ASSIGNMENT((#929));
#928=SURFACE_STYLE_USAGE(.BOTH.,#930);
#929=SURFACE_STYLE_USAGE(.BOTH.,#931);
#930=SURFACE_SIDE_STYLE('',(#932));
#931=SURFACE_SIDE_STYLE('',(#933));
#932=SURFACE_STYLE_FILL_AREA(#934);
#933=SURFACE_STYLE_FILL_AREA(#935);
#934=FILL_AREA_STYLE('Steel - Satin',(#936));
#935=FILL_AREA_STYLE('Opaque(219,188,126)',(#937));
#936=FILL_AREA_STYLE_COLOUR('Steel - Satin',#938);
#937=FILL_AREA_STYLE_COLOUR('Opaque(219,188,126)',#939);
#938=COLOUR_RGB('Steel - Satin',0.627450980392157,0.627450980392157,0.627450980392157);
#939=COLOUR_RGB('Opaque(219,188,126)',0.858823529411765,0.737254901960784,
0.494117647058824);
ENDSEC;
END-ISO-10303-21;
