%TF.GenerationSoftware,KiCad,Pcbnew,9.0.3*%
%TF.CreationDate,2025-12-04T16:15:47+02:00*%
%TF.ProjectId,MyCustom_75Keeb,4d794375-7374-46f6-9d5f-37354b656562,2.0.0*%
%TF.SameCoordinates,Original*%
%TF.FileFunction,Copper,L4,Bot*%
%TF.FilePolarity,Positive*%
%FSLAX46Y46*%
G04 Gerber Fmt 4.6, Leading zero omitted, Abs format (unit mm)*
G04 Created by KiCad (PCBNEW 9.0.3) date 2025-12-04 16:15:47*
%MOMM*%
%LPD*%
G01*
G04 APERTURE LIST*
G04 Aperture macros list*
%AMRoundRect*
0 Rectangle with rounded corners*
0 $1 Rounding radius*
0 $2 $3 $4 $5 $6 $7 $8 $9 X,Y pos of 4 corners*
0 Add a 4 corners polygon primitive as box body*
4,1,4,$2,$3,$4,$5,$6,$7,$8,$9,$2,$3,0*
0 Add four circle primitives for the rounded corners*
1,1,$1+$1,$2,$3*
1,1,$1+$1,$4,$5*
1,1,$1+$1,$6,$7*
1,1,$1+$1,$8,$9*
0 Add four rect primitives between the rounded corners*
20,1,$1+$1,$2,$3,$4,$5,0*
20,1,$1+$1,$4,$5,$6,$7,0*
20,1,$1+$1,$6,$7,$8,$9,0*
20,1,$1+$1,$8,$9,$2,$3,0*%
%AMFreePoly0*
4,1,18,-0.410000,0.593000,-0.403758,0.624380,-0.385983,0.650983,-0.359380,0.668758,-0.328000,0.675000,0.328000,0.675000,0.359380,0.668758,0.385983,0.650983,0.403758,0.624380,0.410000,0.593000,0.410000,-0.593000,0.403758,-0.624380,0.385983,-0.650983,0.359380,-0.668758,0.328000,-0.675000,0.000000,-0.675000,-0.410000,-0.265000,-0.410000,0.593000,-0.410000,0.593000,$1*%
G04 Aperture macros list end*
%TA.AperFunction,ComponentPad*%
%ADD10C,2.500000*%
%TD*%
%TA.AperFunction,ComponentPad*%
%ADD11C,4.000000*%
%TD*%
%TA.AperFunction,SMDPad,CuDef*%
%ADD12RoundRect,0.082000X-0.593000X0.328000X-0.593000X-0.328000X0.593000X-0.328000X0.593000X0.328000X0*%
%TD*%
%TA.AperFunction,SMDPad,CuDef*%
%ADD13FreePoly0,270.000000*%
%TD*%
%TA.AperFunction,SMDPad,CuDef*%
%ADD14RoundRect,0.100000X0.100000X-0.130000X0.100000X0.130000X-0.100000X0.130000X-0.100000X-0.130000X0*%
%TD*%
%TA.AperFunction,SMDPad,CuDef*%
%ADD15RoundRect,0.135000X-0.135000X-0.185000X0.135000X-0.185000X0.135000X0.185000X-0.135000X0.185000X0*%
%TD*%
%TA.AperFunction,SMDPad,CuDef*%
%ADD16RoundRect,0.140000X0.140000X0.170000X-0.140000X0.170000X-0.140000X-0.170000X0.140000X-0.170000X0*%
%TD*%
%TA.AperFunction,SMDPad,CuDef*%
%ADD17R,1.450000X0.600000*%
%TD*%
%TA.AperFunction,SMDPad,CuDef*%
%ADD18R,1.450000X0.300000*%
%TD*%
%TA.AperFunction,ComponentPad*%
%ADD19O,1.600000X1.000000*%
%TD*%
%TA.AperFunction,ComponentPad*%
%ADD20O,2.100000X1.000000*%
%TD*%
%TA.AperFunction,SMDPad,CuDef*%
%ADD21RoundRect,0.150000X0.512500X0.150000X-0.512500X0.150000X-0.512500X-0.150000X0.512500X-0.150000X0*%
%TD*%
%TA.AperFunction,SMDPad,CuDef*%
%ADD22RoundRect,0.140000X-0.170000X0.140000X-0.170000X-0.140000X0.170000X-0.140000X0.170000X0.140000X0*%
%TD*%
%TA.AperFunction,SMDPad,CuDef*%
%ADD23RoundRect,0.075000X0.662500X0.075000X-0.662500X0.075000X-0.662500X-0.075000X0.662500X-0.075000X0*%
%TD*%
%TA.AperFunction,SMDPad,CuDef*%
%ADD24RoundRect,0.075000X0.075000X0.662500X-0.075000X0.662500X-0.075000X-0.662500X0.075000X-0.662500X0*%
%TD*%
%TA.AperFunction,SMDPad,CuDef*%
%ADD25RoundRect,0.140000X0.170000X-0.140000X0.170000X0.140000X-0.170000X0.140000X-0.170000X-0.140000X0*%
%TD*%
%TA.AperFunction,SMDPad,CuDef*%
%ADD26RoundRect,0.135000X-0.185000X0.135000X-0.185000X-0.135000X0.185000X-0.135000X0.185000X0.135000X0*%
%TD*%
%TA.AperFunction,SMDPad,CuDef*%
%ADD27RoundRect,0.140000X-0.140000X-0.170000X0.140000X-0.170000X0.140000X0.170000X-0.140000X0.170000X0*%
%TD*%
%TA.AperFunction,SMDPad,CuDef*%
%ADD28RoundRect,0.150000X0.587500X0.150000X-0.587500X0.150000X-0.587500X-0.150000X0.587500X-0.150000X0*%
%TD*%
%TA.AperFunction,SMDPad,CuDef*%
%ADD29RoundRect,0.135000X0.135000X0.185000X-0.135000X0.185000X-0.135000X-0.185000X0.135000X-0.185000X0*%
%TD*%
%TA.AperFunction,SMDPad,CuDef*%
%ADD30RoundRect,0.218750X-0.256250X0.218750X-0.256250X-0.218750X0.256250X-0.218750X0.256250X0.218750X0*%
%TD*%
%TA.AperFunction,SMDPad,CuDef*%
%ADD31R,1.000000X1.700000*%
%TD*%
%TA.AperFunction,ViaPad*%
%ADD32C,0.600000*%
%TD*%
%TA.AperFunction,Conductor*%
%ADD33C,0.500000*%
%TD*%
%TA.AperFunction,Conductor*%
%ADD34C,0.400000*%
%TD*%
%TA.AperFunction,Conductor*%
%ADD35C,0.300000*%
%TD*%
%TA.AperFunction,Conductor*%
%ADD36C,0.200000*%
%TD*%
G04 APERTURE END LIST*
D10*
%TO.P,SW70,1,1*%
%TO.N,Col_11*%
X229552500Y-111760000D03*
%TO.P,SW70,2,2*%
%TO.N,Net-(D70-A)*%
X235902500Y-109220000D03*
%TD*%
%TO.P,SW81,1,1*%
%TO.N,Col_12*%
X262890000Y-130810000D03*
%TO.P,SW81,2,2*%
%TO.N,Net-(D81-A)*%
X269240000Y-128270000D03*
%TD*%
%TO.P,SW19,1,1*%
%TO.N,Col_2*%
X72390000Y-54610000D03*
%TO.P,SW19,2,2*%
%TO.N,Net-(D19-A)*%
X78740000Y-52070000D03*
%TD*%
%TO.P,SW66,1,1*%
%TO.N,Col_7*%
X153352500Y-111760000D03*
%TO.P,SW66,2,2*%
%TO.N,Net-(D66-A)*%
X159702500Y-109220000D03*
%TD*%
%TO.P,SW65,1,1*%
%TO.N,Col_6*%
X134302500Y-111760000D03*
%TO.P,SW65,2,2*%
%TO.N,Net-(D65-A)*%
X140652500Y-109220000D03*
%TD*%
%TO.P,SW33,1,1*%
%TO.N,Col_3*%
X62865000Y-73660000D03*
%TO.P,SW33,2,2*%
%TO.N,Net-(D33-A)*%
X69215000Y-71120000D03*
%TD*%
%TO.P,SW56,1,1*%
%TO.N,Col_11*%
X220027500Y-92710000D03*
%TO.P,SW56,2,2*%
%TO.N,Net-(D56-A)*%
X226377500Y-90170000D03*
%TD*%
%TO.P,SW3,1,1*%
%TO.N,Col_2*%
X72390000Y-35560000D03*
%TO.P,SW3,2,2*%
%TO.N,Net-(D3-A)*%
X78740000Y-33020000D03*
%TD*%
%TO.P,SW77,1,1*%
%TO.N,Col_6*%
X84296250Y-130810000D03*
%TO.P,SW77,2,2*%
%TO.N,Net-(D77-A)*%
X90646250Y-128270000D03*
%TD*%
%TO.P,SW11,1,1*%
%TO.N,Col_10*%
X224790000Y-35560000D03*
%TO.P,SW11,2,2*%
%TO.N,Net-(D11-A)*%
X231140000Y-33020000D03*
%TD*%
%TO.P,SW15,1,1*%
%TO.N,Col_14*%
X300990000Y-35560000D03*
%TO.P,SW15,2,2*%
%TO.N,Net-(D15-A)*%
X307340000Y-33020000D03*
%TD*%
%TO.P,SW29,1,1*%
%TO.N,Col_12*%
X262890000Y-54610000D03*
%TO.P,SW29,2,2*%
%TO.N,Net-(D29-A)*%
X269240000Y-52070000D03*
%TD*%
%TO.P,SW32,1,1*%
%TO.N,Col_2*%
X39052500Y-73660000D03*
%TO.P,SW32,2,2*%
%TO.N,Net-(D32-A)*%
X45402500Y-71120000D03*
%TD*%
%TO.P,SW44,1,1*%
%TO.N,Col_14*%
X272415000Y-73660000D03*
%TO.P,SW44,2,2*%
%TO.N,Net-(D44-A)*%
X278765000Y-71120000D03*
%TD*%
D11*
%TO.P,S6,*%
%TO.N,*%
X283368750Y-50165000D03*
X307181250Y-50165000D03*
%TD*%
D10*
%TO.P,SW40,1,1*%
%TO.N,Col_10*%
X196215000Y-73660000D03*
%TO.P,SW40,2,2*%
%TO.N,Net-(D40-A)*%
X202565000Y-71120000D03*
%TD*%
%TO.P,SW71,1,1*%
%TO.N,Col_13*%
X248602500Y-111760000D03*
%TO.P,SW71,2,2*%
%TO.N,Net-(D71-A)*%
X254952500Y-109220000D03*
%TD*%
%TO.P,SW30,1,1*%
%TO.N,Col_15*%
X291465000Y-54610000D03*
%TO.P,SW30,2,2*%
%TO.N,Net-(D30-A)*%
X297815000Y-52070000D03*
%TD*%
%TO.P,SW1,1,1*%
%TO.N,Col_0*%
X34290000Y-35560000D03*
%TO.P,SW1,2,2*%
%TO.N,Net-(D1-A)*%
X40640000Y-33020000D03*
%TD*%
%TO.P,SW12,1,1*%
%TO.N,Col_11*%
X243840000Y-35560000D03*
%TO.P,SW12,2,2*%
%TO.N,Net-(D12-A)*%
X250190000Y-33020000D03*
%TD*%
%TO.P,SW47,1,1*%
%TO.N,Col_2*%
X41433750Y-92710000D03*
%TO.P,SW47,2,2*%
%TO.N,Net-(D47-A)*%
X47783750Y-90170000D03*
%TD*%
%TO.P,SW73,1,1*%
%TO.N,Col_15*%
X300990000Y-111760000D03*
%TO.P,SW73,2,2*%
%TO.N,Net-(D73-A)*%
X307340000Y-109220000D03*
%TD*%
%TO.P,SW54,1,1*%
%TO.N,Col_9*%
X181927500Y-92710000D03*
%TO.P,SW54,2,2*%
%TO.N,Net-(D54-A)*%
X188277500Y-90170000D03*
%TD*%
D11*
%TO.P,S2,*%
%TO.N,*%
X38100000Y-107315000D03*
X61912500Y-107315000D03*
%TD*%
D10*
%TO.P,SW74,1,1*%
%TO.N,Col_0*%
X320040000Y-111760000D03*
%TO.P,SW74,2,2*%
%TO.N,Net-(D74-A)*%
X326390000Y-109220000D03*
%TD*%
%TO.P,SW59,1,1*%
%TO.N,Col_15*%
X289083750Y-92710000D03*
%TO.P,SW59,2,2*%
%TO.N,Net-(D59-A)*%
X295433750Y-90170000D03*
%TD*%
%TO.P,SW26,1,1*%
%TO.N,Col_9*%
X205740000Y-54610000D03*
%TO.P,SW26,2,2*%
%TO.N,Net-(D26-A)*%
X212090000Y-52070000D03*
%TD*%
%TO.P,SW23,1,1*%
%TO.N,Col_6*%
X148590000Y-54610000D03*
%TO.P,SW23,2,2*%
%TO.N,Net-(D23-A)*%
X154940000Y-52070000D03*
%TD*%
%TO.P,SW37,1,1*%
%TO.N,Col_7*%
X139065000Y-73660000D03*
%TO.P,SW37,2,2*%
%TO.N,Net-(D37-A)*%
X145415000Y-71120000D03*
%TD*%
%TO.P,SW2,1,1*%
%TO.N,Col_1*%
X53340000Y-35560000D03*
%TO.P,SW2,2,2*%
%TO.N,Net-(D2-A)*%
X59690000Y-33020000D03*
%TD*%
%TO.P,SW43,1,1*%
%TO.N,Col_13*%
X253365000Y-73660000D03*
%TO.P,SW43,2,2*%
%TO.N,Net-(D43-A)*%
X259715000Y-71120000D03*
%TD*%
%TO.P,SW36,1,1*%
%TO.N,Col_6*%
X120015000Y-73660000D03*
%TO.P,SW36,2,2*%
%TO.N,Net-(D36-A)*%
X126365000Y-71120000D03*
%TD*%
%TO.P,SW20,1,1*%
%TO.N,Col_3*%
X91440000Y-54610000D03*
%TO.P,SW20,2,2*%
%TO.N,Net-(D20-A)*%
X97790000Y-52070000D03*
%TD*%
%TO.P,SW69,1,1*%
%TO.N,Col_10*%
X210502500Y-111760000D03*
%TO.P,SW69,2,2*%
%TO.N,Net-(D69-A)*%
X216852500Y-109220000D03*
%TD*%
%TO.P,SW4,1,1*%
%TO.N,Col_3*%
X91440000Y-35560000D03*
%TO.P,SW4,2,2*%
%TO.N,Net-(D4-A)*%
X97790000Y-33020000D03*
%TD*%
%TO.P,SW46,1,1*%
%TO.N,Col_0*%
X320040000Y-73660000D03*
%TO.P,SW46,2,2*%
%TO.N,Net-(D46-A)*%
X326390000Y-71120000D03*
%TD*%
%TO.P,SW18,1,1*%
%TO.N,Col_1*%
X53340000Y-54610000D03*
%TO.P,SW18,2,2*%
%TO.N,Net-(D18-A)*%
X59690000Y-52070000D03*
%TD*%
%TO.P,SW50,1,1*%
%TO.N,Col_5*%
X105727500Y-92710000D03*
%TO.P,SW50,2,2*%
%TO.N,Net-(D50-A)*%
X112077500Y-90170000D03*
%TD*%
%TO.P,SW53,1,1*%
%TO.N,Col_8*%
X162877500Y-92710000D03*
%TO.P,SW53,2,2*%
%TO.N,Net-(D53-A)*%
X169227500Y-90170000D03*
%TD*%
%TO.P,SW67,1,1*%
%TO.N,Col_8*%
X172402500Y-111760000D03*
%TO.P,SW67,2,2*%
%TO.N,Net-(D67-A)*%
X178752500Y-109220000D03*
%TD*%
%TO.P,SW35,1,1*%
%TO.N,Col_5*%
X100965000Y-73660000D03*
%TO.P,SW35,2,2*%
%TO.N,Net-(D35-A)*%
X107315000Y-71120000D03*
%TD*%
%TO.P,SW38,1,1*%
%TO.N,Col_8*%
X158115000Y-73660000D03*
%TO.P,SW38,2,2*%
%TO.N,Net-(D38-A)*%
X164465000Y-71120000D03*
%TD*%
%TO.P,SW17,1,1*%
%TO.N,Col_0*%
X34290000Y-54610000D03*
%TO.P,SW17,2,2*%
%TO.N,Net-(D17-A)*%
X40640000Y-52070000D03*
%TD*%
%TO.P,SW60,1,1*%
%TO.N,Col_0*%
X320040000Y-92710000D03*
%TO.P,SW60,2,2*%
%TO.N,Net-(D60-A)*%
X326390000Y-90170000D03*
%TD*%
%TO.P,SW28,1,1*%
%TO.N,Col_11*%
X243840000Y-54610000D03*
%TO.P,SW28,2,2*%
%TO.N,Net-(D28-A)*%
X250190000Y-52070000D03*
%TD*%
%TO.P,SW21,1,1*%
%TO.N,Col_4*%
X110490000Y-54610000D03*
%TO.P,SW21,2,2*%
%TO.N,Net-(D21-A)*%
X116840000Y-52070000D03*
%TD*%
%TO.P,SW68,1,1*%
%TO.N,Col_9*%
X191452500Y-111760000D03*
%TO.P,SW68,2,2*%
%TO.N,Net-(D68-A)*%
X197802500Y-109220000D03*
%TD*%
%TO.P,SW41,1,1*%
%TO.N,Col_11*%
X215265000Y-73660000D03*
%TO.P,SW41,2,2*%
%TO.N,Net-(D41-A)*%
X221615000Y-71120000D03*
%TD*%
%TO.P,SW55,1,1*%
%TO.N,Col_10*%
X200977500Y-92710000D03*
%TO.P,SW55,2,2*%
%TO.N,Net-(D55-A)*%
X207327500Y-90170000D03*
%TD*%
%TO.P,SW58,1,1*%
%TO.N,Col_14*%
X258127500Y-92710000D03*
%TO.P,SW58,2,2*%
%TO.N,Net-(D58-A)*%
X264477500Y-90170000D03*
%TD*%
%TO.P,SW64,1,1*%
%TO.N,Col_5*%
X115252500Y-111760000D03*
%TO.P,SW64,2,2*%
%TO.N,Net-(D64-A)*%
X121602500Y-109220000D03*
%TD*%
%TO.P,SW63,1,1*%
%TO.N,Col_4*%
X96202500Y-111760000D03*
%TO.P,SW63,2,2*%
%TO.N,Net-(D63-A)*%
X102552500Y-109220000D03*
%TD*%
%TO.P,SW13,1,1*%
%TO.N,Col_12*%
X262890000Y-35560000D03*
%TO.P,SW13,2,2*%
%TO.N,Net-(D13-A)*%
X269240000Y-33020000D03*
%TD*%
%TO.P,SW39,1,1*%
%TO.N,Col_9*%
X177165000Y-73660000D03*
%TO.P,SW39,2,2*%
%TO.N,Net-(D39-A)*%
X183515000Y-71120000D03*
%TD*%
%TO.P,SW61,1,1*%
%TO.N,Col_2*%
X46196250Y-111760000D03*
%TO.P,SW61,2,2*%
%TO.N,Net-(D61-A)*%
X52546250Y-109220000D03*
%TD*%
%TO.P,SW48,1,1*%
%TO.N,Col_3*%
X67627500Y-92710000D03*
%TO.P,SW48,2,2*%
%TO.N,Net-(D48-A)*%
X73977500Y-90170000D03*
%TD*%
%TO.P,SW82,1,1*%
%TO.N,Col_13*%
X281940000Y-130810000D03*
%TO.P,SW82,2,2*%
%TO.N,Net-(D82-A)*%
X288290000Y-128270000D03*
%TD*%
%TO.P,SW52,1,1*%
%TO.N,Col_7*%
X143827500Y-92710000D03*
%TO.P,SW52,2,2*%
%TO.N,Net-(D52-A)*%
X150177500Y-90170000D03*
%TD*%
%TO.P,SW25,1,1*%
%TO.N,Col_8*%
X186690000Y-54610000D03*
%TO.P,SW25,2,2*%
%TO.N,Net-(D25-A)*%
X193040000Y-52070000D03*
%TD*%
%TO.P,SW24,1,1*%
%TO.N,Col_7*%
X167640000Y-54610000D03*
%TO.P,SW24,2,2*%
%TO.N,Net-(D24-A)*%
X173990000Y-52070000D03*
%TD*%
%TO.P,SW76,1,1*%
%TO.N,Col_2*%
X60483750Y-130810000D03*
%TO.P,SW76,2,2*%
%TO.N,Net-(D76-A)*%
X66833750Y-128270000D03*
%TD*%
%TO.P,SW7,1,1*%
%TO.N,Col_6*%
X148590000Y-35560000D03*
%TO.P,SW7,2,2*%
%TO.N,Net-(D7-A)*%
X154940000Y-33020000D03*
%TD*%
%TO.P,SW75,1,1*%
%TO.N,Col_1*%
X36671250Y-130810000D03*
%TO.P,SW75,2,2*%
%TO.N,Net-(D75-A)*%
X43021250Y-128270000D03*
%TD*%
%TO.P,SW42,1,1*%
%TO.N,Col_12*%
X234315000Y-73660000D03*
%TO.P,SW42,2,2*%
%TO.N,Net-(D42-A)*%
X240665000Y-71120000D03*
%TD*%
D11*
%TO.P,S1,*%
%TO.N,*%
X109537500Y-126365000D03*
X209550000Y-126365000D03*
%TD*%
D10*
%TO.P,SW83,1,1*%
%TO.N,Col_14*%
X300990000Y-130810000D03*
%TO.P,SW83,2,2*%
%TO.N,Net-(D83-A)*%
X307340000Y-128270000D03*
%TD*%
%TO.P,SW49,1,1*%
%TO.N,Col_4*%
X86677500Y-92710000D03*
%TO.P,SW49,2,2*%
%TO.N,Net-(D49-A)*%
X93027500Y-90170000D03*
%TD*%
%TO.P,SW9,1,1*%
%TO.N,Col_8*%
X186690000Y-35560000D03*
%TO.P,SW9,2,2*%
%TO.N,Net-(D9-A)*%
X193040000Y-33020000D03*
%TD*%
%TO.P,SW84,1,1*%
%TO.N,Col_15*%
X320040000Y-130810000D03*
%TO.P,SW84,2,2*%
%TO.N,Net-(D84-A)*%
X326390000Y-128270000D03*
%TD*%
%TO.P,SW6,1,1*%
%TO.N,Col_5*%
X129540000Y-35560000D03*
%TO.P,SW6,2,2*%
%TO.N,Net-(D6-A)*%
X135890000Y-33020000D03*
%TD*%
%TO.P,SW78,1,1*%
%TO.N,Col_9*%
X155733750Y-130810000D03*
%TO.P,SW78,2,2*%
%TO.N,Net-(D78-A)*%
X162083750Y-128270000D03*
%TD*%
%TO.P,SW22,1,1*%
%TO.N,Col_5*%
X129540000Y-54610000D03*
%TO.P,SW22,2,2*%
%TO.N,Net-(D22-A)*%
X135890000Y-52070000D03*
%TD*%
%TO.P,SW80,1,1*%
%TO.N,Col_11*%
X243840000Y-130810000D03*
%TO.P,SW80,2,2*%
%TO.N,Net-(D80-A)*%
X250190000Y-128270000D03*
%TD*%
%TO.P,SW16,1,1*%
%TO.N,Col_15*%
X320040000Y-35560000D03*
%TO.P,SW16,2,2*%
%TO.N,Net-(D16-A)*%
X326390000Y-33020000D03*
%TD*%
%TO.P,SW8,1,1*%
%TO.N,Col_7*%
X167640000Y-35560000D03*
%TO.P,SW8,2,2*%
%TO.N,Net-(D8-A)*%
X173990000Y-33020000D03*
%TD*%
%TO.P,SW34,1,1*%
%TO.N,Col_4*%
X81915000Y-73660000D03*
%TO.P,SW34,2,2*%
%TO.N,Net-(D34-A)*%
X88265000Y-71120000D03*
%TD*%
%TO.P,SW62,1,1*%
%TO.N,Col_3*%
X77152500Y-111760000D03*
%TO.P,SW62,2,2*%
%TO.N,Net-(D62-A)*%
X83502500Y-109220000D03*
%TD*%
%TO.P,SW31,1,1*%
%TO.N,Col_0*%
X320040000Y-54610000D03*
%TO.P,SW31,2,2*%
%TO.N,Net-(D31-A)*%
X326390000Y-52070000D03*
%TD*%
%TO.P,SW79,1,1*%
%TO.N,Col_10*%
X224790000Y-130810000D03*
%TO.P,SW79,2,2*%
%TO.N,Net-(D79-A)*%
X231140000Y-128270000D03*
%TD*%
%TO.P,SW5,1,1*%
%TO.N,Col_4*%
X110490000Y-35560000D03*
%TO.P,SW5,2,2*%
%TO.N,Net-(D5-A)*%
X116840000Y-33020000D03*
%TD*%
%TO.P,SW14,1,1*%
%TO.N,Col_13*%
X281940000Y-35560000D03*
%TO.P,SW14,2,2*%
%TO.N,Net-(D14-A)*%
X288290000Y-33020000D03*
%TD*%
%TO.P,SW10,1,1*%
%TO.N,Col_9*%
X205740000Y-35560000D03*
%TO.P,SW10,2,2*%
%TO.N,Net-(D10-A)*%
X212090000Y-33020000D03*
%TD*%
%TO.P,SW51,1,1*%
%TO.N,Col_6*%
X124777500Y-92710000D03*
%TO.P,SW51,2,2*%
%TO.N,Net-(D51-A)*%
X131127500Y-90170000D03*
%TD*%
%TO.P,SW27,1,1*%
%TO.N,Col_10*%
X224790000Y-54610000D03*
%TO.P,SW27,2,2*%
%TO.N,Net-(D27-A)*%
X231140000Y-52070000D03*
%TD*%
%TO.P,SW45,1,1*%
%TO.N,Col_15*%
X296227500Y-73660000D03*
%TO.P,SW45,2,2*%
%TO.N,Net-(D45-A)*%
X302577500Y-71120000D03*
%TD*%
%TO.P,SW72,1,1*%
%TO.N,Col_14*%
X274796250Y-111760000D03*
%TO.P,SW72,2,2*%
%TO.N,Net-(D72-A)*%
X281146250Y-109220000D03*
%TD*%
%TO.P,SW57,1,1*%
%TO.N,Col_12*%
X239077500Y-92710000D03*
%TO.P,SW57,2,2*%
%TO.N,Net-(D57-A)*%
X245427500Y-90170000D03*
%TD*%
D12*
%TO.P,LED81,1,VDD*%
%TO.N,+5V*%
X162287446Y-140185029D03*
%TO.P,LED81,2,DOUT*%
%TO.N,Net-(LED81-DOUT)*%
X162287446Y-138685029D03*
%TO.P,LED81,3,DIN*%
%TO.N,Net-(LED80-DOUT)*%
X156837446Y-140185029D03*
D13*
%TO.P,LED81,4,VSS*%
%TO.N,GND*%
X156837446Y-138685029D03*
%TD*%
D12*
%TO.P,LED30,1,VDD*%
%TO.N,+5V*%
X297862446Y-63735029D03*
%TO.P,LED30,2,DOUT*%
%TO.N,Net-(LED30-DOUT)*%
X297862446Y-62235029D03*
%TO.P,LED30,3,DIN*%
%TO.N,Net-(LED29-DOUT)*%
X292412446Y-63735029D03*
D13*
%TO.P,LED30,4,VSS*%
%TO.N,GND*%
X292412446Y-62235029D03*
%TD*%
D12*
%TO.P,LED64,1,VDD*%
%TO.N,+5V*%
X102212446Y-120935029D03*
%TO.P,LED64,2,DOUT*%
%TO.N,Net-(LED64-DOUT)*%
X102212446Y-119435029D03*
%TO.P,LED64,3,DIN*%
%TO.N,Net-(LED63-DOUT)*%
X96762446Y-120935029D03*
D13*
%TO.P,LED64,4,VSS*%
%TO.N,GND*%
X96762446Y-119435029D03*
%TD*%
D14*
%TO.P,D77,1,K*%
%TO.N,Row_5*%
X93186250Y-136700000D03*
%TO.P,D77,2,A*%
%TO.N,Net-(D77-A)*%
X93186250Y-136060000D03*
%TD*%
D12*
%TO.P,LED1,1,VDD*%
%TO.N,+5V*%
X40887446Y-43485029D03*
%TO.P,LED1,2,DOUT*%
%TO.N,Net-(LED1-DOUT)*%
X40887446Y-41985029D03*
%TO.P,LED1,3,DIN*%
%TO.N,RGB_OUTPUT*%
X35437446Y-43485029D03*
D13*
%TO.P,LED1,4,VSS*%
%TO.N,GND*%
X35437446Y-41985029D03*
%TD*%
D14*
%TO.P,D49,1,K*%
%TO.N,Row_3*%
X95567500Y-98600000D03*
%TO.P,D49,2,A*%
%TO.N,Net-(D49-A)*%
X95567500Y-97960000D03*
%TD*%
D12*
%TO.P,LED58,1,VDD*%
%TO.N,+5V*%
X245887446Y-101985029D03*
%TO.P,LED58,2,DOUT*%
%TO.N,Net-(LED58-DOUT)*%
X245887446Y-100485029D03*
%TO.P,LED58,3,DIN*%
%TO.N,Net-(LED57-DOUT)*%
X240437446Y-101985029D03*
D13*
%TO.P,LED58,4,VSS*%
%TO.N,GND*%
X240437446Y-100485029D03*
%TD*%
D12*
%TO.P,LED17,1,VDD*%
%TO.N,+5V*%
X41112446Y-63235029D03*
%TO.P,LED17,2,DOUT*%
%TO.N,Net-(LED17-DOUT)*%
X41112446Y-61735029D03*
%TO.P,LED17,3,DIN*%
%TO.N,Net-(LED16-DOUT)*%
X35662446Y-63235029D03*
D13*
%TO.P,LED17,4,VSS*%
%TO.N,GND*%
X35662446Y-61735029D03*
%TD*%
D15*
%TO.P,R7,1*%
%TO.N,Net-(J1-CC2)*%
X31439946Y-710027D03*
%TO.P,R7,2*%
%TO.N,GND*%
X32459946Y-710027D03*
%TD*%
D12*
%TO.P,LED39,1,VDD*%
%TO.N,+5V*%
X184137446Y-82735029D03*
%TO.P,LED39,2,DOUT*%
%TO.N,Net-(LED39-DOUT)*%
X184137446Y-81235029D03*
%TO.P,LED39,3,DIN*%
%TO.N,Net-(LED38-DOUT)*%
X178687446Y-82735029D03*
D13*
%TO.P,LED39,4,VSS*%
%TO.N,GND*%
X178687446Y-81235029D03*
%TD*%
D12*
%TO.P,LED36,1,VDD*%
%TO.N,+5V*%
X126412446Y-82735029D03*
%TO.P,LED36,2,DOUT*%
%TO.N,Net-(LED36-DOUT)*%
X126412446Y-81235029D03*
%TO.P,LED36,3,DIN*%
%TO.N,Net-(LED35-DOUT)*%
X120962446Y-82735029D03*
D13*
%TO.P,LED36,4,VSS*%
%TO.N,GND*%
X120962446Y-81235029D03*
%TD*%
D14*
%TO.P,D82,1,K*%
%TO.N,Row_5*%
X290830000Y-136700000D03*
%TO.P,D82,2,A*%
%TO.N,Net-(D82-A)*%
X290830000Y-136060000D03*
%TD*%
D12*
%TO.P,LED47,1,VDD*%
%TO.N,+5V*%
X49087446Y-101785029D03*
%TO.P,LED47,2,DOUT*%
%TO.N,Net-(LED47-DOUT)*%
X49087446Y-100285029D03*
%TO.P,LED47,3,DIN*%
%TO.N,Net-(LED46-DOUT)*%
X43637446Y-101785029D03*
D13*
%TO.P,LED47,4,VSS*%
%TO.N,GND*%
X43637446Y-100285029D03*
%TD*%
D12*
%TO.P,LED24,1,VDD*%
%TO.N,+5V*%
X174137446Y-63735029D03*
%TO.P,LED24,2,DOUT*%
%TO.N,Net-(LED24-DOUT)*%
X174137446Y-62235029D03*
%TO.P,LED24,3,DIN*%
%TO.N,Net-(LED23-DOUT)*%
X168687446Y-63735029D03*
D13*
%TO.P,LED24,4,VSS*%
%TO.N,GND*%
X168687446Y-62235029D03*
%TD*%
D12*
%TO.P,LED80,1,VDD*%
%TO.N,+5V*%
X91012446Y-140135029D03*
%TO.P,LED80,2,DOUT*%
%TO.N,Net-(LED80-DOUT)*%
X91012446Y-138635029D03*
%TO.P,LED80,3,DIN*%
%TO.N,Net-(LED79-DOUT)*%
X85562446Y-140135029D03*
D13*
%TO.P,LED80,4,VSS*%
%TO.N,GND*%
X85562446Y-138635029D03*
%TD*%
D14*
%TO.P,D24,1,K*%
%TO.N,Row_1*%
X176530000Y-60500000D03*
%TO.P,D24,2,A*%
%TO.N,Net-(D24-A)*%
X176530000Y-59860000D03*
%TD*%
D16*
%TO.P,C10,1*%
%TO.N,GND*%
X59019947Y-287522D03*
%TO.P,C10,2*%
%TO.N,+3.3V*%
X58059947Y-287522D03*
%TD*%
D12*
%TO.P,LED20,1,VDD*%
%TO.N,+5V*%
X98387446Y-63735029D03*
%TO.P,LED20,2,DOUT*%
%TO.N,Net-(LED20-DOUT)*%
X98387446Y-62235029D03*
%TO.P,LED20,3,DIN*%
%TO.N,Net-(LED19-DOUT)*%
X92937446Y-63735029D03*
D13*
%TO.P,LED20,4,VSS*%
%TO.N,GND*%
X92937446Y-62235029D03*
%TD*%
D14*
%TO.P,D37,1,K*%
%TO.N,Row_2*%
X147955000Y-79550000D03*
%TO.P,D37,2,A*%
%TO.N,Net-(D37-A)*%
X147955000Y-78910000D03*
%TD*%
%TO.P,D76,1,K*%
%TO.N,Row_5*%
X69373750Y-136700000D03*
%TO.P,D76,2,A*%
%TO.N,Net-(D76-A)*%
X69373750Y-136060000D03*
%TD*%
D12*
%TO.P,LED31,1,VDD*%
%TO.N,+5V*%
X325662446Y-62985029D03*
%TO.P,LED31,2,DOUT*%
%TO.N,Net-(LED31-DOUT)*%
X325662446Y-61485029D03*
%TO.P,LED31,3,DIN*%
%TO.N,Net-(LED30-DOUT)*%
X320212446Y-62985029D03*
D13*
%TO.P,LED31,4,VSS*%
%TO.N,GND*%
X320212446Y-61485029D03*
%TD*%
D12*
%TO.P,LED68,1,VDD*%
%TO.N,+5V*%
X159887446Y-120985029D03*
%TO.P,LED68,2,DOUT*%
%TO.N,Net-(LED68-DOUT)*%
X159887446Y-119485029D03*
%TO.P,LED68,3,DIN*%
%TO.N,Net-(LED67-DOUT)*%
X154437446Y-120985029D03*
D13*
%TO.P,LED68,4,VSS*%
%TO.N,GND*%
X154437446Y-119485029D03*
%TD*%
D14*
%TO.P,D83,1,K*%
%TO.N,Row_5*%
X309880000Y-136700000D03*
%TO.P,D83,2,A*%
%TO.N,Net-(D83-A)*%
X309880000Y-136060000D03*
%TD*%
%TO.P,D3,1,K*%
%TO.N,Row_0*%
X81280000Y-41450000D03*
%TO.P,D3,2,A*%
%TO.N,Net-(D3-A)*%
X81280000Y-40810000D03*
%TD*%
%TO.P,D81,1,K*%
%TO.N,Row_5*%
X271780000Y-136700000D03*
%TO.P,D81,2,A*%
%TO.N,Net-(D81-A)*%
X271780000Y-136060000D03*
%TD*%
%TO.P,D58,1,K*%
%TO.N,Row_3*%
X267017500Y-98600000D03*
%TO.P,D58,2,A*%
%TO.N,Net-(D58-A)*%
X267017500Y-97960000D03*
%TD*%
%TO.P,D72,1,K*%
%TO.N,Row_4*%
X283686250Y-117650000D03*
%TO.P,D72,2,A*%
%TO.N,Net-(D72-A)*%
X283686250Y-117010000D03*
%TD*%
D17*
%TO.P,J1,A1,GND*%
%TO.N,GND*%
X29482446Y-5710029D03*
%TO.P,J1,A4,VBUS*%
%TO.N,VBUS*%
X29482446Y-4910029D03*
D18*
%TO.P,J1,A5,CC1*%
%TO.N,Net-(J1-CC1)*%
X29482446Y-3710029D03*
%TO.P,J1,A6,D+*%
%TO.N,/USB_D+*%
X29482446Y-2710029D03*
%TO.P,J1,A7,D-*%
%TO.N,/USB_D-*%
X29482446Y-2210029D03*
%TO.P,J1,A8*%
%TO.N,N/C*%
X29482446Y-1210029D03*
D17*
%TO.P,J1,A9,VBUS*%
%TO.N,VBUS*%
X29482446Y-10029D03*
%TO.P,J1,A12,GND*%
%TO.N,GND*%
X29482446Y789971D03*
%TO.P,J1,B1,GND*%
X29482446Y789971D03*
%TO.P,J1,B4,VBUS*%
%TO.N,VBUS*%
X29482446Y-10029D03*
D18*
%TO.P,J1,B5,CC2*%
%TO.N,Net-(J1-CC2)*%
X29482446Y-710029D03*
%TO.P,J1,B6,D+*%
%TO.N,/USB_D+*%
X29482446Y-1710029D03*
%TO.P,J1,B7,D-*%
%TO.N,/USB_D-*%
X29482446Y-3210029D03*
%TO.P,J1,B8*%
%TO.N,N/C*%
X29482446Y-4210029D03*
D17*
%TO.P,J1,B9,VBUS*%
%TO.N,VBUS*%
X29482446Y-4910029D03*
%TO.P,J1,B12,GND*%
%TO.N,GND*%
X29482446Y-5710029D03*
D19*
%TO.P,J1,S1,SHIELD*%
X24387446Y-6780029D03*
D20*
X28567446Y-6780029D03*
D19*
X24387446Y1859971D03*
D20*
X28567446Y1859971D03*
%TD*%
D21*
%TO.P,U3,1,I/O1*%
%TO.N,/MCU_D+*%
X40674946Y-2010029D03*
%TO.P,U3,2,GND*%
%TO.N,GND*%
X40674946Y-2960029D03*
%TO.P,U3,3,I/O2*%
%TO.N,/MCU_D-*%
X40674946Y-3910029D03*
%TO.P,U3,4,I/O2*%
%TO.N,/USB_D-*%
X38399946Y-3910029D03*
%TO.P,U3,5,VBUS*%
%TO.N,VBUS*%
X38399946Y-2960029D03*
%TO.P,U3,6,I/O1*%
%TO.N,/USB_D+*%
X38399946Y-2010029D03*
%TD*%
D12*
%TO.P,LED23,1,VDD*%
%TO.N,+5V*%
X155637446Y-63735029D03*
%TO.P,LED23,2,DOUT*%
%TO.N,Net-(LED23-DOUT)*%
X155637446Y-62235029D03*
%TO.P,LED23,3,DIN*%
%TO.N,Net-(LED22-DOUT)*%
X150187446Y-63735029D03*
D13*
%TO.P,LED23,4,VSS*%
%TO.N,GND*%
X150187446Y-62235029D03*
%TD*%
D12*
%TO.P,LED7,1,VDD*%
%TO.N,+5V*%
X155137446Y-44235029D03*
%TO.P,LED7,2,DOUT*%
%TO.N,Net-(LED7-DOUT)*%
X155137446Y-42735029D03*
%TO.P,LED7,3,DIN*%
%TO.N,Net-(LED6-DOUT)*%
X149687446Y-44235029D03*
D13*
%TO.P,LED7,4,VSS*%
%TO.N,GND*%
X149687446Y-42735029D03*
%TD*%
D12*
%TO.P,LED63,1,VDD*%
%TO.N,+5V*%
X83762446Y-120935029D03*
%TO.P,LED63,2,DOUT*%
%TO.N,Net-(LED63-DOUT)*%
X83762446Y-119435029D03*
%TO.P,LED63,3,DIN*%
%TO.N,Net-(LED62-DOUT)*%
X78312446Y-120935029D03*
D13*
%TO.P,LED63,4,VSS*%
%TO.N,GND*%
X78312446Y-119435029D03*
%TD*%
D14*
%TO.P,D56,1,K*%
%TO.N,Row_3*%
X228917500Y-98600000D03*
%TO.P,D56,2,A*%
%TO.N,Net-(D56-A)*%
X228917500Y-97960000D03*
%TD*%
D12*
%TO.P,LED2,1,VDD*%
%TO.N,+5V*%
X59887446Y-43985029D03*
%TO.P,LED2,2,DOUT*%
%TO.N,Net-(LED2-DOUT)*%
X59887446Y-42485029D03*
%TO.P,LED2,3,DIN*%
%TO.N,Net-(LED1-DOUT)*%
X54437446Y-43985029D03*
D13*
%TO.P,LED2,4,VSS*%
%TO.N,GND*%
X54437446Y-42485029D03*
%TD*%
D12*
%TO.P,LED70,1,VDD*%
%TO.N,+5V*%
X197562446Y-121035029D03*
%TO.P,LED70,2,DOUT*%
%TO.N,Net-(LED70-DOUT)*%
X197562446Y-119535029D03*
%TO.P,LED70,3,DIN*%
%TO.N,Net-(LED69-DOUT)*%
X192112446Y-121035029D03*
D13*
%TO.P,LED70,4,VSS*%
%TO.N,GND*%
X192112446Y-119535029D03*
%TD*%
D14*
%TO.P,D40,1,K*%
%TO.N,Row_2*%
X205105000Y-79550000D03*
%TO.P,D40,2,A*%
%TO.N,Net-(D40-A)*%
X205105000Y-78910000D03*
%TD*%
D12*
%TO.P,LED26,1,VDD*%
%TO.N,+5V*%
X212137446Y-63735029D03*
%TO.P,LED26,2,DOUT*%
%TO.N,Net-(LED26-DOUT)*%
X212137446Y-62235029D03*
%TO.P,LED26,3,DIN*%
%TO.N,Net-(LED25-DOUT)*%
X206687446Y-63735029D03*
D13*
%TO.P,LED26,4,VSS*%
%TO.N,GND*%
X206687446Y-62235029D03*
%TD*%
D12*
%TO.P,LED73,1,VDD*%
%TO.N,+5V*%
X254762446Y-120735029D03*
%TO.P,LED73,2,DOUT*%
%TO.N,Net-(LED73-DOUT)*%
X254762446Y-119235029D03*
%TO.P,LED73,3,DIN*%
%TO.N,Net-(LED72-DOUT)*%
X249312446Y-120735029D03*
D13*
%TO.P,LED73,4,VSS*%
%TO.N,GND*%
X249312446Y-119235029D03*
%TD*%
D14*
%TO.P,D10,1,K*%
%TO.N,Row_0*%
X214630000Y-41450000D03*
%TO.P,D10,2,A*%
%TO.N,Net-(D10-A)*%
X214630000Y-40810000D03*
%TD*%
%TO.P,D45,1,K*%
%TO.N,Row_2*%
X305117500Y-79550000D03*
%TO.P,D45,2,A*%
%TO.N,Net-(D45-A)*%
X305117500Y-78910000D03*
%TD*%
D12*
%TO.P,LED5,1,VDD*%
%TO.N,+5V*%
X117112446Y-43985029D03*
%TO.P,LED5,2,DOUT*%
%TO.N,Net-(LED5-DOUT)*%
X117112446Y-42485029D03*
%TO.P,LED5,3,DIN*%
%TO.N,Net-(LED4-DOUT)*%
X111662446Y-43985029D03*
D13*
%TO.P,LED5,4,VSS*%
%TO.N,GND*%
X111662446Y-42485029D03*
%TD*%
D12*
%TO.P,LED67,1,VDD*%
%TO.N,+5V*%
X141012446Y-120935029D03*
%TO.P,LED67,2,DOUT*%
%TO.N,Net-(LED67-DOUT)*%
X141012446Y-119435029D03*
%TO.P,LED67,3,DIN*%
%TO.N,Net-(LED65-DOUT)*%
X135562446Y-120935029D03*
D13*
%TO.P,LED67,4,VSS*%
%TO.N,GND*%
X135562446Y-119435029D03*
%TD*%
D12*
%TO.P,LED3,1,VDD*%
%TO.N,+5V*%
X78887446Y-43985029D03*
%TO.P,LED3,2,DOUT*%
%TO.N,Net-(LED3-DOUT)*%
X78887446Y-42485029D03*
%TO.P,LED3,3,DIN*%
%TO.N,Net-(LED2-DOUT)*%
X73437446Y-43985029D03*
D13*
%TO.P,LED3,4,VSS*%
%TO.N,GND*%
X73437446Y-42485029D03*
%TD*%
D14*
%TO.P,D53,1,K*%
%TO.N,Row_3*%
X171767500Y-98600000D03*
%TO.P,D53,2,A*%
%TO.N,Net-(D53-A)*%
X171767500Y-97960000D03*
%TD*%
D12*
%TO.P,LED85,1,VDD*%
%TO.N,+5V*%
X287887446Y-140185029D03*
%TO.P,LED85,2,DOUT*%
%TO.N,Net-(LED85-DOUT)*%
X287887446Y-138685029D03*
%TO.P,LED85,3,DIN*%
%TO.N,Net-(LED84-DOUT)*%
X282437446Y-140185029D03*
D13*
%TO.P,LED85,4,VSS*%
%TO.N,GND*%
X282437446Y-138685029D03*
%TD*%
D14*
%TO.P,D20,1,K*%
%TO.N,Row_1*%
X100330000Y-60500000D03*
%TO.P,D20,2,A*%
%TO.N,Net-(D20-A)*%
X100330000Y-59860000D03*
%TD*%
%TO.P,D16,1,K*%
%TO.N,Row_0*%
X328930000Y-41450000D03*
%TO.P,D16,2,A*%
%TO.N,Net-(D16-A)*%
X328930000Y-40810000D03*
%TD*%
D12*
%TO.P,LED25,1,VDD*%
%TO.N,+5V*%
X193137446Y-63735029D03*
%TO.P,LED25,2,DOUT*%
%TO.N,Net-(LED25-DOUT)*%
X193137446Y-62235029D03*
%TO.P,LED25,3,DIN*%
%TO.N,Net-(LED24-DOUT)*%
X187687446Y-63735029D03*
D13*
%TO.P,LED25,4,VSS*%
%TO.N,GND*%
X187687446Y-62235029D03*
%TD*%
D12*
%TO.P,LED62,1,VDD*%
%TO.N,+5V*%
X52562446Y-120735029D03*
%TO.P,LED62,2,DOUT*%
%TO.N,Net-(LED62-DOUT)*%
X52562446Y-119235029D03*
%TO.P,LED62,3,DIN*%
%TO.N,Net-(LED61-DOUT)*%
X47112446Y-120735029D03*
D13*
%TO.P,LED62,4,VSS*%
%TO.N,GND*%
X47112446Y-119235029D03*
%TD*%
D14*
%TO.P,D28,1,K*%
%TO.N,Row_1*%
X252730000Y-60500000D03*
%TO.P,D28,2,A*%
%TO.N,Net-(D28-A)*%
X252730000Y-59860000D03*
%TD*%
D22*
%TO.P,C7,1*%
%TO.N,GND*%
X66012446Y2642471D03*
%TO.P,C7,2*%
%TO.N,+3.3V*%
X66012446Y1682471D03*
%TD*%
D12*
%TO.P,LED18,1,VDD*%
%TO.N,+5V*%
X60112446Y-63235029D03*
%TO.P,LED18,2,DOUT*%
%TO.N,Net-(LED18-DOUT)*%
X60112446Y-61735029D03*
%TO.P,LED18,3,DIN*%
%TO.N,Net-(LED17-DOUT)*%
X54662446Y-63235029D03*
D13*
%TO.P,LED18,4,VSS*%
%TO.N,GND*%
X54662446Y-61735029D03*
%TD*%
D16*
%TO.P,C8,1*%
%TO.N,GND*%
X69864946Y-4960029D03*
%TO.P,C8,2*%
%TO.N,+3.3V*%
X68904946Y-4960029D03*
%TD*%
D12*
%TO.P,LED69,1,VDD*%
%TO.N,+5V*%
X178887446Y-120985029D03*
%TO.P,LED69,2,DOUT*%
%TO.N,Net-(LED69-DOUT)*%
X178887446Y-119485029D03*
%TO.P,LED69,3,DIN*%
%TO.N,Net-(LED68-DOUT)*%
X173437446Y-120985029D03*
D13*
%TO.P,LED69,4,VSS*%
%TO.N,GND*%
X173437446Y-119485029D03*
%TD*%
D14*
%TO.P,D70,1,K*%
%TO.N,Row_4*%
X238442500Y-117650000D03*
%TO.P,D70,2,A*%
%TO.N,Net-(D70-A)*%
X238442500Y-117010000D03*
%TD*%
D12*
%TO.P,LED41,1,VDD*%
%TO.N,+5V*%
X221962446Y-82935029D03*
%TO.P,LED41,2,DOUT*%
%TO.N,Net-(LED41-DOUT)*%
X221962446Y-81435029D03*
%TO.P,LED41,3,DIN*%
%TO.N,Net-(LED40-DOUT)*%
X216512446Y-82935029D03*
D13*
%TO.P,LED41,4,VSS*%
%TO.N,GND*%
X216512446Y-81435029D03*
%TD*%
D12*
%TO.P,LED13,1,VDD*%
%TO.N,+5V*%
X269387446Y-44235029D03*
%TO.P,LED13,2,DOUT*%
%TO.N,Net-(LED13-DOUT)*%
X269387446Y-42735029D03*
%TO.P,LED13,3,DIN*%
%TO.N,Net-(LED12-DOUT)*%
X263937446Y-44235029D03*
D13*
%TO.P,LED13,4,VSS*%
%TO.N,GND*%
X263937446Y-42735029D03*
%TD*%
D14*
%TO.P,D1,1,K*%
%TO.N,Row_0*%
X43180000Y-41450000D03*
%TO.P,D1,2,A*%
%TO.N,Net-(D1-A)*%
X43180000Y-40810000D03*
%TD*%
%TO.P,D52,1,K*%
%TO.N,Row_3*%
X152717500Y-98600000D03*
%TO.P,D52,2,A*%
%TO.N,Net-(D52-A)*%
X152717500Y-97960000D03*
%TD*%
%TO.P,D38,1,K*%
%TO.N,Row_2*%
X167005000Y-79550000D03*
%TO.P,D38,2,A*%
%TO.N,Net-(D38-A)*%
X167005000Y-78910000D03*
%TD*%
%TO.P,D19,1,K*%
%TO.N,Row_1*%
X81280000Y-60500000D03*
%TO.P,D19,2,A*%
%TO.N,Net-(D19-A)*%
X81280000Y-59860000D03*
%TD*%
%TO.P,D11,1,K*%
%TO.N,Row_0*%
X233680000Y-41450000D03*
%TO.P,D11,2,A*%
%TO.N,Net-(D11-A)*%
X233680000Y-40810000D03*
%TD*%
%TO.P,D41,1,K*%
%TO.N,Row_2*%
X224155000Y-79550000D03*
%TO.P,D41,2,A*%
%TO.N,Net-(D41-A)*%
X224155000Y-78910000D03*
%TD*%
D12*
%TO.P,LED9,1,VDD*%
%TO.N,+5V*%
X193137446Y-44235029D03*
%TO.P,LED9,2,DOUT*%
%TO.N,Net-(LED10-DIN)*%
X193137446Y-42735029D03*
%TO.P,LED9,3,DIN*%
%TO.N,Net-(LED8-DOUT)*%
X187687446Y-44235029D03*
D13*
%TO.P,LED9,4,VSS*%
%TO.N,GND*%
X187687446Y-42735029D03*
%TD*%
D12*
%TO.P,LED46,1,VDD*%
%TO.N,+5V*%
X325762446Y-82735029D03*
%TO.P,LED46,2,DOUT*%
%TO.N,Net-(LED46-DOUT)*%
X325762446Y-81235029D03*
%TO.P,LED46,3,DIN*%
%TO.N,Net-(LED45-DOUT)*%
X320312446Y-82735029D03*
D13*
%TO.P,LED46,4,VSS*%
%TO.N,GND*%
X320312446Y-81235029D03*
%TD*%
D14*
%TO.P,D50,1,K*%
%TO.N,Row_3*%
X114617500Y-98600000D03*
%TO.P,D50,2,A*%
%TO.N,Net-(D50-A)*%
X114617500Y-97960000D03*
%TD*%
%TO.P,D34,1,K*%
%TO.N,Row_2*%
X90805000Y-79550000D03*
%TO.P,D34,2,A*%
%TO.N,Net-(D34-A)*%
X90805000Y-78910000D03*
%TD*%
D12*
%TO.P,LED48,1,VDD*%
%TO.N,+5V*%
X74362446Y-101935029D03*
%TO.P,LED48,2,DOUT*%
%TO.N,Net-(LED48-DOUT)*%
X74362446Y-100435029D03*
%TO.P,LED48,3,DIN*%
%TO.N,Net-(LED47-DOUT)*%
X68912446Y-101935029D03*
D13*
%TO.P,LED48,4,VSS*%
%TO.N,GND*%
X68912446Y-100435029D03*
%TD*%
D12*
%TO.P,LED53,1,VDD*%
%TO.N,+5V*%
X170162446Y-101735029D03*
%TO.P,LED53,2,DOUT*%
%TO.N,Net-(LED53-DOUT)*%
X170162446Y-100235029D03*
%TO.P,LED53,3,DIN*%
%TO.N,Net-(LED52-DOUT)*%
X164712446Y-101735029D03*
D13*
%TO.P,LED53,4,VSS*%
%TO.N,GND*%
X164712446Y-100235029D03*
%TD*%
D12*
%TO.P,LED86,1,VDD*%
%TO.N,+5V*%
X307587446Y-140085029D03*
%TO.P,LED86,2,DOUT*%
%TO.N,Net-(LED86-DOUT)*%
X307587446Y-138585029D03*
%TO.P,LED86,3,DIN*%
%TO.N,Net-(LED85-DOUT)*%
X302137446Y-140085029D03*
D13*
%TO.P,LED86,4,VSS*%
%TO.N,GND*%
X302137446Y-138585029D03*
%TD*%
D14*
%TO.P,D9,1,K*%
%TO.N,Row_0*%
X195580000Y-41450000D03*
%TO.P,D9,2,A*%
%TO.N,Net-(D9-A)*%
X195580000Y-40810000D03*
%TD*%
D23*
%TO.P,U1,1,VBAT*%
%TO.N,+3.3V*%
X67424946Y-1210029D03*
%TO.P,U1,2,PC13*%
%TO.N,/C13*%
X67424946Y-1710029D03*
%TO.P,U1,3,PC14*%
%TO.N,/C14*%
X67424946Y-2210029D03*
%TO.P,U1,4,PC15*%
%TO.N,/C15*%
X67424946Y-2710029D03*
%TO.P,U1,5,PF0*%
%TO.N,/F0*%
X67424946Y-3210029D03*
%TO.P,U1,6,PF1*%
%TO.N,/F1*%
X67424946Y-3710029D03*
%TO.P,U1,7,NRST*%
%TO.N,/NRST*%
X67424946Y-4210029D03*
%TO.P,U1,8,VSSA*%
%TO.N,GND*%
X67424946Y-4710029D03*
%TO.P,U1,9,VDDA*%
%TO.N,+3.3V*%
X67424946Y-5210029D03*
%TO.P,U1,10,PA0*%
%TO.N,Col_10*%
X67424946Y-5710029D03*
%TO.P,U1,11,PA1*%
%TO.N,Col_11*%
X67424946Y-6210029D03*
%TO.P,U1,12,PA2*%
%TO.N,Col_12*%
X67424946Y-6710029D03*
D24*
%TO.P,U1,13,PA3*%
%TO.N,Col_14*%
X66012446Y-8122529D03*
%TO.P,U1,14,PA4*%
%TO.N,Col_13*%
X65512446Y-8122529D03*
%TO.P,U1,15,PA5*%
%TO.N,Col_14*%
X65012446Y-8122529D03*
%TO.P,U1,16,PA6*%
%TO.N,Col_15*%
X64512446Y-8122529D03*
%TO.P,U1,17,PA7*%
%TO.N,RGB_INPUT*%
X64012446Y-8122529D03*
%TO.P,U1,18,PB0*%
%TO.N,Row_0*%
X63512446Y-8122529D03*
%TO.P,U1,19,PB1*%
%TO.N,Row_1*%
X63012446Y-8122529D03*
%TO.P,U1,20,PB2*%
%TO.N,Row_2*%
X62512446Y-8122529D03*
%TO.P,U1,21,PB10*%
%TO.N,Col_4*%
X62012446Y-8122529D03*
%TO.P,U1,22,PB11*%
%TO.N,Col_5*%
X61512446Y-8122529D03*
%TO.P,U1,23,VSS*%
%TO.N,GND*%
X61012446Y-8122529D03*
%TO.P,U1,24,VDD*%
%TO.N,+3.3V*%
X60512446Y-8122529D03*
D23*
%TO.P,U1,25,PB12*%
%TO.N,Col_6*%
X59099946Y-6710029D03*
%TO.P,U1,26,PB13*%
%TO.N,Col_7*%
X59099946Y-6210029D03*
%TO.P,U1,27,PB14*%
%TO.N,Col_8*%
X59099946Y-5710029D03*
%TO.P,U1,28,PB15*%
%TO.N,Col_9*%
X59099946Y-5210029D03*
%TO.P,U1,29,PA8*%
%TO.N,unconnected-(U1-PA8-Pad29)*%
X59099946Y-4710029D03*
%TO.P,U1,30,PA9*%
%TO.N,unconnected-(U1-PA9-Pad30)*%
X59099946Y-4210029D03*
%TO.P,U1,31,PA10*%
%TO.N,/A10*%
X59099946Y-3710029D03*
%TO.P,U1,32,PA11*%
%TO.N,/MCU_D-*%
X59099946Y-3210029D03*
%TO.P,U1,33,PA12*%
%TO.N,/MCU_D+*%
X59099946Y-2710029D03*
%TO.P,U1,34,PA13*%
%TO.N,/A13*%
X59099946Y-2210029D03*
%TO.P,U1,35,VSS*%
%TO.N,GND*%
X59099946Y-1710029D03*
%TO.P,U1,36,VDDIO2*%
%TO.N,+3.3V*%
X59099946Y-1210029D03*
D24*
%TO.P,U1,37,PA14*%
%TO.N,/A14*%
X60512446Y202471D03*
%TO.P,U1,38,PA15*%
%TO.N,/A15*%
X61012446Y202471D03*
%TO.P,U1,39,PB3*%
%TO.N,Row_3*%
X61512446Y202471D03*
%TO.P,U1,40,PB4*%
%TO.N,Row_4*%
X62012446Y202471D03*
%TO.P,U1,41,PB5*%
%TO.N,Row_5*%
X62512446Y202471D03*
%TO.P,U1,42,PB6*%
%TO.N,Col_0*%
X63012446Y202471D03*
%TO.P,U1,43,PB7*%
%TO.N,Col_1*%
X63512446Y202471D03*
%TO.P,U1,44,BOOT0*%
%TO.N,/BOOT0*%
X64012446Y202471D03*
%TO.P,U1,45,PB8*%
%TO.N,Col_2*%
X64512446Y202471D03*
%TO.P,U1,46,PB9*%
%TO.N,Col_3*%
X65012446Y202471D03*
%TO.P,U1,47,VSS*%
%TO.N,GND*%
X65512446Y202471D03*
%TO.P,U1,48,VDD*%
%TO.N,+3.3V*%
X66012446Y202471D03*
%TD*%
D12*
%TO.P,LED38,1,VDD*%
%TO.N,+5V*%
X164412446Y-82735029D03*
%TO.P,LED38,2,DOUT*%
%TO.N,Net-(LED38-DOUT)*%
X164412446Y-81235029D03*
%TO.P,LED38,3,DIN*%
%TO.N,Net-(LED37-DOUT)*%
X158962446Y-82735029D03*
D13*
%TO.P,LED38,4,VSS*%
%TO.N,GND*%
X158962446Y-81235029D03*
%TD*%
D14*
%TO.P,D64,1,K*%
%TO.N,Row_4*%
X124142500Y-117650000D03*
%TO.P,D64,2,A*%
%TO.N,Net-(D64-A)*%
X124142500Y-117010000D03*
%TD*%
D25*
%TO.P,C3,1*%
%TO.N,GND*%
X60512443Y-10562530D03*
%TO.P,C3,2*%
%TO.N,+3.3V*%
X60512443Y-9602530D03*
%TD*%
D12*
%TO.P,LED42,1,VDD*%
%TO.N,+5V*%
X240962446Y-82935029D03*
%TO.P,LED42,2,DOUT*%
%TO.N,Net-(LED42-DOUT)*%
X240962446Y-81435029D03*
%TO.P,LED42,3,DIN*%
%TO.N,Net-(LED41-DOUT)*%
X235512446Y-82935029D03*
D13*
%TO.P,LED42,4,VSS*%
%TO.N,GND*%
X235512446Y-81435029D03*
%TD*%
D14*
%TO.P,D22,1,K*%
%TO.N,Row_1*%
X138430000Y-60500000D03*
%TO.P,D22,2,A*%
%TO.N,Net-(D22-A)*%
X138430000Y-59860000D03*
%TD*%
D12*
%TO.P,LED44,1,VDD*%
%TO.N,+5V*%
X278962446Y-82935029D03*
%TO.P,LED44,2,DOUT*%
%TO.N,Net-(LED44-DOUT)*%
X278962446Y-81435029D03*
%TO.P,LED44,3,DIN*%
%TO.N,Net-(LED43-DOUT)*%
X273512446Y-82935029D03*
D13*
%TO.P,LED44,4,VSS*%
%TO.N,GND*%
X273512446Y-81435029D03*
%TD*%
D12*
%TO.P,LED14,1,VDD*%
%TO.N,+5V*%
X288387446Y-43985029D03*
%TO.P,LED14,2,DOUT*%
%TO.N,Net-(LED14-DOUT)*%
X288387446Y-42485029D03*
%TO.P,LED14,3,DIN*%
%TO.N,Net-(LED13-DOUT)*%
X282937446Y-43985029D03*
D13*
%TO.P,LED14,4,VSS*%
%TO.N,GND*%
X282937446Y-42485029D03*
%TD*%
D25*
%TO.P,C12,1*%
%TO.N,+5V*%
X42104943Y474722D03*
%TO.P,C12,2*%
%TO.N,GND*%
X42104943Y1434722D03*
%TD*%
D12*
%TO.P,LED71,1,VDD*%
%TO.N,+5V*%
X217687446Y-120985029D03*
%TO.P,LED71,2,DOUT*%
%TO.N,Net-(LED71-DOUT)*%
X217687446Y-119485029D03*
%TO.P,LED71,3,DIN*%
%TO.N,Net-(LED70-DOUT)*%
X212237446Y-120985029D03*
D13*
%TO.P,LED71,4,VSS*%
%TO.N,GND*%
X212237446Y-119485029D03*
%TD*%
D14*
%TO.P,D23,1,K*%
%TO.N,Row_1*%
X157480000Y-60500000D03*
%TO.P,D23,2,A*%
%TO.N,Net-(D23-A)*%
X157480000Y-59860000D03*
%TD*%
D12*
%TO.P,LED83,1,VDD*%
%TO.N,+5V*%
X250087446Y-140185029D03*
%TO.P,LED83,2,DOUT*%
%TO.N,Net-(LED83-DOUT)*%
X250087446Y-138685029D03*
%TO.P,LED83,3,DIN*%
%TO.N,Net-(LED82-DOUT)*%
X244637446Y-140185029D03*
D13*
%TO.P,LED83,4,VSS*%
%TO.N,GND*%
X244637446Y-138685029D03*
%TD*%
D14*
%TO.P,D47,1,K*%
%TO.N,Row_3*%
X50323750Y-98600000D03*
%TO.P,D47,2,A*%
%TO.N,Net-(D47-A)*%
X50323750Y-97960000D03*
%TD*%
D12*
%TO.P,LED11,1,VDD*%
%TO.N,+5V*%
X231162446Y-44485029D03*
%TO.P,LED11,2,DOUT*%
%TO.N,Net-(LED11-DOUT)*%
X231162446Y-42985029D03*
%TO.P,LED11,3,DIN*%
%TO.N,Net-(LED10-DOUT)*%
X225712446Y-44485029D03*
D13*
%TO.P,LED11,4,VSS*%
%TO.N,GND*%
X225712446Y-42985029D03*
%TD*%
D14*
%TO.P,D12,1,K*%
%TO.N,Row_0*%
X252730000Y-41450000D03*
%TO.P,D12,2,A*%
%TO.N,Net-(D12-A)*%
X252730000Y-40810000D03*
%TD*%
%TO.P,D43,1,K*%
%TO.N,Row_2*%
X262255000Y-79550000D03*
%TO.P,D43,2,A*%
%TO.N,Net-(D43-A)*%
X262255000Y-78910000D03*
%TD*%
%TO.P,D80,1,K*%
%TO.N,Row_5*%
X252730000Y-136700000D03*
%TO.P,D80,2,A*%
%TO.N,Net-(D80-A)*%
X252730000Y-136060000D03*
%TD*%
%TO.P,D2,1,K*%
%TO.N,Row_0*%
X62230000Y-41450000D03*
%TO.P,D2,2,A*%
%TO.N,Net-(D2-A)*%
X62230000Y-40810000D03*
%TD*%
D12*
%TO.P,LED12,1,VDD*%
%TO.N,+5V*%
X250612446Y-44485029D03*
%TO.P,LED12,2,DOUT*%
%TO.N,Net-(LED12-DOUT)*%
X250612446Y-42985029D03*
%TO.P,LED12,3,DIN*%
%TO.N,Net-(LED11-DOUT)*%
X245162446Y-44485029D03*
D13*
%TO.P,LED12,4,VSS*%
%TO.N,GND*%
X245162446Y-42985029D03*
%TD*%
D12*
%TO.P,LED15,1,VDD*%
%TO.N,+5V*%
X307387446Y-44485029D03*
%TO.P,LED15,2,DOUT*%
%TO.N,Net-(LED15-DOUT)*%
X307387446Y-42985029D03*
%TO.P,LED15,3,DIN*%
%TO.N,Net-(LED14-DOUT)*%
X301937446Y-44485029D03*
D13*
%TO.P,LED15,4,VSS*%
%TO.N,GND*%
X301937446Y-42985029D03*
%TD*%
D14*
%TO.P,D14,1,K*%
%TO.N,Row_0*%
X290830000Y-41450000D03*
%TO.P,D14,2,A*%
%TO.N,Net-(D14-A)*%
X290830000Y-40810000D03*
%TD*%
D12*
%TO.P,LED76,1,VDD*%
%TO.N,+5V*%
X326487446Y-120785029D03*
%TO.P,LED76,2,DOUT*%
%TO.N,Net-(LED76-DOUT)*%
X326487446Y-119285029D03*
%TO.P,LED76,3,DIN*%
%TO.N,Net-(LED75-DOUT)*%
X321037446Y-120785029D03*
D13*
%TO.P,LED76,4,VSS*%
%TO.N,GND*%
X321037446Y-119285029D03*
%TD*%
D12*
%TO.P,LED72,1,VDD*%
%TO.N,+5V*%
X236487446Y-120985029D03*
%TO.P,LED72,2,DOUT*%
%TO.N,Net-(LED72-DOUT)*%
X236487446Y-119485029D03*
%TO.P,LED72,3,DIN*%
%TO.N,Net-(LED71-DOUT)*%
X231037446Y-120985029D03*
D13*
%TO.P,LED72,4,VSS*%
%TO.N,GND*%
X231037446Y-119485029D03*
%TD*%
D14*
%TO.P,D17,1,K*%
%TO.N,Row_1*%
X43180000Y-60500000D03*
%TO.P,D17,2,A*%
%TO.N,Net-(D17-A)*%
X43180000Y-59860000D03*
%TD*%
%TO.P,D67,1,K*%
%TO.N,Row_4*%
X181292500Y-117650000D03*
%TO.P,D67,2,A*%
%TO.N,Net-(D67-A)*%
X181292500Y-117010000D03*
%TD*%
D16*
%TO.P,C1,1*%
%TO.N,GND*%
X69864947Y-1210030D03*
%TO.P,C1,2*%
%TO.N,+3.3V*%
X68904947Y-1210030D03*
%TD*%
D12*
%TO.P,LED84,1,VDD*%
%TO.N,+5V*%
X269187446Y-139985029D03*
%TO.P,LED84,2,DOUT*%
%TO.N,Net-(LED84-DOUT)*%
X269187446Y-138485029D03*
%TO.P,LED84,3,DIN*%
%TO.N,Net-(LED83-DOUT)*%
X263737446Y-139985029D03*
D13*
%TO.P,LED84,4,VSS*%
%TO.N,GND*%
X263737446Y-138485029D03*
%TD*%
D14*
%TO.P,D7,1,K*%
%TO.N,Row_0*%
X157480000Y-41450000D03*
%TO.P,D7,2,A*%
%TO.N,Net-(D7-A)*%
X157480000Y-40810000D03*
%TD*%
D12*
%TO.P,LED32,1,VDD*%
%TO.N,+5V*%
X45662446Y-82485029D03*
%TO.P,LED32,2,DOUT*%
%TO.N,Net-(LED32-DOUT)*%
X45662446Y-80985029D03*
%TO.P,LED32,3,DIN*%
%TO.N,Net-(LED31-DOUT)*%
X40212446Y-82485029D03*
D13*
%TO.P,LED32,4,VSS*%
%TO.N,GND*%
X40212446Y-80985029D03*
%TD*%
D16*
%TO.P,C9,1*%
%TO.N,GND*%
X69864947Y-5942529D03*
%TO.P,C9,2*%
%TO.N,+3.3V*%
X68904947Y-5942529D03*
%TD*%
D12*
%TO.P,LED29,1,VDD*%
%TO.N,+5V*%
X269637446Y-63485029D03*
%TO.P,LED29,2,DOUT*%
%TO.N,Net-(LED29-DOUT)*%
X269637446Y-61985029D03*
%TO.P,LED29,3,DIN*%
%TO.N,Net-(LED28-DOUT)*%
X264187446Y-63485029D03*
D13*
%TO.P,LED29,4,VSS*%
%TO.N,GND*%
X264187446Y-61985029D03*
%TD*%
D14*
%TO.P,D5,1,K*%
%TO.N,Row_0*%
X119380000Y-41450000D03*
%TO.P,D5,2,A*%
%TO.N,Net-(D5-A)*%
X119380000Y-40810000D03*
%TD*%
%TO.P,D71,1,K*%
%TO.N,Row_4*%
X257492500Y-117650000D03*
%TO.P,D71,2,A*%
%TO.N,Net-(D71-A)*%
X257492500Y-117010000D03*
%TD*%
%TO.P,D42,1,K*%
%TO.N,Row_2*%
X243205000Y-79550000D03*
%TO.P,D42,2,A*%
%TO.N,Net-(D42-A)*%
X243205000Y-78910000D03*
%TD*%
D12*
%TO.P,LED37,1,VDD*%
%TO.N,+5V*%
X145637446Y-82985029D03*
%TO.P,LED37,2,DOUT*%
%TO.N,Net-(LED37-DOUT)*%
X145637446Y-81485029D03*
%TO.P,LED37,3,DIN*%
%TO.N,Net-(LED36-DOUT)*%
X140187446Y-82985029D03*
D13*
%TO.P,LED37,4,VSS*%
%TO.N,GND*%
X140187446Y-81485029D03*
%TD*%
D12*
%TO.P,LED51,1,VDD*%
%TO.N,+5V*%
X131887446Y-101785029D03*
%TO.P,LED51,2,DOUT*%
%TO.N,Net-(LED51-DOUT)*%
X131887446Y-100285029D03*
%TO.P,LED51,3,DIN*%
%TO.N,Net-(LED50-DOUT)*%
X126437446Y-101785029D03*
D13*
%TO.P,LED51,4,VSS*%
%TO.N,GND*%
X126437446Y-100285029D03*
%TD*%
D14*
%TO.P,D78,1,K*%
%TO.N,Row_5*%
X164623750Y-136700000D03*
%TO.P,D78,2,A*%
%TO.N,Net-(D78-A)*%
X164623750Y-136060000D03*
%TD*%
%TO.P,D73,1,K*%
%TO.N,Row_4*%
X309880000Y-117650000D03*
%TO.P,D73,2,A*%
%TO.N,Net-(D73-A)*%
X309880000Y-117010000D03*
%TD*%
D12*
%TO.P,LED59,1,VDD*%
%TO.N,+5V*%
X264487446Y-101985029D03*
%TO.P,LED59,2,DOUT*%
%TO.N,Net-(LED59-DOUT)*%
X264487446Y-100485029D03*
%TO.P,LED59,3,DIN*%
%TO.N,Net-(LED58-DOUT)*%
X259037446Y-101985029D03*
D13*
%TO.P,LED59,4,VSS*%
%TO.N,GND*%
X259037446Y-100485029D03*
%TD*%
D14*
%TO.P,D68,1,K*%
%TO.N,Row_4*%
X200342500Y-117650000D03*
%TO.P,D68,2,A*%
%TO.N,Net-(D68-A)*%
X200342500Y-117010000D03*
%TD*%
%TO.P,D57,1,K*%
%TO.N,Row_3*%
X247967500Y-98600000D03*
%TO.P,D57,2,A*%
%TO.N,Net-(D57-A)*%
X247967500Y-97960000D03*
%TD*%
%TO.P,D33,1,K*%
%TO.N,Row_2*%
X71755000Y-79550000D03*
%TO.P,D33,2,A*%
%TO.N,Net-(D33-A)*%
X71755000Y-78910000D03*
%TD*%
D12*
%TO.P,LED79,1,VDD*%
%TO.N,+5V*%
X66887446Y-140185029D03*
%TO.P,LED79,2,DOUT*%
%TO.N,Net-(LED79-DOUT)*%
X66887446Y-138685029D03*
%TO.P,LED79,3,DIN*%
%TO.N,Net-(LED78-DOUT)*%
X61437446Y-140185029D03*
D13*
%TO.P,LED79,4,VSS*%
%TO.N,GND*%
X61437446Y-138685029D03*
%TD*%
D14*
%TO.P,D4,1,K*%
%TO.N,Row_0*%
X100330000Y-41450000D03*
%TO.P,D4,2,A*%
%TO.N,Net-(D4-A)*%
X100330000Y-40810000D03*
%TD*%
D26*
%TO.P,R6,1*%
%TO.N,Net-(J1-CC1)*%
X32062446Y-3795029D03*
%TO.P,R6,2*%
%TO.N,GND*%
X32062446Y-4815029D03*
%TD*%
D14*
%TO.P,D65,1,K*%
%TO.N,Row_4*%
X143192500Y-117650000D03*
%TO.P,D65,2,A*%
%TO.N,Net-(D65-A)*%
X143192500Y-117010000D03*
%TD*%
%TO.P,D69,1,K*%
%TO.N,Row_4*%
X219392500Y-117650000D03*
%TO.P,D69,2,A*%
%TO.N,Net-(D69-A)*%
X219392500Y-117010000D03*
%TD*%
%TO.P,D13,1,K*%
%TO.N,Row_0*%
X271780000Y-41450000D03*
%TO.P,D13,2,A*%
%TO.N,Net-(D13-A)*%
X271780000Y-40810000D03*
%TD*%
D12*
%TO.P,LED28,1,VDD*%
%TO.N,+5V*%
X250412446Y-63735029D03*
%TO.P,LED28,2,DOUT*%
%TO.N,Net-(LED28-DOUT)*%
X250412446Y-62235029D03*
%TO.P,LED28,3,DIN*%
%TO.N,Net-(LED27-DOUT)*%
X244962446Y-63735029D03*
D13*
%TO.P,LED28,4,VSS*%
%TO.N,GND*%
X244962446Y-62235029D03*
%TD*%
D14*
%TO.P,D66,1,K*%
%TO.N,Row_4*%
X162242500Y-117650000D03*
%TO.P,D66,2,A*%
%TO.N,Net-(D66-A)*%
X162242500Y-117010000D03*
%TD*%
%TO.P,D27,1,K*%
%TO.N,Row_1*%
X233680000Y-60500000D03*
%TO.P,D27,2,A*%
%TO.N,Net-(D27-A)*%
X233680000Y-59860000D03*
%TD*%
%TO.P,D36,1,K*%
%TO.N,Row_2*%
X128905000Y-79550000D03*
%TO.P,D36,2,A*%
%TO.N,Net-(D36-A)*%
X128905000Y-78910000D03*
%TD*%
D27*
%TO.P,C2,1*%
%TO.N,/NRST*%
X68904946Y-3960030D03*
%TO.P,C2,2*%
%TO.N,GND*%
X69864946Y-3960030D03*
%TD*%
D14*
%TO.P,D74,1,K*%
%TO.N,Row_5*%
X328930000Y-117650000D03*
%TO.P,D74,2,A*%
%TO.N,Net-(D74-A)*%
X328930000Y-117010000D03*
%TD*%
D12*
%TO.P,LED56,1,VDD*%
%TO.N,+5V*%
X207687446Y-101985029D03*
%TO.P,LED56,2,DOUT*%
%TO.N,Net-(LED56-DOUT)*%
X207687446Y-100485029D03*
%TO.P,LED56,3,DIN*%
%TO.N,Net-(LED54-DOUT)*%
X202237446Y-101985029D03*
D13*
%TO.P,LED56,4,VSS*%
%TO.N,GND*%
X202237446Y-100485029D03*
%TD*%
D14*
%TO.P,D32,1,K*%
%TO.N,Row_2*%
X47942500Y-79550000D03*
%TO.P,D32,2,A*%
%TO.N,Net-(D32-A)*%
X47942500Y-78910000D03*
%TD*%
D12*
%TO.P,LED8,1,VDD*%
%TO.N,+5V*%
X174387446Y-44235029D03*
%TO.P,LED8,2,DOUT*%
%TO.N,Net-(LED8-DOUT)*%
X174387446Y-42735029D03*
%TO.P,LED8,3,DIN*%
%TO.N,Net-(LED7-DOUT)*%
X168937446Y-44235029D03*
D13*
%TO.P,LED8,4,VSS*%
%TO.N,GND*%
X168937446Y-42735029D03*
%TD*%
D12*
%TO.P,LED19,1,VDD*%
%TO.N,+5V*%
X79112446Y-63485029D03*
%TO.P,LED19,2,DOUT*%
%TO.N,Net-(LED19-DOUT)*%
X79112446Y-61985029D03*
%TO.P,LED19,3,DIN*%
%TO.N,Net-(LED18-DOUT)*%
X73662446Y-63485029D03*
D13*
%TO.P,LED19,4,VSS*%
%TO.N,GND*%
X73662446Y-61985029D03*
%TD*%
D16*
%TO.P,C11,1*%
%TO.N,GND*%
X59019949Y694971D03*
%TO.P,C11,2*%
%TO.N,+3.3V*%
X58059949Y694971D03*
%TD*%
D12*
%TO.P,LED65,1,VDD*%
%TO.N,+5V*%
X121687446Y-120985029D03*
%TO.P,LED65,2,DOUT*%
%TO.N,Net-(LED65-DOUT)*%
X121687446Y-119485029D03*
%TO.P,LED65,3,DIN*%
%TO.N,Net-(LED64-DOUT)*%
X116237446Y-120985029D03*
D13*
%TO.P,LED65,4,VSS*%
%TO.N,GND*%
X116237446Y-119485029D03*
%TD*%
D14*
%TO.P,D15,1,K*%
%TO.N,Row_0*%
X309880000Y-41450000D03*
%TO.P,D15,2,A*%
%TO.N,Net-(D15-A)*%
X309880000Y-40810000D03*
%TD*%
%TO.P,D6,1,K*%
%TO.N,Row_0*%
X138430000Y-41450000D03*
%TO.P,D6,2,A*%
%TO.N,Net-(D6-A)*%
X138430000Y-40810000D03*
%TD*%
D12*
%TO.P,LED35,1,VDD*%
%TO.N,+5V*%
X107637446Y-82735029D03*
%TO.P,LED35,2,DOUT*%
%TO.N,Net-(LED35-DOUT)*%
X107637446Y-81235029D03*
%TO.P,LED35,3,DIN*%
%TO.N,Net-(LED34-DOUT)*%
X102187446Y-82735029D03*
D13*
%TO.P,LED35,4,VSS*%
%TO.N,GND*%
X102187446Y-81235029D03*
%TD*%
D14*
%TO.P,D84,1,K*%
%TO.N,Row_5*%
X328930000Y-136700000D03*
%TO.P,D84,2,A*%
%TO.N,Net-(D84-A)*%
X328930000Y-136060000D03*
%TD*%
%TO.P,D31,1,K*%
%TO.N,Row_2*%
X328930000Y-60500000D03*
%TO.P,D31,2,A*%
%TO.N,Net-(D31-A)*%
X328930000Y-59860000D03*
%TD*%
%TO.P,D8,1,K*%
%TO.N,Row_0*%
X176530000Y-41450000D03*
%TO.P,D8,2,A*%
%TO.N,Net-(D8-A)*%
X176530000Y-40810000D03*
%TD*%
D12*
%TO.P,LED57,1,VDD*%
%TO.N,+5V*%
X227562446Y-101935029D03*
%TO.P,LED57,2,DOUT*%
%TO.N,Net-(LED57-DOUT)*%
X227562446Y-100435029D03*
%TO.P,LED57,3,DIN*%
%TO.N,Net-(LED56-DOUT)*%
X222112446Y-101935029D03*
D13*
%TO.P,LED57,4,VSS*%
%TO.N,GND*%
X222112446Y-100435029D03*
%TD*%
D12*
%TO.P,LED10,1,VDD*%
%TO.N,+5V*%
X212112446Y-44485029D03*
%TO.P,LED10,2,DOUT*%
%TO.N,Net-(LED10-DOUT)*%
X212112446Y-42985029D03*
%TO.P,LED10,3,DIN*%
%TO.N,Net-(LED10-DIN)*%
X206662446Y-44485029D03*
D13*
%TO.P,LED10,4,VSS*%
%TO.N,GND*%
X206662446Y-42985029D03*
%TD*%
D12*
%TO.P,LED60,1,VDD*%
%TO.N,+5V*%
X295687446Y-101785029D03*
%TO.P,LED60,2,DOUT*%
%TO.N,Net-(LED60-DOUT)*%
X295687446Y-100285029D03*
%TO.P,LED60,3,DIN*%
%TO.N,Net-(LED59-DOUT)*%
X290237446Y-101785029D03*
D13*
%TO.P,LED60,4,VSS*%
%TO.N,GND*%
X290237446Y-100285029D03*
%TD*%
D14*
%TO.P,D18,1,K*%
%TO.N,Row_1*%
X62230000Y-60500000D03*
%TO.P,D18,2,A*%
%TO.N,Net-(D18-A)*%
X62230000Y-59860000D03*
%TD*%
%TO.P,D61,1,K*%
%TO.N,Row_4*%
X55086250Y-117650000D03*
%TO.P,D61,2,A*%
%TO.N,Net-(D61-A)*%
X55086250Y-117010000D03*
%TD*%
D12*
%TO.P,LED43,1,VDD*%
%TO.N,+5V*%
X259962446Y-82735029D03*
%TO.P,LED43,2,DOUT*%
%TO.N,Net-(LED43-DOUT)*%
X259962446Y-81235029D03*
%TO.P,LED43,3,DIN*%
%TO.N,Net-(LED42-DOUT)*%
X254512446Y-82735029D03*
D13*
%TO.P,LED43,4,VSS*%
%TO.N,GND*%
X254512446Y-81235029D03*
%TD*%
D14*
%TO.P,D39,1,K*%
%TO.N,Row_2*%
X186055000Y-79550000D03*
%TO.P,D39,2,A*%
%TO.N,Net-(D39-A)*%
X186055000Y-78910000D03*
%TD*%
D28*
%TO.P,U4,1,GND*%
%TO.N,GND*%
X45484943Y1423722D03*
%TO.P,U4,2,VO*%
%TO.N,+3.3V*%
X45484943Y-476278D03*
%TO.P,U4,3,VI*%
%TO.N,+5V*%
X43609943Y473722D03*
%TD*%
D29*
%TO.P,R5,1*%
%TO.N,GND*%
X43772441Y-13755025D03*
%TO.P,R5,2*%
%TO.N,/BOOT0*%
X42752441Y-13755025D03*
%TD*%
D12*
%TO.P,LED34,1,VDD*%
%TO.N,+5V*%
X88412446Y-82735029D03*
%TO.P,LED34,2,DOUT*%
%TO.N,Net-(LED34-DOUT)*%
X88412446Y-81235029D03*
%TO.P,LED34,3,DIN*%
%TO.N,Net-(LED33-DOUT)*%
X82962446Y-82735029D03*
D13*
%TO.P,LED34,4,VSS*%
%TO.N,GND*%
X82962446Y-81235029D03*
%TD*%
D14*
%TO.P,D46,1,K*%
%TO.N,Row_3*%
X328930000Y-79550000D03*
%TO.P,D46,2,A*%
%TO.N,Net-(D46-A)*%
X328930000Y-78910000D03*
%TD*%
%TO.P,D48,1,K*%
%TO.N,Row_3*%
X76517500Y-98600000D03*
%TO.P,D48,2,A*%
%TO.N,Net-(D48-A)*%
X76517500Y-97960000D03*
%TD*%
D12*
%TO.P,LED61,1,VDD*%
%TO.N,+5V*%
X325612446Y-101735029D03*
%TO.P,LED61,2,DOUT*%
%TO.N,Net-(LED61-DOUT)*%
X325612446Y-100235029D03*
%TO.P,LED61,3,DIN*%
%TO.N,Net-(LED60-DOUT)*%
X320162446Y-101735029D03*
D13*
%TO.P,LED61,4,VSS*%
%TO.N,GND*%
X320162446Y-100235029D03*
%TD*%
D14*
%TO.P,D30,1,K*%
%TO.N,Row_1*%
X300355000Y-60500000D03*
%TO.P,D30,2,A*%
%TO.N,Net-(D30-A)*%
X300355000Y-59860000D03*
%TD*%
D12*
%TO.P,LED27,1,VDD*%
%TO.N,+5V*%
X231412446Y-63735029D03*
%TO.P,LED27,2,DOUT*%
%TO.N,Net-(LED27-DOUT)*%
X231412446Y-62235029D03*
%TO.P,LED27,3,DIN*%
%TO.N,Net-(LED26-DOUT)*%
X225962446Y-63735029D03*
D13*
%TO.P,LED27,4,VSS*%
%TO.N,GND*%
X225962446Y-62235029D03*
%TD*%
D12*
%TO.P,LED16,1,VDD*%
%TO.N,+5V*%
X326612446Y-44485029D03*
%TO.P,LED16,2,DOUT*%
%TO.N,Net-(LED16-DOUT)*%
X326612446Y-42985029D03*
%TO.P,LED16,3,DIN*%
%TO.N,Net-(LED15-DOUT)*%
X321162446Y-44485029D03*
D13*
%TO.P,LED16,4,VSS*%
%TO.N,GND*%
X321162446Y-42985029D03*
%TD*%
D30*
%TO.P,F1,1*%
%TO.N,VBUS*%
X40852443Y2051220D03*
%TO.P,F1,2*%
%TO.N,+5V*%
X40852443Y476220D03*
%TD*%
D14*
%TO.P,D55,1,K*%
%TO.N,Row_3*%
X209867500Y-98600000D03*
%TO.P,D55,2,A*%
%TO.N,Net-(D55-A)*%
X209867500Y-97960000D03*
%TD*%
%TO.P,D35,1,K*%
%TO.N,Row_2*%
X109855000Y-79550000D03*
%TO.P,D35,2,A*%
%TO.N,Net-(D35-A)*%
X109855000Y-78910000D03*
%TD*%
D12*
%TO.P,LED87,1,VDD*%
%TO.N,+5V*%
X326287446Y-139885029D03*
%TO.P,LED87,2,DOUT*%
%TO.N,unconnected-(LED87-DOUT-Pad2)*%
X326287446Y-138385029D03*
%TO.P,LED87,3,DIN*%
%TO.N,Net-(LED86-DOUT)*%
X320837446Y-139885029D03*
D13*
%TO.P,LED87,4,VSS*%
%TO.N,GND*%
X320837446Y-138385029D03*
%TD*%
D14*
%TO.P,D62,1,K*%
%TO.N,Row_4*%
X86042500Y-117650000D03*
%TO.P,D62,2,A*%
%TO.N,Net-(D62-A)*%
X86042500Y-117010000D03*
%TD*%
D31*
%TO.P,SW343,1,1*%
%TO.N,+3.3V*%
X46549947Y-12122529D03*
X46549947Y-5822529D03*
%TO.P,SW343,2,2*%
%TO.N,/BOOT0*%
X42749947Y-12122529D03*
X42749947Y-5822529D03*
%TD*%
D12*
%TO.P,LED50,1,VDD*%
%TO.N,+5V*%
X112562446Y-101935029D03*
%TO.P,LED50,2,DOUT*%
%TO.N,Net-(LED50-DOUT)*%
X112562446Y-100435029D03*
%TO.P,LED50,3,DIN*%
%TO.N,Net-(LED49-DOUT)*%
X107112446Y-101935029D03*
D13*
%TO.P,LED50,4,VSS*%
%TO.N,GND*%
X107112446Y-100435029D03*
%TD*%
D14*
%TO.P,D60,1,K*%
%TO.N,Row_4*%
X328930000Y-98600000D03*
%TO.P,D60,2,A*%
%TO.N,Net-(D60-A)*%
X328930000Y-97960000D03*
%TD*%
D12*
%TO.P,LED45,1,VDD*%
%TO.N,+5V*%
X303287446Y-82985029D03*
%TO.P,LED45,2,DOUT*%
%TO.N,Net-(LED45-DOUT)*%
X303287446Y-81485029D03*
%TO.P,LED45,3,DIN*%
%TO.N,Net-(LED44-DOUT)*%
X297837446Y-82985029D03*
D13*
%TO.P,LED45,4,VSS*%
%TO.N,GND*%
X297837446Y-81485029D03*
%TD*%
D12*
%TO.P,LED54,1,VDD*%
%TO.N,+5V*%
X188762446Y-101935029D03*
%TO.P,LED54,2,DOUT*%
%TO.N,Net-(LED54-DOUT)*%
X188762446Y-100435029D03*
%TO.P,LED54,3,DIN*%
%TO.N,Net-(LED53-DOUT)*%
X183312446Y-101935029D03*
D13*
%TO.P,LED54,4,VSS*%
%TO.N,GND*%
X183312446Y-100435029D03*
%TD*%
D14*
%TO.P,D51,1,K*%
%TO.N,Row_3*%
X133667500Y-98600000D03*
%TO.P,D51,2,A*%
%TO.N,Net-(D51-A)*%
X133667500Y-97960000D03*
%TD*%
%TO.P,D59,1,K*%
%TO.N,Row_3*%
X297973750Y-98600000D03*
%TO.P,D59,2,A*%
%TO.N,Net-(D59-A)*%
X297973750Y-97960000D03*
%TD*%
%TO.P,D29,1,K*%
%TO.N,Row_1*%
X271780000Y-60500000D03*
%TO.P,D29,2,A*%
%TO.N,Net-(D29-A)*%
X271780000Y-59860000D03*
%TD*%
D12*
%TO.P,LED40,1,VDD*%
%TO.N,+5V*%
X202762446Y-82935029D03*
%TO.P,LED40,2,DOUT*%
%TO.N,Net-(LED40-DOUT)*%
X202762446Y-81435029D03*
%TO.P,LED40,3,DIN*%
%TO.N,Net-(LED39-DOUT)*%
X197312446Y-82935029D03*
D13*
%TO.P,LED40,4,VSS*%
%TO.N,GND*%
X197312446Y-81435029D03*
%TD*%
D14*
%TO.P,D25,1,K*%
%TO.N,Row_1*%
X195580000Y-60500000D03*
%TO.P,D25,2,A*%
%TO.N,Net-(D25-A)*%
X195580000Y-59860000D03*
%TD*%
D12*
%TO.P,LED22,1,VDD*%
%TO.N,+5V*%
X136137446Y-63485029D03*
%TO.P,LED22,2,DOUT*%
%TO.N,Net-(LED22-DOUT)*%
X136137446Y-61985029D03*
%TO.P,LED22,3,DIN*%
%TO.N,Net-(LED21-DOUT)*%
X130687446Y-63485029D03*
D13*
%TO.P,LED22,4,VSS*%
%TO.N,GND*%
X130687446Y-61985029D03*
%TD*%
D14*
%TO.P,D63,1,K*%
%TO.N,Row_4*%
X105092500Y-117650000D03*
%TO.P,D63,2,A*%
%TO.N,Net-(D63-A)*%
X105092500Y-117010000D03*
%TD*%
%TO.P,D21,1,K*%
%TO.N,Row_1*%
X119380000Y-60500000D03*
%TO.P,D21,2,A*%
%TO.N,Net-(D21-A)*%
X119380000Y-59860000D03*
%TD*%
D12*
%TO.P,LED4,1,VDD*%
%TO.N,+5V*%
X98112446Y-44235029D03*
%TO.P,LED4,2,DOUT*%
%TO.N,Net-(LED4-DOUT)*%
X98112446Y-42735029D03*
%TO.P,LED4,3,DIN*%
%TO.N,Net-(LED3-DOUT)*%
X92662446Y-44235029D03*
D13*
%TO.P,LED4,4,VSS*%
%TO.N,GND*%
X92662446Y-42735029D03*
%TD*%
D14*
%TO.P,D26,1,K*%
%TO.N,Row_1*%
X214630000Y-60500000D03*
%TO.P,D26,2,A*%
%TO.N,Net-(D26-A)*%
X214630000Y-59860000D03*
%TD*%
D12*
%TO.P,LED6,1,VDD*%
%TO.N,+5V*%
X136162446Y-43985029D03*
%TO.P,LED6,2,DOUT*%
%TO.N,Net-(LED6-DOUT)*%
X136162446Y-42485029D03*
%TO.P,LED6,3,DIN*%
%TO.N,Net-(LED5-DOUT)*%
X130712446Y-43985029D03*
D13*
%TO.P,LED6,4,VSS*%
%TO.N,GND*%
X130712446Y-42485029D03*
%TD*%
D12*
%TO.P,LED82,1,VDD*%
%TO.N,+5V*%
X231087446Y-139985029D03*
%TO.P,LED82,2,DOUT*%
%TO.N,Net-(LED82-DOUT)*%
X231087446Y-138485029D03*
%TO.P,LED82,3,DIN*%
%TO.N,Net-(LED81-DOUT)*%
X225637446Y-139985029D03*
D13*
%TO.P,LED82,4,VSS*%
%TO.N,GND*%
X225637446Y-138485029D03*
%TD*%
D12*
%TO.P,LED74,1,VDD*%
%TO.N,+5V*%
X281487446Y-121185029D03*
%TO.P,LED74,2,DOUT*%
%TO.N,Net-(LED74-DOUT)*%
X281487446Y-119685029D03*
%TO.P,LED74,3,DIN*%
%TO.N,Net-(LED73-DOUT)*%
X276037446Y-121185029D03*
D13*
%TO.P,LED74,4,VSS*%
%TO.N,GND*%
X276037446Y-119685029D03*
%TD*%
D12*
%TO.P,LED78,1,VDD*%
%TO.N,+5V*%
X42887446Y-139485029D03*
%TO.P,LED78,2,DOUT*%
%TO.N,Net-(LED78-DOUT)*%
X42887446Y-137985029D03*
%TO.P,LED78,3,DIN*%
%TO.N,Net-(LED76-DOUT)*%
X37437446Y-139485029D03*
D13*
%TO.P,LED78,4,VSS*%
%TO.N,GND*%
X37437446Y-137985029D03*
%TD*%
D12*
%TO.P,LED21,1,VDD*%
%TO.N,+5V*%
X117137446Y-63735029D03*
%TO.P,LED21,2,DOUT*%
%TO.N,Net-(LED21-DOUT)*%
X117137446Y-62235029D03*
%TO.P,LED21,3,DIN*%
%TO.N,Net-(LED20-DOUT)*%
X111687446Y-63735029D03*
D13*
%TO.P,LED21,4,VSS*%
%TO.N,GND*%
X111687446Y-62235029D03*
%TD*%
D12*
%TO.P,LED49,1,VDD*%
%TO.N,+5V*%
X93362446Y-101935029D03*
%TO.P,LED49,2,DOUT*%
%TO.N,Net-(LED49-DOUT)*%
X93362446Y-100435029D03*
%TO.P,LED49,3,DIN*%
%TO.N,Net-(LED48-DOUT)*%
X87912446Y-101935029D03*
D13*
%TO.P,LED49,4,VSS*%
%TO.N,GND*%
X87912446Y-100435029D03*
%TD*%
D25*
%TO.P,C13,1*%
%TO.N,+3.3V*%
X46989943Y-476278D03*
%TO.P,C13,2*%
%TO.N,GND*%
X46989943Y483722D03*
%TD*%
D12*
%TO.P,LED75,1,VDD*%
%TO.N,+5V*%
X307087446Y-120985029D03*
%TO.P,LED75,2,DOUT*%
%TO.N,Net-(LED75-DOUT)*%
X307087446Y-119485029D03*
%TO.P,LED75,3,DIN*%
%TO.N,Net-(LED74-DOUT)*%
X301637446Y-120985029D03*
D13*
%TO.P,LED75,4,VSS*%
%TO.N,GND*%
X301637446Y-119485029D03*
%TD*%
D14*
%TO.P,D44,1,K*%
%TO.N,Row_2*%
X281305000Y-79550000D03*
%TO.P,D44,2,A*%
%TO.N,Net-(D44-A)*%
X281305000Y-78910000D03*
%TD*%
%TO.P,D79,1,K*%
%TO.N,Row_5*%
X233680000Y-136700000D03*
%TO.P,D79,2,A*%
%TO.N,Net-(D79-A)*%
X233680000Y-136060000D03*
%TD*%
D25*
%TO.P,C6,1*%
%TO.N,GND*%
X59529943Y-10562537D03*
%TO.P,C6,2*%
%TO.N,+3.3V*%
X59529943Y-9602537D03*
%TD*%
D14*
%TO.P,D75,1,K*%
%TO.N,Row_5*%
X45561250Y-136700000D03*
%TO.P,D75,2,A*%
%TO.N,Net-(D75-A)*%
X45561250Y-136060000D03*
%TD*%
D12*
%TO.P,LED33,1,VDD*%
%TO.N,+5V*%
X69612446Y-82985029D03*
%TO.P,LED33,2,DOUT*%
%TO.N,Net-(LED33-DOUT)*%
X69612446Y-81485029D03*
%TO.P,LED33,3,DIN*%
%TO.N,Net-(LED32-DOUT)*%
X64162446Y-82985029D03*
D13*
%TO.P,LED33,4,VSS*%
%TO.N,GND*%
X64162446Y-81485029D03*
%TD*%
D12*
%TO.P,LED52,1,VDD*%
%TO.N,+5V*%
X150762446Y-101935029D03*
%TO.P,LED52,2,DOUT*%
%TO.N,Net-(LED52-DOUT)*%
X150762446Y-100435029D03*
%TO.P,LED52,3,DIN*%
%TO.N,Net-(LED51-DOUT)*%
X145312446Y-101935029D03*
D13*
%TO.P,LED52,4,VSS*%
%TO.N,GND*%
X145312446Y-100435029D03*
%TD*%
D14*
%TO.P,D54,1,K*%
%TO.N,Row_3*%
X190817500Y-98600000D03*
%TO.P,D54,2,A*%
%TO.N,Net-(D54-A)*%
X190817500Y-97960000D03*
%TD*%
D32*
%TO.N,GND*%
X176712446Y-81185029D03*
X209612446Y-119385029D03*
X223662446Y-43085029D03*
X104662446Y-100335029D03*
X44762446Y-117185029D03*
X290662446Y-62235029D03*
X52162446Y-42635029D03*
X128612446Y-62035029D03*
X166762446Y-62235029D03*
X204862446Y-42935029D03*
X90812446Y-42835029D03*
X162062446Y-100235029D03*
X52712446Y-61835029D03*
X59812446Y-138585029D03*
X91112446Y-62235029D03*
X204762446Y-62135029D03*
X242712446Y-138635029D03*
X242962446Y-42985029D03*
X123762446Y-100285029D03*
X228612446Y-119335029D03*
X114412446Y-119435029D03*
X299962446Y-138435029D03*
X214312446Y-81435029D03*
X319212446Y-43035029D03*
X237812446Y-100285029D03*
X252612446Y-81285029D03*
X154862446Y-138585029D03*
X37212446Y-79985029D03*
X33062446Y-61335029D03*
X71812446Y-42635029D03*
X147612446Y-42835029D03*
X280812446Y-42485029D03*
X318912446Y-138235029D03*
X109612446Y-42585029D03*
X199862446Y-100435029D03*
X33162446Y-42085029D03*
X318062446Y-100185029D03*
X287912446Y-100185029D03*
X76462446Y-119235029D03*
X224112446Y-62135029D03*
X262312446Y-62035029D03*
X40062446Y-99135029D03*
X185762446Y-62185029D03*
X233412446Y-81535029D03*
X42162446Y-20810029D03*
X318312446Y-81435029D03*
X95062446Y-119535029D03*
X247212446Y-119135029D03*
X271662446Y-81585029D03*
X156962446Y-81235029D03*
X261562446Y-138185029D03*
X295312446Y-81485029D03*
X148112446Y-62185029D03*
X195312446Y-81485029D03*
X280312446Y-138535029D03*
X180812446Y-100435029D03*
X100062446Y-81185029D03*
X118962446Y-81235029D03*
X81012446Y-81235029D03*
X190162446Y-119435029D03*
X223412446Y-138285029D03*
X86016727Y-100356783D03*
X71812446Y-62085029D03*
X62262446Y-81235029D03*
X274012446Y-119635029D03*
X300212446Y-42935029D03*
X243062446Y-62335029D03*
X50699946Y-17597529D03*
X35212446Y-137485029D03*
X142712446Y-100335029D03*
X219162446Y-100285029D03*
X185662446Y-42885029D03*
X66462446Y-100335029D03*
X83462446Y-138635029D03*
X109762446Y-62185029D03*
X256812446Y-100435029D03*
X129112446Y-42585029D03*
X166912446Y-42885029D03*
X318812446Y-119185029D03*
X261862446Y-42785029D03*
X299512446Y-119435029D03*
X318262446Y-61335029D03*
X171662446Y-119335029D03*
X152712446Y-119185029D03*
X133512446Y-119235029D03*
X138162446Y-81535029D03*
%TO.N,+3.3V*%
X49862446Y-1560029D03*
X68904948Y-500029D03*
X47699943Y-476278D03*
X66722446Y1682471D03*
X68904947Y-6652529D03*
X58059948Y1682471D03*
X47912446Y-17760029D03*
X58819943Y-9602537D03*
X47699943Y-5822524D03*
%TO.N,+5V*%
X54312446Y-120735029D03*
X224112446Y-83035029D03*
X90762446Y-82885029D03*
X68812446Y-140285029D03*
X271662446Y-140235029D03*
X281162446Y-82885029D03*
X164812446Y-140285029D03*
X128562446Y-82785029D03*
X209512446Y-101985029D03*
X248062446Y-102085029D03*
X309762446Y-140285029D03*
X262112446Y-82835029D03*
X157162446Y-63785029D03*
X238352257Y-120991771D03*
X104212446Y-120885029D03*
X233512446Y-140185029D03*
X61712446Y-44035029D03*
X305212446Y-82885029D03*
X161812446Y-120985029D03*
X195112446Y-44235029D03*
X242962446Y-82935029D03*
X290112446Y-140435029D03*
X134062446Y-101885029D03*
X138062446Y-63635029D03*
X95262446Y-101935029D03*
X327312446Y-82785029D03*
X199412446Y-121035029D03*
X100012446Y-44235029D03*
X266562446Y-102035029D03*
X93362446Y-140285029D03*
X147662446Y-83085029D03*
X42462446Y-44185029D03*
X271362446Y-63535029D03*
X44212446Y-63335029D03*
X214162446Y-44435029D03*
X176562446Y-63785029D03*
X327412446Y-62985029D03*
X219612446Y-121035029D03*
X309112446Y-120985029D03*
X76212446Y-101935029D03*
X85512446Y-120885029D03*
X166412446Y-82835029D03*
X180762446Y-121035029D03*
X233212446Y-44535029D03*
X297912446Y-101885029D03*
X299712446Y-63735029D03*
X63362446Y-63285029D03*
X100062446Y-63735029D03*
X80662446Y-43985029D03*
X123762446Y-121035029D03*
X328012446Y-140085029D03*
X43662446Y-141085029D03*
X328362446Y-120935029D03*
X71862446Y-82985029D03*
X195462446Y-63735029D03*
X172212446Y-101785029D03*
X51112446Y-101785029D03*
X229412446Y-101885029D03*
X186412446Y-82885029D03*
X118812446Y-63735029D03*
X48062446Y-82585029D03*
X81212446Y-63535029D03*
X176312446Y-44235029D03*
X109862446Y-82885029D03*
X118962446Y-43985029D03*
X256612446Y-120735029D03*
X49074946Y-22697529D03*
X252562446Y-140235029D03*
X290162446Y-43985029D03*
X138112446Y-43935029D03*
X157562446Y-44235029D03*
X114562446Y-101935029D03*
X328212446Y-44485029D03*
X204641485Y-82953349D03*
X214312446Y-63685029D03*
X190562446Y-102035029D03*
X41062446Y-635029D03*
X252462446Y-44485029D03*
X325212446Y-103035029D03*
X142912446Y-120985029D03*
X309212446Y-44485029D03*
X253062446Y-63685029D03*
X283462446Y-121035029D03*
X234062446Y-63685029D03*
X152910412Y-101910984D03*
X271212446Y-44285029D03*
%TO.N,VBUS*%
X37237446Y-2960029D03*
X30707446Y-4910029D03*
X30707446Y-10029D03*
%TO.N,Row_0*%
X67287446Y-12535029D03*
X24287446Y-39335029D03*
%TO.N,/BOOT0*%
X48349943Y-4210029D03*
X60599946Y-4210029D03*
%TO.N,Row_1*%
X67787446Y-13935029D03*
X28162446Y-59760029D03*
%TO.N,Row_2*%
X66612446Y-13985029D03*
X30937446Y-77385029D03*
%TO.N,Row_4*%
X22987446Y6164971D03*
X29461108Y-112632928D03*
%TO.N,Row_5*%
X31252013Y-134539884D03*
X20587446Y5764971D03*
%TO.N,RGB_OUTPUT*%
X52412446Y-20610029D03*
X31712446Y-43060029D03*
%TO.N,Col_0*%
X61837446Y-3060029D03*
%TO.N,Col_1*%
X63037446Y-2935029D03*
%TO.N,Col_2*%
X62612446Y-5310029D03*
%TO.N,Col_3*%
X62662446Y-6285029D03*
%TO.N,Col_5*%
X96212446Y-25485029D03*
%TO.N,Col_6*%
X121987446Y-26885029D03*
X62887446Y-14885029D03*
%TO.N,Col_7*%
X63612446Y-15785029D03*
%TO.N,Col_8*%
X64687446Y-16435029D03*
%TO.N,Col_9*%
X66437446Y-17360029D03*
%TO.N,Col_10*%
X65862446Y-5335029D03*
X224787446Y-27435029D03*
%TO.N,Col_11*%
X244262446Y-27935029D03*
X65387446Y-6210029D03*
%TO.N,Col_13*%
X70562446Y-9910029D03*
%TO.N,Col_14*%
X69612446Y-10585029D03*
%TO.N,Col_15*%
X69687446Y-11510029D03*
%TO.N,RGB_INPUT*%
X66962446Y-11610029D03*
X46262446Y-20685029D03*
X54637446Y-15160029D03*
%TO.N,Net-(LED16-DOUT)*%
X33412446Y-63235029D03*
X329162446Y-43485029D03*
%TO.N,Net-(LED31-DOUT)*%
X37662446Y-81735029D03*
X327412446Y-61485029D03*
%TO.N,Net-(LED46-DOUT)*%
X327562446Y-81235029D03*
X40662446Y-101735029D03*
%TO.N,Net-(LED61-DOUT)*%
X327162446Y-100235029D03*
X41862446Y-116735029D03*
%TO.N,Net-(LED76-DOUT)*%
X327962446Y-119285029D03*
X35362446Y-139435029D03*
%TD*%
D33*
%TO.N,GND*%
X116237446Y-119485029D02*
X114462446Y-119485029D01*
X223762446Y-42985029D02*
X223662446Y-43085029D01*
X107112446Y-100435029D02*
X104762446Y-100435029D01*
D34*
X29482446Y-5710029D02*
X31167446Y-5710029D01*
D33*
X178687446Y-81235029D02*
X176762446Y-81235029D01*
D34*
X43237446Y3564971D02*
X44162446Y3564971D01*
D33*
X150187446Y-62235029D02*
X148162446Y-62235029D01*
X318912446Y-119285029D02*
X318812446Y-119185029D01*
X46687446Y-16010029D02*
X49112446Y-16010029D01*
X173437446Y-119485029D02*
X171812446Y-119485029D01*
X92662446Y-42735029D02*
X90912446Y-42735029D01*
X158962446Y-81235029D02*
X156962446Y-81235029D01*
X59019947Y694969D02*
X59019949Y694971D01*
X76662446Y-119435029D02*
X76462446Y-119235029D01*
D34*
X43237446Y3564971D02*
X43343694Y3564971D01*
X46049943Y1423722D02*
X46989943Y483722D01*
D33*
X274062446Y-119685029D02*
X274012446Y-119635029D01*
X156837446Y-138685029D02*
X154962446Y-138685029D01*
X261912446Y-42735029D02*
X261862446Y-42785029D01*
X85562446Y-138635029D02*
X83462446Y-138635029D01*
X299562446Y-119485029D02*
X299512446Y-119435029D01*
X145312446Y-100435029D02*
X142812446Y-100435029D01*
X235512446Y-81435029D02*
X233512446Y-81435029D01*
X69864946Y-3960030D02*
X69864947Y-1210030D01*
X223612446Y-138485029D02*
X223412446Y-138285029D01*
X69864947Y-1210030D02*
X69864947Y1212470D01*
X262362446Y-61985029D02*
X262312446Y-62035029D01*
X228762446Y-119485029D02*
X228612446Y-119335029D01*
D34*
X45484943Y1423722D02*
X46049943Y1423722D01*
D33*
X154437446Y-119485029D02*
X153012446Y-119485029D01*
X225712446Y-42985029D02*
X223762446Y-42985029D01*
X276037446Y-119685029D02*
X274062446Y-119685029D01*
X47112446Y-119235029D02*
X46812446Y-119235029D01*
X320212446Y-61485029D02*
X318412446Y-61485029D01*
X37312446Y-79885029D02*
X37212446Y-79985029D01*
X242762446Y-138685029D02*
X242712446Y-138635029D01*
X130712446Y-42485029D02*
X129212446Y-42485029D01*
D34*
X59019949Y2507468D02*
X59019949Y694971D01*
D33*
X321162446Y-42985029D02*
X319262446Y-42985029D01*
X46687446Y-16285029D02*
X46687446Y-16010029D01*
X130687446Y-61985029D02*
X128662446Y-61985029D01*
X318412446Y-61485029D02*
X318262446Y-61335029D01*
X225637446Y-138485029D02*
X223612446Y-138485029D01*
X164712446Y-100235029D02*
X162062446Y-100235029D01*
D34*
X47812446Y3564971D02*
X57962446Y3564971D01*
D33*
X40212446Y-80985029D02*
X39112446Y-79885029D01*
X222112446Y-100435029D02*
X219312446Y-100435029D01*
X96762446Y-119435029D02*
X95162446Y-119435029D01*
X126437446Y-100285029D02*
X123762446Y-100285029D01*
X320312446Y-81235029D02*
X318512446Y-81235029D01*
X90912446Y-42735029D02*
X90812446Y-42835029D01*
X197312446Y-81435029D02*
X195362446Y-81435029D01*
X254512446Y-81235029D02*
X252662446Y-81235029D01*
X216512446Y-81435029D02*
X214312446Y-81435029D01*
X111662446Y-42485029D02*
X109712446Y-42485029D01*
X168687446Y-62235029D02*
X166762446Y-62235029D01*
X147712446Y-42735029D02*
X147612446Y-42835029D01*
X42104943Y1957468D02*
X43528070Y3380595D01*
X185812446Y-62235029D02*
X185762446Y-62185029D01*
X60512443Y-10562530D02*
X59529950Y-10562530D01*
X301937446Y-42985029D02*
X300262446Y-42985029D01*
X149687446Y-42735029D02*
X147712446Y-42735029D01*
X209712446Y-119485029D02*
X209612446Y-119385029D01*
X52812446Y-61735029D02*
X52712446Y-61835029D01*
X259037446Y-100485029D02*
X256862446Y-100485029D01*
X43772441Y-13755025D02*
X43772441Y-14200034D01*
X138212446Y-81485029D02*
X138162446Y-81535029D01*
X59529950Y-10562530D02*
X59529943Y-10562537D01*
X68912446Y-100435029D02*
X66562446Y-100435029D01*
X247312446Y-119235029D02*
X247212446Y-119135029D01*
X264187446Y-61985029D02*
X262362446Y-61985029D01*
X212237446Y-119485029D02*
X209712446Y-119485029D01*
X282937446Y-42485029D02*
X280812446Y-42485029D01*
X128662446Y-61985029D02*
X128612446Y-62035029D01*
X33262446Y-41985029D02*
X33162446Y-42085029D01*
X297837446Y-81485029D02*
X295312446Y-81485029D01*
X142812446Y-100435029D02*
X142712446Y-100335029D01*
X192112446Y-119535029D02*
X190262446Y-119535029D01*
X199912446Y-100485029D02*
X199862446Y-100435029D01*
X280462446Y-138685029D02*
X280312446Y-138535029D01*
X225962446Y-62235029D02*
X224212446Y-62235029D01*
X54437446Y-42485029D02*
X52312446Y-42485029D01*
X288012446Y-100285029D02*
X287912446Y-100185029D01*
X319262446Y-42985029D02*
X319212446Y-43035029D01*
X263737446Y-138485029D02*
X261862446Y-138485029D01*
X39887446Y-16010029D02*
X32062446Y-8185029D01*
X111687446Y-62235029D02*
X109812446Y-62235029D01*
X35662446Y-61735029D02*
X33462446Y-61735029D01*
D34*
X43343694Y3564971D02*
X43528070Y3380595D01*
D33*
X187687446Y-62235029D02*
X185812446Y-62235029D01*
X135562446Y-119435029D02*
X133712446Y-119435029D01*
X243162446Y-62235029D02*
X243062446Y-62335029D01*
X61437446Y-138685029D02*
X59912446Y-138685029D01*
X41962446Y-16010029D02*
X46687446Y-16010029D01*
X206687446Y-62235029D02*
X204862446Y-62235029D01*
X86094973Y-100435029D02*
X86016727Y-100356783D01*
D34*
X47812446Y3564971D02*
X47862446Y3514971D01*
D33*
X133712446Y-119435029D02*
X133512446Y-119235029D01*
X321037446Y-119285029D02*
X318912446Y-119285029D01*
X282437446Y-138685029D02*
X280462446Y-138685029D01*
X319062446Y-138385029D02*
X318912446Y-138235029D01*
X244962446Y-62235029D02*
X243162446Y-62235029D01*
X41962446Y-16010029D02*
X39887446Y-16010029D01*
X64162446Y-81485029D02*
X62512446Y-81485029D01*
D34*
X39562446Y3564971D02*
X43237446Y3564971D01*
D33*
X185812446Y-42735029D02*
X185662446Y-42885029D01*
X233512446Y-81435029D02*
X233412446Y-81535029D01*
X153012446Y-119485029D02*
X152712446Y-119185029D01*
X33462446Y-61735029D02*
X33062446Y-61335029D01*
X32062446Y-8185029D02*
X32062446Y-4815029D01*
X183312446Y-100435029D02*
X180812446Y-100435029D01*
X168937446Y-42735029D02*
X167062446Y-42735029D01*
X140187446Y-81485029D02*
X138212446Y-81485029D01*
X109812446Y-62235029D02*
X109762446Y-62185029D01*
X202237446Y-100485029D02*
X199912446Y-100485029D01*
X204912446Y-42985029D02*
X204862446Y-42935029D01*
X249312446Y-119235029D02*
X247312446Y-119235029D01*
X263937446Y-42735029D02*
X261912446Y-42735029D01*
X37437446Y-137985029D02*
X35712446Y-137985029D01*
D34*
X29482446Y-5710029D02*
X29482446Y-5865029D01*
D33*
X245162446Y-42985029D02*
X242962446Y-42985029D01*
X167062446Y-42735029D02*
X166912446Y-42885029D01*
X290237446Y-100285029D02*
X288012446Y-100285029D01*
X32459946Y-710027D02*
X32937448Y-710027D01*
X318112446Y-100235029D02*
X318062446Y-100185029D01*
X35437446Y-41985029D02*
X33262446Y-41985029D01*
X318512446Y-81235029D02*
X318312446Y-81435029D01*
X109712446Y-42485029D02*
X109612446Y-42585029D01*
X271812446Y-81435029D02*
X271662446Y-81585029D01*
X190262446Y-119535029D02*
X190162446Y-119435029D01*
X54662446Y-61735029D02*
X52812446Y-61735029D01*
X171812446Y-119485029D02*
X171662446Y-119335029D01*
X59912446Y-138685029D02*
X59812446Y-138585029D01*
X82962446Y-81235029D02*
X81012446Y-81235029D01*
X49112446Y-16010029D02*
X50699946Y-17597529D01*
X320162446Y-100235029D02*
X318112446Y-100235029D01*
X219312446Y-100435029D02*
X219162446Y-100285029D01*
D34*
X44162446Y3564971D02*
X47812446Y3564971D01*
D33*
X320837446Y-138385029D02*
X319062446Y-138385029D01*
X69864947Y-5942529D02*
X69864946Y-4960029D01*
X231037446Y-119485029D02*
X228762446Y-119485029D01*
X71962446Y-42485029D02*
X71812446Y-42635029D01*
X42162446Y-20810029D02*
X46687446Y-16285029D01*
X92937446Y-62235029D02*
X91112446Y-62235029D01*
X42104943Y1434722D02*
X42104943Y1957468D01*
X244637446Y-138685029D02*
X242762446Y-138685029D01*
X292412446Y-62235029D02*
X290662446Y-62235029D01*
X261862446Y-138485029D02*
X261562446Y-138185029D01*
D34*
X31167446Y-5710029D02*
X32062446Y-4815029D01*
D33*
X148162446Y-62235029D02*
X148112446Y-62185029D01*
X59019947Y-287522D02*
X59019947Y694969D01*
X68434946Y2642471D02*
X66012446Y2642471D01*
D34*
X57962446Y3564971D02*
X59019949Y2507468D01*
D33*
X43637446Y-100285029D02*
X41212446Y-100285029D01*
X120962446Y-81235029D02*
X118962446Y-81235029D01*
X187687446Y-42735029D02*
X185812446Y-42735029D01*
X62512446Y-81485029D02*
X62262446Y-81235029D01*
X35712446Y-137985029D02*
X35212446Y-137485029D01*
X301637446Y-119485029D02*
X299562446Y-119485029D01*
X204862446Y-62235029D02*
X204762446Y-62135029D01*
X102187446Y-81235029D02*
X100112446Y-81235029D01*
X69864946Y-4960029D02*
X69864946Y-3960030D01*
X73437446Y-42485029D02*
X71962446Y-42485029D01*
X87912446Y-100435029D02*
X86094973Y-100435029D01*
D34*
X29482446Y789971D02*
X29482446Y944971D01*
D33*
X238012446Y-100485029D02*
X237812446Y-100285029D01*
X252662446Y-81235029D02*
X252612446Y-81285029D01*
X302137446Y-138585029D02*
X300112446Y-138585029D01*
X300262446Y-42985029D02*
X300212446Y-42935029D01*
X95162446Y-119435029D02*
X95062446Y-119535029D01*
X39112446Y-79885029D02*
X37312446Y-79885029D01*
X73662446Y-61985029D02*
X71912446Y-61985029D01*
X206662446Y-42985029D02*
X204912446Y-42985029D01*
X104762446Y-100435029D02*
X104662446Y-100335029D01*
X256862446Y-100485029D02*
X256812446Y-100435029D01*
X52312446Y-42485029D02*
X52162446Y-42635029D01*
X69864947Y1212470D02*
X68434946Y2642471D01*
X273512446Y-81435029D02*
X271812446Y-81435029D01*
X32937448Y-710027D02*
X34212446Y564971D01*
D34*
X29482446Y789971D02*
X36787446Y789971D01*
D33*
X300112446Y-138585029D02*
X299962446Y-138435029D01*
X41212446Y-100285029D02*
X40062446Y-99135029D01*
X195362446Y-81435029D02*
X195312446Y-81485029D01*
X224212446Y-62235029D02*
X224112446Y-62135029D01*
X154962446Y-138685029D02*
X154862446Y-138585029D01*
X114462446Y-119485029D02*
X114412446Y-119435029D01*
X176762446Y-81235029D02*
X176712446Y-81185029D01*
D34*
X43528070Y3380595D02*
X45484943Y1423722D01*
D33*
X66562446Y-100435029D02*
X66462446Y-100335029D01*
X46812446Y-119235029D02*
X44762446Y-117185029D01*
X50699946Y-17597529D02*
X50712446Y-17610029D01*
D34*
X36787446Y789971D02*
X39562446Y3564971D01*
D33*
X240437446Y-100485029D02*
X238012446Y-100485029D01*
X100112446Y-81235029D02*
X100062446Y-81185029D01*
X71912446Y-61985029D02*
X71812446Y-62085029D01*
X129212446Y-42485029D02*
X129112446Y-42585029D01*
X43772441Y-14200034D02*
X41962446Y-16010029D01*
X78312446Y-119435029D02*
X76662446Y-119435029D01*
D34*
X29482446Y944971D02*
G75*
G03*
X28567446Y1860046I-915046J29D01*
G01*
X29482446Y-5865029D02*
G75*
G02*
X28567446Y-6780046I-915046J29D01*
G01*
D35*
%TO.N,+3.3V*%
X59099946Y-1210029D02*
X58407442Y-1210029D01*
D36*
X57871191Y-476278D02*
X58059947Y-287522D01*
D35*
X68227084Y-5197175D02*
X68266602Y-5185101D01*
D36*
X68904946Y-5942528D02*
X68904947Y-5942529D01*
X46989943Y-476278D02*
X57871191Y-476278D01*
D35*
X60512445Y-9602530D02*
X59529949Y-9602530D01*
X68173058Y-5206999D02*
X68227084Y-5197175D01*
D36*
X68904947Y-1210030D02*
X68904946Y-1210031D01*
D35*
X58059948Y1682471D02*
X58059948Y694975D01*
X58059953Y-287515D02*
X58059948Y-287520D01*
X68904947Y-5942530D02*
X68904947Y-6652529D01*
X60512446Y-8122529D02*
X60512446Y-9602530D01*
D36*
X58982454Y-1210029D02*
X59099946Y-1210029D01*
D35*
X68904944Y-1210029D02*
X68904945Y-1210028D01*
X68904946Y-4960029D02*
X68904947Y-5942529D01*
X58059953Y694970D02*
X58059953Y-287515D01*
D36*
X68904946Y-4960029D02*
X68904946Y-5942528D01*
D35*
X46549947Y-5822524D02*
X47699943Y-5822524D01*
X68295300Y-5173211D02*
X68316055Y-5162546D01*
X58059948Y694975D02*
X58059953Y694970D01*
X45484943Y-476278D02*
X46989943Y-476278D01*
D36*
X68654946Y-5210029D02*
X67424946Y-5210029D01*
D35*
X68266602Y-5185101D02*
X68295300Y-5173211D01*
X59529945Y-9602537D02*
X58819943Y-9602537D01*
D36*
X67424946Y-1210029D02*
X68904946Y-1210029D01*
D35*
X58059948Y-287520D02*
X58059948Y-862535D01*
X66012446Y1682471D02*
X66722446Y1682471D01*
X67424946Y-5210029D02*
X68100261Y-5210029D01*
X59529949Y-9602530D02*
X59529945Y-9602528D01*
D36*
X58059947Y-287522D02*
X58059947Y694969D01*
X58059947Y-287522D02*
X58982454Y-1210029D01*
D35*
X46549947Y-12122529D02*
X46549947Y-5822529D01*
D36*
X68904946Y-1210029D02*
X68904947Y-1210030D01*
X60512446Y-8122529D02*
X60512446Y-9602527D01*
X58059947Y694969D02*
X58059949Y694971D01*
D35*
X68904948Y-1210028D02*
X68904948Y-500029D01*
X67424946Y-1210029D02*
X68904944Y-1210029D01*
D36*
X68904946Y-4960029D02*
X68654946Y-5210029D01*
D35*
X68100261Y-5210029D02*
X68173058Y-5206999D01*
X68804974Y-4960029D02*
X68904946Y-4960029D01*
D36*
X66012446Y202471D02*
X66012446Y1682471D01*
D35*
X46989943Y-476278D02*
X47699943Y-476278D01*
X66012446Y202471D02*
X66012446Y1682471D01*
D36*
X46989943Y-476278D02*
X45484943Y-476278D01*
D35*
X68316055Y-5162546D02*
G75*
G02*
X68804974Y-4960021I488945J-488954D01*
G01*
X58059948Y-862535D02*
G75*
G03*
X58407442Y-1209952I347452J35D01*
G01*
D33*
%TO.N,+5V*%
X83812446Y-120885029D02*
X83762446Y-120935029D01*
X248062446Y-102085029D02*
X245987446Y-102085029D01*
X219612446Y-121035029D02*
X217737446Y-121035029D01*
X43662446Y-140260029D02*
X42887446Y-139485029D01*
D34*
X42104943Y474722D02*
X43608943Y474722D01*
D33*
X74362446Y-101935029D02*
X76212446Y-101935029D01*
X145737446Y-83085029D02*
X145637446Y-82985029D01*
X264537446Y-102035029D02*
X264487446Y-101985029D01*
X269637446Y-63485029D02*
X271312446Y-63485029D01*
X184287446Y-82885029D02*
X184137446Y-82735029D01*
X325612446Y-101735029D02*
X325612446Y-102635029D01*
X229362446Y-101935029D02*
X229412446Y-101885029D01*
X281162446Y-82885029D02*
X279012446Y-82885029D01*
X107787446Y-82885029D02*
X107637446Y-82735029D01*
X325612446Y-102635029D02*
X325212446Y-103035029D01*
X141062446Y-120985029D02*
X141012446Y-120935029D01*
X305212446Y-82885029D02*
X303387446Y-82885029D01*
X327412446Y-62985029D02*
X325662446Y-62985029D01*
X136137446Y-63485029D02*
X137912446Y-63485029D01*
X41762446Y-43485029D02*
X42462446Y-44185029D01*
X48062446Y-82585029D02*
X45762446Y-82585029D01*
X85512446Y-120885029D02*
X83812446Y-120885029D01*
X260062446Y-82835029D02*
X259962446Y-82735029D01*
X178937446Y-121035029D02*
X178887446Y-120985029D01*
X121737446Y-121035029D02*
X121687446Y-120985029D01*
X155637446Y-63735029D02*
X157112446Y-63735029D01*
X78887446Y-43985029D02*
X80662446Y-43985029D01*
X199412446Y-121035029D02*
X197562446Y-121035029D01*
X262112446Y-82835029D02*
X260062446Y-82835029D01*
X123762446Y-121035029D02*
X121737446Y-121035029D01*
X157112446Y-63735029D02*
X157162446Y-63785029D01*
X104212446Y-120885029D02*
X102262446Y-120885029D01*
X326612446Y-44485029D02*
X328212446Y-44485029D01*
X155137446Y-44235029D02*
X157562446Y-44235029D01*
X162387446Y-140285029D02*
X162287446Y-140185029D01*
X68812446Y-140285029D02*
X66987446Y-140285029D01*
X231162446Y-44485029D02*
X233162446Y-44485029D01*
X43662446Y-141085029D02*
X43662446Y-140260029D01*
X328012446Y-140085029D02*
X326487446Y-140085029D01*
X164812446Y-140285029D02*
X162387446Y-140285029D01*
X98387446Y-63735029D02*
X100062446Y-63735029D01*
X170212446Y-101785029D02*
X170162446Y-101735029D01*
X297912446Y-101885029D02*
X295787446Y-101885029D01*
X233512446Y-140185029D02*
X231287446Y-140185029D01*
X290112446Y-140435029D02*
X288137446Y-140435029D01*
X271662446Y-140235029D02*
X269437446Y-140235029D01*
X245987446Y-102085029D02*
X245887446Y-101985029D01*
X224112446Y-83035029D02*
X222062446Y-83035029D01*
X297862446Y-63735029D02*
X299712446Y-63735029D01*
X114562446Y-101935029D02*
X112562446Y-101935029D01*
X309762446Y-140285029D02*
X307787446Y-140285029D01*
X180762446Y-121035029D02*
X178937446Y-121035029D01*
X161812446Y-120985029D02*
X159887446Y-120985029D01*
X134062446Y-101885029D02*
X131987446Y-101885029D01*
X227562446Y-101935029D02*
X229362446Y-101935029D01*
X307787446Y-140285029D02*
X307587446Y-140085029D01*
D34*
X42103445Y476220D02*
X42104943Y474722D01*
D33*
X98112446Y-44235029D02*
X100012446Y-44235029D01*
X186412446Y-82885029D02*
X184287446Y-82885029D01*
X61662446Y-43985029D02*
X61712446Y-44035029D01*
X326487446Y-140085029D02*
X326287446Y-139885029D01*
X266562446Y-102035029D02*
X264537446Y-102035029D01*
X138062446Y-43985029D02*
X138112446Y-43935029D01*
X164512446Y-82835029D02*
X164412446Y-82735029D01*
X117112446Y-43985029D02*
X118962446Y-43985029D01*
X238352257Y-120991771D02*
X236494188Y-120991771D01*
X231287446Y-140185029D02*
X231087446Y-139985029D01*
X214262446Y-63735029D02*
X214312446Y-63685029D01*
X131987446Y-101885029D02*
X131887446Y-101785029D01*
X137912446Y-63485029D02*
X138062446Y-63635029D01*
X303387446Y-82885029D02*
X303287446Y-82985029D01*
X283462446Y-121035029D02*
X281637446Y-121035029D01*
X126462446Y-82785029D02*
X126412446Y-82735029D01*
D34*
X40852443Y476220D02*
X42103445Y476220D01*
D33*
X95262446Y-101935029D02*
X93362446Y-101935029D01*
X41112446Y-63235029D02*
X44112446Y-63235029D01*
D34*
X40852443Y476220D02*
X40852443Y-425026D01*
D33*
X63312446Y-63235029D02*
X63362446Y-63285029D01*
X79112446Y-63485029D02*
X81162446Y-63485029D01*
X309112446Y-120985029D02*
X307087446Y-120985029D01*
X142912446Y-120985029D02*
X141062446Y-120985029D01*
X269437446Y-140235029D02*
X269187446Y-139985029D01*
X209512446Y-101985029D02*
X207687446Y-101985029D01*
X90762446Y-82885029D02*
X88562446Y-82885029D01*
X128562446Y-82785029D02*
X126462446Y-82785029D01*
X250612446Y-44485029D02*
X252462446Y-44485029D01*
X117137446Y-63735029D02*
X118812446Y-63735029D01*
X54312446Y-120735029D02*
X52562446Y-120735029D01*
X234012446Y-63735029D02*
X234062446Y-63685029D01*
X252562446Y-140235029D02*
X250137446Y-140235029D01*
X176512446Y-63735029D02*
X176562446Y-63785029D01*
X326637446Y-120935029D02*
X326487446Y-120785029D01*
X150786491Y-101910984D02*
X150762446Y-101935029D01*
X71862446Y-82985029D02*
X69612446Y-82985029D01*
X307387446Y-44485029D02*
X309212446Y-44485029D01*
X327312446Y-82785029D02*
X325812446Y-82785029D01*
X325812446Y-82785029D02*
X325762446Y-82735029D01*
X281637446Y-121035029D02*
X281487446Y-121185029D01*
X81162446Y-63485029D02*
X81212446Y-63535029D01*
X212137446Y-63735029D02*
X214262446Y-63735029D01*
X190562446Y-102035029D02*
X188862446Y-102035029D01*
X236494188Y-120991771D02*
X236487446Y-120985029D01*
X174387446Y-44235029D02*
X176312446Y-44235029D01*
X250137446Y-140235029D02*
X250087446Y-140185029D01*
X174137446Y-63735029D02*
X176512446Y-63735029D01*
X295787446Y-101885029D02*
X295687446Y-101785029D01*
X44112446Y-63235029D02*
X44212446Y-63335029D01*
X40887446Y-43485029D02*
X41762446Y-43485029D01*
X188862446Y-102035029D02*
X188762446Y-101935029D01*
D34*
X40852443Y-425026D02*
X41062446Y-635029D01*
X43608943Y474722D02*
X43609943Y473722D01*
D33*
X288137446Y-140435029D02*
X287887446Y-140185029D01*
X193137446Y-44235029D02*
X195112446Y-44235029D01*
X271312446Y-63485029D02*
X271362446Y-63535029D01*
X93362446Y-140285029D02*
X91162446Y-140285029D01*
X152910412Y-101910984D02*
X150786491Y-101910984D01*
X147662446Y-83085029D02*
X145737446Y-83085029D01*
X253012446Y-63735029D02*
X253062446Y-63685029D01*
X250412446Y-63735029D02*
X253012446Y-63735029D01*
X288387446Y-43985029D02*
X290162446Y-43985029D01*
X91162446Y-140285029D02*
X91012446Y-140135029D01*
X88562446Y-82885029D02*
X88412446Y-82735029D01*
X66987446Y-140285029D02*
X66887446Y-140185029D01*
X204641485Y-82953349D02*
X202780766Y-82953349D01*
X233162446Y-44485029D02*
X233212446Y-44535029D01*
X212112446Y-44485029D02*
X214112446Y-44485029D01*
X109862446Y-82885029D02*
X107787446Y-82885029D01*
X271162446Y-44235029D02*
X271212446Y-44285029D01*
X328362446Y-120935029D02*
X326637446Y-120935029D01*
X202780766Y-82953349D02*
X202762446Y-82935029D01*
X269387446Y-44235029D02*
X271162446Y-44235029D01*
X60112446Y-63235029D02*
X63312446Y-63235029D01*
X193137446Y-63735029D02*
X195462446Y-63735029D01*
X51112446Y-101785029D02*
X49087446Y-101785029D01*
X102262446Y-120885029D02*
X102212446Y-120935029D01*
X166412446Y-82835029D02*
X164512446Y-82835029D01*
X256612446Y-120735029D02*
X254762446Y-120735029D01*
X217737446Y-121035029D02*
X217687446Y-120985029D01*
X214112446Y-44485029D02*
X214162446Y-44435029D01*
X242962446Y-82935029D02*
X240962446Y-82935029D01*
X222062446Y-83035029D02*
X221962446Y-82935029D01*
X279012446Y-82885029D02*
X278962446Y-82935029D01*
X45762446Y-82585029D02*
X45662446Y-82485029D01*
X136162446Y-43985029D02*
X138062446Y-43985029D01*
X172212446Y-101785029D02*
X170212446Y-101785029D01*
X59887446Y-43985029D02*
X61662446Y-43985029D01*
X231412446Y-63735029D02*
X234012446Y-63735029D01*
D34*
%TO.N,VBUS*%
X38399946Y-2960029D02*
X39037446Y-2960029D01*
X29482446Y-10029D02*
X30707446Y-10029D01*
X29482446Y-4910029D02*
X30707446Y-4910029D01*
X38399946Y-2960029D02*
X37237446Y-2960029D01*
X40852443Y2051220D02*
X40187822Y2051220D01*
X39537446Y-2460029D02*
X39550324Y1413722D01*
X39037446Y-2960029D02*
G75*
G03*
X39537429Y-2460029I-46J500029D01*
G01*
X40187822Y2051220D02*
G75*
G03*
X39550280Y1413722I-22J-637520D01*
G01*
D36*
%TO.N,/USB_D+*%
X35737446Y-2710029D02*
X36283893Y-2710029D01*
X29482446Y-2710029D02*
X30457446Y-2710029D01*
X30707446Y-1960029D02*
X30707446Y-2460029D01*
X30971712Y-2709328D02*
X35735754Y-2709328D01*
X29482446Y-1710029D02*
X30457446Y-1710029D01*
X35735754Y-2709328D02*
X35737446Y-2710029D01*
X37973842Y-2010029D02*
X38399946Y-2010029D01*
X30957446Y-2710029D02*
X30971712Y-2709328D01*
X36283893Y-2710029D02*
G75*
G03*
X36887445Y-2460028I7J853529D01*
G01*
X30457446Y-1710029D02*
G75*
G02*
X30707371Y-1960029I-46J-249971D01*
G01*
X36887446Y-2460029D02*
G75*
G02*
X37973842Y-2010051I1086354J-1086371D01*
G01*
%TO.N,Net-(J1-CC1)*%
X29482446Y-3710029D02*
X31857238Y-3710029D01*
X31857238Y-3710029D02*
G75*
G02*
X32062419Y-3795056I-38J-290171D01*
G01*
%TO.N,/USB_D-*%
X38399946Y-3910029D02*
X37973842Y-3910029D01*
X36283893Y-3210029D02*
X29482446Y-3210029D01*
X28707446Y-2210029D02*
X29482446Y-2210029D01*
X29482446Y-3210029D02*
X28707446Y-3210029D01*
X28707446Y-3210029D02*
G75*
G02*
X28207371Y-2710029I-46J500029D01*
G01*
X37973842Y-3910029D02*
G75*
G02*
X36887418Y-3460057I-42J1536429D01*
G01*
X36887446Y-3460029D02*
G75*
G03*
X36283893Y-3210039I-603546J-603571D01*
G01*
X28207446Y-2710029D02*
G75*
G02*
X28707446Y-2210046I499954J29D01*
G01*
%TO.N,Net-(J1-CC2)*%
X29482446Y-710029D02*
X31439942Y-710029D01*
X31439942Y-710029D02*
X31439946Y-710027D01*
%TO.N,Net-(D1-A)*%
X40640000Y-38270000D02*
X43180000Y-40810000D01*
X40640000Y-33020000D02*
X40640000Y-38270000D01*
%TO.N,Row_0*%
X43180000Y-41450000D02*
X62230000Y-41450000D01*
X42777417Y-41450000D02*
X43180000Y-41450000D01*
X252730000Y-41450000D02*
X271780000Y-41450000D01*
X24287446Y-39335029D02*
X25403417Y-40451000D01*
X62230000Y-41450000D02*
X81280000Y-41450000D01*
X214630000Y-41450000D02*
X233680000Y-41450000D01*
X290830000Y-41450000D02*
X309880000Y-41450000D01*
X41778417Y-40451000D02*
X42777417Y-41450000D01*
X195580000Y-41450000D02*
X214630000Y-41450000D01*
X63512446Y-10060029D02*
X65037446Y-11585029D01*
X271780000Y-41450000D02*
X290830000Y-41450000D01*
X100330000Y-41450000D02*
X119380000Y-41450000D01*
X157480000Y-41450000D02*
X176530000Y-41450000D01*
X309880000Y-41450000D02*
X328930000Y-41450000D01*
X138430000Y-41450000D02*
X157480000Y-41450000D01*
X63512446Y-8122529D02*
X63512446Y-10060029D01*
X81280000Y-41450000D02*
X100330000Y-41450000D01*
X176530000Y-41450000D02*
X195580000Y-41450000D01*
X119380000Y-41450000D02*
X138430000Y-41450000D01*
X65037446Y-11635029D02*
X65687446Y-11635029D01*
X66587446Y-12535029D02*
X67287446Y-12535029D01*
X233680000Y-41450000D02*
X252730000Y-41450000D01*
X65687446Y-11635029D02*
X66587446Y-12535029D01*
X65037446Y-11585029D02*
X65037446Y-11635029D01*
X25403417Y-40451000D02*
X41778417Y-40451000D01*
%TO.N,Net-(D2-A)*%
X59690000Y-33020000D02*
X59690000Y-38270000D01*
X59690000Y-38270000D02*
X62230000Y-40810000D01*
%TO.N,Net-(D3-A)*%
X78740000Y-33020000D02*
X78740000Y-38270000D01*
X78740000Y-38270000D02*
X81280000Y-40810000D01*
%TO.N,Net-(D4-A)*%
X97790000Y-33020000D02*
X97790000Y-38270000D01*
X97790000Y-38270000D02*
X100330000Y-40810000D01*
%TO.N,Net-(D5-A)*%
X116840000Y-38270000D02*
X119380000Y-40810000D01*
X116840000Y-33020000D02*
X116840000Y-38270000D01*
%TO.N,Net-(D6-A)*%
X135890000Y-33020000D02*
X135890000Y-38270000D01*
X135890000Y-38270000D02*
X138430000Y-40810000D01*
%TO.N,Net-(D7-A)*%
X154940000Y-33020000D02*
X154940000Y-38270000D01*
X154940000Y-38270000D02*
X157480000Y-40810000D01*
%TO.N,/MCU_D-*%
X40674946Y-3910029D02*
X41101050Y-3910029D01*
X48345472Y-3210029D02*
X59099946Y-3210029D01*
X42791004Y-3210027D02*
X48345470Y-3210027D01*
X48345470Y-3210027D02*
X48345472Y-3210029D01*
X41101050Y-3910029D02*
G75*
G03*
X42187478Y-3460061I50J1536429D01*
G01*
X42187446Y-3460029D02*
G75*
G02*
X42791004Y-3210034I603554J-603571D01*
G01*
%TO.N,/MCU_D+*%
X48345472Y-2710029D02*
X59099946Y-2710029D01*
X42790994Y-2710027D02*
X48345470Y-2710027D01*
X48345470Y-2710027D02*
X48345472Y-2710029D01*
X40674946Y-2010029D02*
X41101050Y-2010029D01*
X41101050Y-2010029D02*
G75*
G02*
X42187416Y-2460059I-50J-1536371D01*
G01*
X42187446Y-2460029D02*
G75*
G03*
X42790994Y-2710037I603554J603529D01*
G01*
%TO.N,/NRST*%
X68301396Y-4210029D02*
X67424946Y-4210029D01*
X68904946Y-3960030D02*
G75*
G02*
X68301396Y-4210032I-603546J603530D01*
G01*
%TO.N,/BOOT0*%
X63599946Y-4210029D02*
X60599946Y-4210029D01*
X42749947Y-5822529D02*
X42749947Y-4584219D01*
X64012446Y202471D02*
X64012446Y-3797529D01*
X42749944Y-12122535D02*
X42749938Y-13752530D01*
X48349943Y-4210029D02*
X43112446Y-4221720D01*
X42749947Y-5822529D02*
X42749947Y-12122529D01*
X42749947Y-4584219D02*
G75*
G02*
X43112446Y-4221747I362453J19D01*
G01*
X64012446Y-3797529D02*
G75*
G02*
X63599946Y-4210046I-412546J29D01*
G01*
%TO.N,Net-(D8-A)*%
X173990000Y-38270000D02*
X176530000Y-40810000D01*
X173990000Y-33020000D02*
X173990000Y-38270000D01*
%TO.N,Net-(D9-A)*%
X193040000Y-38270000D02*
X195580000Y-40810000D01*
X193040000Y-33020000D02*
X193040000Y-38270000D01*
%TO.N,Net-(D10-A)*%
X212090000Y-38270000D02*
X214630000Y-40810000D01*
X212090000Y-33020000D02*
X212090000Y-38270000D01*
%TO.N,Net-(D11-A)*%
X231140000Y-38270000D02*
X233680000Y-40810000D01*
X231140000Y-33020000D02*
X231140000Y-38270000D01*
%TO.N,Net-(D12-A)*%
X250190000Y-33020000D02*
X250190000Y-38270000D01*
X250190000Y-38270000D02*
X252730000Y-40810000D01*
%TO.N,Net-(D13-A)*%
X269240000Y-38270000D02*
X271780000Y-40810000D01*
X269240000Y-33020000D02*
X269240000Y-38270000D01*
%TO.N,Net-(D14-A)*%
X288290000Y-33020000D02*
X288290000Y-38270000D01*
X288290000Y-38270000D02*
X290830000Y-40810000D01*
%TO.N,Net-(D15-A)*%
X307340000Y-38270000D02*
X309880000Y-40810000D01*
X307340000Y-33020000D02*
X307340000Y-38270000D01*
%TO.N,Net-(D16-A)*%
X326390000Y-38270000D02*
X328930000Y-40810000D01*
X326390000Y-33020000D02*
X326390000Y-38270000D01*
%TO.N,Net-(D17-A)*%
X40640000Y-52070000D02*
X40640000Y-57320000D01*
X40640000Y-57320000D02*
X43180000Y-59860000D01*
%TO.N,Row_1*%
X42827184Y-60500000D02*
X43180000Y-60500000D01*
X65487446Y-12135029D02*
X66736446Y-13384029D01*
X119380000Y-60500000D02*
X138430000Y-60500000D01*
X42087213Y-59760029D02*
X42827184Y-60500000D01*
X64560446Y-12133029D02*
X65360446Y-12133029D01*
X43180000Y-60500000D02*
X62230000Y-60500000D01*
X66861389Y-13384029D02*
X67213446Y-13736086D01*
X67213446Y-13861029D02*
X67287446Y-13935029D01*
X65362446Y-12135029D02*
X65487446Y-12135029D01*
X64560446Y-12133029D02*
X64619646Y-12133029D01*
X214630000Y-60500000D02*
X233680000Y-60500000D01*
X63012446Y-8122529D02*
X63012446Y-10585029D01*
X81280000Y-60500000D02*
X100330000Y-60500000D01*
X176530000Y-60500000D02*
X195580000Y-60500000D01*
X252730000Y-60500000D02*
X271780000Y-60500000D01*
X65360446Y-12133029D02*
X65362446Y-12135029D01*
X195580000Y-60500000D02*
X214630000Y-60500000D01*
X67213446Y-13736086D02*
X67213446Y-13861029D01*
X271780000Y-60500000D02*
X300355000Y-60500000D01*
X138430000Y-60500000D02*
X157480000Y-60500000D01*
X233680000Y-60500000D02*
X252730000Y-60500000D01*
X157480000Y-60500000D02*
X176530000Y-60500000D01*
X62230000Y-60500000D02*
X81280000Y-60500000D01*
X66736446Y-13384029D02*
X66861389Y-13384029D01*
X63012446Y-10585029D02*
X64560446Y-12133029D01*
X100330000Y-60500000D02*
X119380000Y-60500000D01*
X28162446Y-59760029D02*
X42087213Y-59760029D01*
X67287446Y-13935029D02*
X67787446Y-13935029D01*
%TO.N,Net-(D18-A)*%
X59690000Y-57320000D02*
X62230000Y-59860000D01*
X59690000Y-52070000D02*
X59690000Y-57320000D01*
%TO.N,Net-(D19-A)*%
X78740000Y-57320000D02*
X81280000Y-59860000D01*
X78740000Y-52070000D02*
X78740000Y-57320000D01*
%TO.N,Net-(D20-A)*%
X97790000Y-57320000D02*
X100330000Y-59860000D01*
X97790000Y-52070000D02*
X97790000Y-57320000D01*
%TO.N,Net-(D21-A)*%
X116840000Y-57320000D02*
X119380000Y-59860000D01*
X116840000Y-52070000D02*
X116840000Y-57320000D01*
%TO.N,Net-(D22-A)*%
X135890000Y-57320000D02*
X138430000Y-59860000D01*
X135890000Y-52070000D02*
X135890000Y-57320000D01*
%TO.N,Net-(D23-A)*%
X154940000Y-57320000D02*
X157480000Y-59860000D01*
X154940000Y-52070000D02*
X154940000Y-57320000D01*
%TO.N,Net-(D24-A)*%
X173990000Y-52070000D02*
X173990000Y-57320000D01*
X173990000Y-57320000D02*
X176530000Y-59860000D01*
%TO.N,Net-(D25-A)*%
X193040000Y-57320000D02*
X195580000Y-59860000D01*
X193040000Y-52070000D02*
X193040000Y-57320000D01*
%TO.N,Net-(D26-A)*%
X212090000Y-57320000D02*
X214630000Y-59860000D01*
X212090000Y-52070000D02*
X212090000Y-57320000D01*
%TO.N,Net-(D27-A)*%
X231140000Y-57320000D02*
X233680000Y-59860000D01*
X231140000Y-52070000D02*
X231140000Y-57320000D01*
%TO.N,Net-(D28-A)*%
X250190000Y-57320000D02*
X252730000Y-59860000D01*
X250190000Y-52070000D02*
X250190000Y-57320000D01*
%TO.N,Net-(D29-A)*%
X269240000Y-52070000D02*
X269240000Y-57320000D01*
X269240000Y-57320000D02*
X271780000Y-59860000D01*
%TO.N,Net-(D30-A)*%
X297815000Y-52070000D02*
X297815000Y-57320000D01*
X297815000Y-57320000D02*
X300355000Y-59860000D01*
%TO.N,Net-(D31-A)*%
X326390000Y-52070000D02*
X326390000Y-57320000D01*
X326390000Y-57320000D02*
X328930000Y-59860000D01*
%TO.N,Row_2*%
X224155000Y-79550000D02*
X243205000Y-79550000D01*
X42799336Y-79471919D02*
X47864419Y-79471919D01*
X71755000Y-79550000D02*
X90805000Y-79550000D01*
X128905000Y-79550000D02*
X147955000Y-79550000D01*
X40753417Y-77426000D02*
X42799336Y-79471919D01*
X311847475Y-79550000D02*
X328930000Y-62467475D01*
X205105000Y-79550000D02*
X224155000Y-79550000D01*
X305117500Y-79550000D02*
X311847475Y-79550000D01*
X65962446Y-13560029D02*
X64936446Y-12534029D01*
X30937446Y-77385029D02*
X30978417Y-77426000D01*
X262255000Y-79550000D02*
X281305000Y-79550000D01*
X64936446Y-12534029D02*
X63786446Y-12534029D01*
X328930000Y-62467475D02*
X328930000Y-60500000D01*
X30978417Y-77426000D02*
X40753417Y-77426000D01*
X66612446Y-13985029D02*
X66187446Y-13560029D01*
X281305000Y-79550000D02*
X305117500Y-79550000D01*
X167005000Y-79550000D02*
X186055000Y-79550000D01*
X62512446Y-11260029D02*
X62512446Y-8122529D01*
X243205000Y-79550000D02*
X262255000Y-79550000D01*
X147955000Y-79550000D02*
X167005000Y-79550000D01*
X66187446Y-13560029D02*
X65962446Y-13560029D01*
X63786446Y-12534029D02*
X62512446Y-11260029D01*
X47942500Y-79550000D02*
X71755000Y-79550000D01*
X186055000Y-79550000D02*
X205105000Y-79550000D01*
X47864419Y-79471919D02*
X47942500Y-79550000D01*
X109855000Y-79550000D02*
X128905000Y-79550000D01*
X90805000Y-79550000D02*
X109855000Y-79550000D01*
%TO.N,Net-(D32-A)*%
X45402500Y-76370000D02*
X47942500Y-78910000D01*
X45402500Y-71120000D02*
X45402500Y-76370000D01*
%TO.N,Net-(D33-A)*%
X69215000Y-76370000D02*
X71755000Y-78910000D01*
X69215000Y-71120000D02*
X69215000Y-76370000D01*
%TO.N,Net-(D34-A)*%
X88265000Y-71120000D02*
X88265000Y-76370000D01*
X88265000Y-76370000D02*
X90805000Y-78910000D01*
%TO.N,Net-(D35-A)*%
X107315000Y-71120000D02*
X107315000Y-76370000D01*
X107315000Y-76370000D02*
X109855000Y-78910000D01*
%TO.N,Net-(D36-A)*%
X126365000Y-71120000D02*
X126365000Y-76370000D01*
X126365000Y-76370000D02*
X128905000Y-78910000D01*
%TO.N,Net-(D37-A)*%
X145415000Y-71120000D02*
X145415000Y-76370000D01*
X145415000Y-76370000D02*
X147955000Y-78910000D01*
%TO.N,Net-(D38-A)*%
X164465000Y-71120000D02*
X164465000Y-76370000D01*
X164465000Y-76370000D02*
X167005000Y-78910000D01*
%TO.N,Net-(D39-A)*%
X183515000Y-76370000D02*
X186055000Y-78910000D01*
X183515000Y-71120000D02*
X183515000Y-76370000D01*
%TO.N,Net-(D40-A)*%
X202565000Y-76370000D02*
X205105000Y-78910000D01*
X202565000Y-71120000D02*
X202565000Y-76370000D01*
%TO.N,Net-(D41-A)*%
X221615000Y-71120000D02*
X221615000Y-76370000D01*
X221615000Y-76370000D02*
X224155000Y-78910000D01*
%TO.N,Net-(D42-A)*%
X240665000Y-71120000D02*
X240665000Y-76370000D01*
X240665000Y-76370000D02*
X243205000Y-78910000D01*
%TO.N,Net-(D43-A)*%
X259715000Y-76370000D02*
X262255000Y-78910000D01*
X259715000Y-71120000D02*
X259715000Y-76370000D01*
%TO.N,Net-(D44-A)*%
X278765000Y-71120000D02*
X278765000Y-76370000D01*
X278765000Y-76370000D02*
X281305000Y-78910000D01*
%TO.N,Net-(D45-A)*%
X302577500Y-71120000D02*
X302577500Y-76370000D01*
X302577500Y-76370000D02*
X305117500Y-78910000D01*
%TO.N,Net-(D46-A)*%
X326390000Y-71120000D02*
X326390000Y-76370000D01*
X326390000Y-76370000D02*
X328930000Y-78910000D01*
%TO.N,Row_3*%
X297973750Y-98600000D02*
X312797475Y-98600000D01*
X152717500Y-98600000D02*
X171767500Y-98600000D01*
X22362446Y5089971D02*
X20062446Y2789971D01*
X209867500Y-98600000D02*
X228917500Y-98600000D01*
X26062446Y-94110029D02*
X35887389Y-94110029D01*
X318489000Y-92067554D02*
X319397554Y-91159000D01*
X76517500Y-98600000D02*
X95567500Y-98600000D01*
X267017500Y-98600000D02*
X297973750Y-98600000D01*
X247967500Y-98600000D02*
X267017500Y-98600000D01*
X61512446Y202471D02*
X61512446Y1739971D01*
X35887389Y-94110029D02*
X40377360Y-98600000D01*
X171767500Y-98600000D02*
X190817500Y-98600000D01*
X61512446Y1739971D02*
X58162446Y5089971D01*
X50323750Y-98600000D02*
X76517500Y-98600000D01*
X20062446Y2789971D02*
X20062446Y-88085029D01*
X133667500Y-98600000D02*
X152717500Y-98600000D01*
X228917500Y-98600000D02*
X247967500Y-98600000D01*
X40377360Y-98600000D02*
X50323750Y-98600000D01*
X318489000Y-92908475D02*
X318489000Y-92067554D01*
X319397554Y-91159000D02*
X320238475Y-91159000D01*
X312797475Y-98600000D02*
X318489000Y-92908475D01*
X58162446Y5089971D02*
X22362446Y5089971D01*
X95567500Y-98600000D02*
X114617500Y-98600000D01*
X114617500Y-98600000D02*
X133667500Y-98600000D01*
X190817500Y-98600000D02*
X209867500Y-98600000D01*
X320238475Y-91159000D02*
X328930000Y-82467475D01*
X20087446Y-88135029D02*
X26062446Y-94110029D01*
X20012446Y-88135029D02*
X20087446Y-88135029D01*
X20062446Y-88085029D02*
X20012446Y-88135029D01*
X328930000Y-82467475D02*
X328930000Y-79550000D01*
%TO.N,Net-(D47-A)*%
X47783750Y-95420000D02*
X50323750Y-97960000D01*
X47783750Y-90170000D02*
X47783750Y-95420000D01*
%TO.N,Net-(D48-A)*%
X73977500Y-95420000D02*
X76517500Y-97960000D01*
X73977500Y-90170000D02*
X73977500Y-95420000D01*
%TO.N,Net-(D49-A)*%
X93027500Y-95420000D02*
X95567500Y-97960000D01*
X93027500Y-90170000D02*
X93027500Y-95420000D01*
%TO.N,Net-(D50-A)*%
X112077500Y-95420000D02*
X114617500Y-97960000D01*
X112077500Y-90170000D02*
X112077500Y-95420000D01*
%TO.N,Net-(D51-A)*%
X131127500Y-95420000D02*
X133667500Y-97960000D01*
X131127500Y-90170000D02*
X131127500Y-95420000D01*
%TO.N,Net-(D52-A)*%
X150177500Y-90170000D02*
X150177500Y-95420000D01*
X150177500Y-95420000D02*
X152717500Y-97960000D01*
%TO.N,Net-(D53-A)*%
X169227500Y-90170000D02*
X169227500Y-95420000D01*
X169227500Y-95420000D02*
X171767500Y-97960000D01*
%TO.N,Net-(D54-A)*%
X188277500Y-90170000D02*
X188277500Y-95420000D01*
X188277500Y-95420000D02*
X190817500Y-97960000D01*
%TO.N,Net-(D55-A)*%
X207327500Y-90170000D02*
X207327500Y-95420000D01*
X207327500Y-95420000D02*
X209867500Y-97960000D01*
%TO.N,Net-(D56-A)*%
X226377500Y-95420000D02*
X228917500Y-97960000D01*
X226377500Y-90170000D02*
X226377500Y-95420000D01*
%TO.N,Net-(D57-A)*%
X245427500Y-95420000D02*
X247967500Y-97960000D01*
X245427500Y-90170000D02*
X245427500Y-95420000D01*
%TO.N,Net-(D58-A)*%
X264477500Y-95420000D02*
X267017500Y-97960000D01*
X264477500Y-90170000D02*
X264477500Y-95420000D01*
%TO.N,Net-(D59-A)*%
X295433750Y-90170000D02*
X295433750Y-95420000D01*
X295433750Y-95420000D02*
X297973750Y-97960000D01*
%TO.N,Net-(D60-A)*%
X326390000Y-90170000D02*
X326390000Y-95420000D01*
X326390000Y-95420000D02*
X328930000Y-97960000D01*
%TO.N,Row_4*%
X29461108Y-112632928D02*
X32354180Y-115526000D01*
X57912446Y6164971D02*
X22987446Y6164971D01*
X143192500Y-117650000D02*
X162242500Y-117650000D01*
X47907434Y-115526000D02*
X50031434Y-117650000D01*
X219392500Y-117650000D02*
X238442500Y-117650000D01*
X22987446Y6164971D02*
X22962446Y6164971D01*
X162242500Y-117650000D02*
X181292500Y-117650000D01*
X327011389Y-102436029D02*
X327562446Y-101884972D01*
X326961446Y-102436029D02*
X327011389Y-102436029D01*
X311747475Y-117650000D02*
X326961446Y-102436029D01*
X62012446Y2064971D02*
X57912446Y6164971D01*
X327562446Y-101884972D02*
X327562446Y-101435029D01*
X238442500Y-117650000D02*
X257492500Y-117650000D01*
X86042500Y-117650000D02*
X105092500Y-117650000D01*
X50031434Y-117650000D02*
X55086250Y-117650000D01*
X283686250Y-117650000D02*
X309880000Y-117650000D01*
X328930000Y-100067475D02*
X328930000Y-98600000D01*
X105092500Y-117650000D02*
X124142500Y-117650000D01*
X309880000Y-117650000D02*
X311747475Y-117650000D01*
X200342500Y-117650000D02*
X219392500Y-117650000D01*
X55086250Y-117650000D02*
X86042500Y-117650000D01*
X32354180Y-115526000D02*
X47907434Y-115526000D01*
X327562446Y-101435029D02*
X328930000Y-100067475D01*
X124142500Y-117650000D02*
X143192500Y-117650000D01*
X257492500Y-117650000D02*
X283686250Y-117650000D01*
X62012446Y202471D02*
X62012446Y2064971D01*
X181292500Y-117650000D02*
X200342500Y-117650000D01*
%TO.N,Net-(D61-A)*%
X52546250Y-114470000D02*
X55086250Y-117010000D01*
X52546250Y-109220000D02*
X52546250Y-114470000D01*
%TO.N,Net-(D62-A)*%
X83502500Y-114470000D02*
X86042500Y-117010000D01*
X83502500Y-109220000D02*
X83502500Y-114470000D01*
%TO.N,Net-(D63-A)*%
X102552500Y-114470000D02*
X105092500Y-117010000D01*
X102552500Y-109220000D02*
X102552500Y-114470000D01*
%TO.N,Net-(D64-A)*%
X121602500Y-109220000D02*
X121602500Y-114470000D01*
X121602500Y-114470000D02*
X124142500Y-117010000D01*
%TO.N,Net-(D65-A)*%
X140652500Y-114470000D02*
X143192500Y-117010000D01*
X140652500Y-109220000D02*
X140652500Y-114470000D01*
%TO.N,Net-(D66-A)*%
X159702500Y-109220000D02*
X159702500Y-114470000D01*
X159702500Y-114470000D02*
X162242500Y-117010000D01*
%TO.N,Net-(D67-A)*%
X178752500Y-114470000D02*
X181292500Y-117010000D01*
X178752500Y-109220000D02*
X178752500Y-114470000D01*
%TO.N,Net-(D68-A)*%
X197802500Y-114470000D02*
X200342500Y-117010000D01*
X197802500Y-109220000D02*
X197802500Y-114470000D01*
%TO.N,Net-(D69-A)*%
X216852500Y-109220000D02*
X216852500Y-114470000D01*
X216852500Y-114470000D02*
X219392500Y-117010000D01*
%TO.N,Net-(D70-A)*%
X235902500Y-114470000D02*
X238442500Y-117010000D01*
X235902500Y-109220000D02*
X235902500Y-114470000D01*
%TO.N,Net-(D71-A)*%
X254952500Y-109220000D02*
X254952500Y-114470000D01*
X254952500Y-114470000D02*
X257492500Y-117010000D01*
%TO.N,Net-(D72-A)*%
X281146250Y-114470000D02*
X283686250Y-117010000D01*
X281146250Y-109220000D02*
X281146250Y-114470000D01*
%TO.N,Net-(D73-A)*%
X307340000Y-109220000D02*
X307340000Y-114470000D01*
X307340000Y-114470000D02*
X309880000Y-117010000D01*
%TO.N,Net-(D74-A)*%
X326390000Y-114470000D02*
X328930000Y-117010000D01*
X326390000Y-109220000D02*
X326390000Y-114470000D01*
%TO.N,Row_5*%
X233680000Y-136700000D02*
X252730000Y-136700000D01*
X62512446Y202471D02*
X62512446Y2289971D01*
X45561250Y-136700000D02*
X69373750Y-136700000D01*
X31252013Y-134539884D02*
X32447158Y-135735029D01*
X45401380Y-136700000D02*
X45561250Y-136700000D01*
X93186250Y-136700000D02*
X164623750Y-136700000D01*
X164623750Y-136700000D02*
X233680000Y-136700000D01*
X309880000Y-136700000D02*
X328930000Y-136700000D01*
X62512446Y2289971D02*
X57562446Y7239971D01*
X22062446Y7239971D02*
X20587446Y5764971D01*
X69373750Y-136700000D02*
X93186250Y-136700000D01*
X44436409Y-135735029D02*
X45401380Y-136700000D01*
X32447158Y-135735029D02*
X44436409Y-135735029D01*
X290830000Y-136700000D02*
X309880000Y-136700000D01*
X252730000Y-136700000D02*
X271780000Y-136700000D01*
X271780000Y-136700000D02*
X290830000Y-136700000D01*
X57562446Y7239971D02*
X22062446Y7239971D01*
%TO.N,Net-(D75-A)*%
X43021250Y-128270000D02*
X43021250Y-133520000D01*
X43021250Y-133520000D02*
X45561250Y-136060000D01*
%TO.N,Net-(D76-A)*%
X66833750Y-133520000D02*
X69373750Y-136060000D01*
X66833750Y-128270000D02*
X66833750Y-133520000D01*
%TO.N,Net-(D77-A)*%
X90646250Y-128270000D02*
X90646250Y-133520000D01*
X90646250Y-133520000D02*
X93186250Y-136060000D01*
%TO.N,Net-(D78-A)*%
X162083750Y-133520000D02*
X164623750Y-136060000D01*
X162083750Y-128270000D02*
X162083750Y-133520000D01*
%TO.N,Net-(D79-A)*%
X231140000Y-128270000D02*
X231140000Y-133520000D01*
X231140000Y-133520000D02*
X233680000Y-136060000D01*
%TO.N,Net-(D80-A)*%
X250190000Y-128270000D02*
X250190000Y-133520000D01*
X250190000Y-133520000D02*
X252730000Y-136060000D01*
%TO.N,Net-(D81-A)*%
X269240000Y-128270000D02*
X269240000Y-133520000D01*
X269240000Y-133520000D02*
X271780000Y-136060000D01*
%TO.N,Net-(D82-A)*%
X288290000Y-128270000D02*
X288290000Y-133520000D01*
X288290000Y-133520000D02*
X290830000Y-136060000D01*
%TO.N,Net-(D83-A)*%
X307340000Y-128270000D02*
X307340000Y-133520000D01*
X307340000Y-133520000D02*
X309880000Y-136060000D01*
%TO.N,Net-(D84-A)*%
X326390000Y-128270000D02*
X326390000Y-133520000D01*
X326390000Y-133520000D02*
X328930000Y-136060000D01*
%TO.N,RGB_OUTPUT*%
X31712446Y-43060029D02*
X31837446Y-43060029D01*
X32262446Y-43485029D02*
X35437446Y-43485029D01*
X31837446Y-43060029D02*
X32262446Y-43485029D01*
%TO.N,Col_0*%
X62487446Y-1985029D02*
X61837446Y-2635029D01*
X63012446Y-1460029D02*
X62487446Y-1985029D01*
X61837446Y-2635029D02*
X61837446Y-3060029D01*
X63012446Y202471D02*
X63012446Y-1460029D01*
%TO.N,Col_1*%
X63512446Y-1610029D02*
X63037446Y-2085029D01*
X63037446Y-2085029D02*
X63037446Y-2935029D01*
X63512446Y202471D02*
X63512446Y-1610029D01*
X63037446Y-2935029D02*
X63037446Y-2960029D01*
%TO.N,Col_2*%
X63212446Y-5335029D02*
X62687446Y-5335029D01*
X64512446Y202471D02*
X64512446Y-4035029D01*
X64512446Y-4035029D02*
X63212446Y-5335029D01*
%TO.N,Col_3*%
X65012446Y-4310029D02*
X64137446Y-5185029D01*
X62912446Y-6085029D02*
X62862446Y-6085029D01*
X62862446Y-6085029D02*
X62662446Y-6285029D01*
X64137446Y-5185029D02*
X63237446Y-6085029D01*
X65012446Y202471D02*
X65012446Y-4310029D01*
X63237446Y-6085029D02*
X62912446Y-6085029D01*
%TO.N,Col_4*%
X62012446Y-8122529D02*
X62012446Y-11560029D01*
X64287446Y-12935029D02*
X65937446Y-14585029D01*
X65937446Y-14585029D02*
X89515029Y-14585029D01*
X63387446Y-12935029D02*
X64287446Y-12935029D01*
X89515029Y-14585029D02*
X110490000Y-35560000D01*
X62012446Y-11560029D02*
X63387446Y-12935029D01*
%TO.N,Col_5*%
X77712446Y-25485029D02*
X96212446Y-25485029D01*
X61512446Y-11835029D02*
X64712446Y-15035029D01*
X64712446Y-15035029D02*
X67262446Y-15035029D01*
X61512446Y-8122529D02*
X61512446Y-11835029D01*
X67262446Y-15035029D02*
X77712446Y-25485029D01*
%TO.N,Col_6*%
X57187446Y-7635029D02*
X56687446Y-8135029D01*
X148590000Y-30862583D02*
X148590000Y-35560000D01*
X56687446Y-8135029D02*
X56687446Y-11485029D01*
X121987446Y-26885029D02*
X144612446Y-26885029D01*
X56687446Y-11485029D02*
X60087446Y-14885029D01*
X58112446Y-6710029D02*
X57187446Y-7635029D01*
X60087446Y-14885029D02*
X62887446Y-14885029D01*
X59099946Y-6710029D02*
X58112446Y-6710029D01*
X56687446Y-11485029D02*
X56687446Y-11560029D01*
X144612446Y-26885029D02*
X148590000Y-30862583D01*
%TO.N,Col_7*%
X57737446Y-6210029D02*
X55612446Y-8335029D01*
X55612446Y-11360029D02*
X60037446Y-15785029D01*
X60037446Y-15785029D02*
X63612446Y-15785029D01*
X55612446Y-8335029D02*
X55612446Y-11360029D01*
X59099946Y-6210029D02*
X57737446Y-6210029D01*
%TO.N,Col_8*%
X59762446Y-16510029D02*
X63137446Y-16510029D01*
X59099946Y-5710029D02*
X57037446Y-5710029D01*
X64612446Y-16510029D02*
X64687446Y-16435029D01*
X54837446Y-11585029D02*
X59762446Y-16510029D01*
X54837446Y-11585029D02*
X54812446Y-11610029D01*
X54837446Y-7910029D02*
X54837446Y-11585029D01*
X57037446Y-5710029D02*
X54837446Y-7910029D01*
X63137446Y-16510029D02*
X64612446Y-16510029D01*
%TO.N,Col_9*%
X54012446Y-7485029D02*
X56287446Y-5210029D01*
X59712446Y-17360029D02*
X54012446Y-11660029D01*
X66437446Y-17360029D02*
X59712446Y-17360029D01*
X66437446Y-17360029D02*
X63287446Y-17360029D01*
X56287446Y-5210029D02*
X59099946Y-5210029D01*
X54012446Y-11660029D02*
X54012446Y-7485029D01*
%TO.N,Col_10*%
X67424946Y-5710029D02*
X66237446Y-5710029D01*
X66237446Y-5710029D02*
X65862446Y-5335029D01*
%TO.N,Col_11*%
X67424946Y-6210029D02*
X65387446Y-6210029D01*
%TO.N,Col_12*%
X238490029Y-11160029D02*
X262890000Y-35560000D01*
X67424946Y-6710029D02*
X69224946Y-8510029D01*
X75787446Y-8510029D02*
X78437446Y-11160029D01*
X69224946Y-8510029D02*
X75787446Y-8510029D01*
X78437446Y-11160029D02*
X238490029Y-11160029D01*
%TO.N,Col_13*%
X65512446Y-9235029D02*
X66112446Y-9835029D01*
X66112446Y-9835029D02*
X66187446Y-9910029D01*
X68312446Y-9910029D02*
X70562446Y-9910029D01*
X65512446Y-8122529D02*
X65512446Y-9235029D01*
X66187446Y-9910029D02*
X68312446Y-9910029D01*
%TO.N,Col_14*%
X67462446Y-10310029D02*
X69337446Y-10310029D01*
X69337446Y-10310029D02*
X69612446Y-10585029D01*
X65937446Y-10310029D02*
X67462446Y-10310029D01*
X65012446Y-8122529D02*
X65012446Y-9385029D01*
X65012446Y-9385029D02*
X65912446Y-10285029D01*
X67462446Y-10310029D02*
X67587446Y-10310029D01*
X65912446Y-10285029D02*
X65937446Y-10310029D01*
%TO.N,Col_15*%
X65637446Y-10735029D02*
X67462446Y-10735029D01*
X68962446Y-10785029D02*
X69687446Y-11510029D01*
X67512446Y-10785029D02*
X68962446Y-10785029D01*
X64512446Y-8122529D02*
X64512446Y-9610029D01*
X67462446Y-10735029D02*
X67512446Y-10785029D01*
X64512446Y-9610029D02*
X65637446Y-10735029D01*
%TO.N,RGB_INPUT*%
X64012446Y-8122529D02*
X64012446Y-9835029D01*
X64012446Y-9835029D02*
X65337446Y-11160029D01*
X65337446Y-11160029D02*
X66537446Y-11160029D01*
X66537446Y-11160029D02*
X66962446Y-11585029D01*
%TO.N,Net-(LED1-DOUT)*%
X40887446Y-41985029D02*
X41912446Y-41985029D01*
X53937446Y-43985029D02*
X54437446Y-43485029D01*
X43912446Y-43985029D02*
X53937446Y-43985029D01*
X41912446Y-41985029D02*
X43912446Y-43985029D01*
%TO.N,Net-(LED2-DOUT)*%
X68662446Y-42485029D02*
X70162446Y-43985029D01*
X59887446Y-42485029D02*
X68662446Y-42485029D01*
X70162446Y-43985029D02*
X73437446Y-43985029D01*
%TO.N,Net-(LED3-DOUT)*%
X88912446Y-42485029D02*
X90662446Y-44235029D01*
X78887446Y-42485029D02*
X88912446Y-42485029D01*
X90662446Y-44235029D02*
X92162446Y-44235029D01*
%TO.N,Net-(LED4-DOUT)*%
X107162446Y-42735029D02*
X108412446Y-43985029D01*
X108412446Y-43985029D02*
X111662446Y-43985029D01*
X98112446Y-42735029D02*
X107162446Y-42735029D01*
%TO.N,Net-(LED5-DOUT)*%
X125162446Y-43985029D02*
X123662446Y-42485029D01*
X130712446Y-43985029D02*
X125162446Y-43985029D01*
X123662446Y-42485029D02*
X117112446Y-42485029D01*
%TO.N,Net-(LED6-DOUT)*%
X145162446Y-42485029D02*
X146912446Y-44235029D01*
X146912446Y-44235029D02*
X149162446Y-44235029D01*
X136162446Y-42485029D02*
X145162446Y-42485029D01*
%TO.N,Net-(LED7-DOUT)*%
X162412446Y-42735029D02*
X163912446Y-44235029D01*
X155137446Y-42735029D02*
X162412446Y-42735029D01*
X163912446Y-44235029D02*
X168937446Y-44235029D01*
%TO.N,Net-(LED8-DOUT)*%
X181662446Y-44235029D02*
X180162446Y-42735029D01*
X180162446Y-42735029D02*
X174387446Y-42735029D01*
X187687446Y-44235029D02*
X181662446Y-44235029D01*
%TO.N,Net-(LED10-DIN)*%
X202412446Y-44485029D02*
X206662446Y-44485029D01*
X200662446Y-42735029D02*
X202412446Y-44485029D01*
X193137446Y-42735029D02*
X200662446Y-42735029D01*
%TO.N,Net-(LED10-DOUT)*%
X222662446Y-44485029D02*
X225712446Y-44485029D01*
X212112446Y-42985029D02*
X221162446Y-42985029D01*
X221162446Y-42985029D02*
X222662446Y-44485029D01*
%TO.N,Net-(LED11-DOUT)*%
X245162446Y-44485029D02*
X237912446Y-44485029D01*
X236412446Y-42985029D02*
X231162446Y-42985029D01*
X237912446Y-44485029D02*
X236412446Y-42985029D01*
%TO.N,Net-(LED12-DOUT)*%
X263937446Y-44235029D02*
X255162446Y-44235029D01*
X255162446Y-44235029D02*
X253912446Y-42985029D01*
X253912446Y-42985029D02*
X250612446Y-42985029D01*
%TO.N,Net-(LED13-DOUT)*%
X275162446Y-42735029D02*
X269387446Y-42735029D01*
X276412446Y-43985029D02*
X275162446Y-42735029D01*
X282937446Y-43985029D02*
X276412446Y-43985029D01*
%TO.N,Net-(LED14-DOUT)*%
X295162446Y-44485029D02*
X293162446Y-42485029D01*
X301437446Y-44485029D02*
X295162446Y-44485029D01*
X293162446Y-42485029D02*
X288387446Y-42485029D01*
%TO.N,Net-(LED15-DOUT)*%
X316162446Y-42985029D02*
X317662446Y-44485029D01*
X317662446Y-44485029D02*
X321162446Y-44485029D01*
X307387446Y-42985029D02*
X316162446Y-42985029D01*
%TO.N,Net-(LED16-DOUT)*%
X33412446Y-63235029D02*
X35662446Y-63235029D01*
X328662446Y-42985029D02*
X329162446Y-43485029D01*
X326612446Y-42985029D02*
X328662446Y-42985029D01*
%TO.N,Net-(LED17-DOUT)*%
X54662446Y-63235029D02*
X47412446Y-63235029D01*
X45912446Y-61735029D02*
X41112446Y-61735029D01*
X47412446Y-63235029D02*
X45912446Y-61735029D01*
%TO.N,Net-(LED18-DOUT)*%
X66162446Y-61735029D02*
X60112446Y-61735029D01*
X67912446Y-63485029D02*
X66162446Y-61735029D01*
X73662446Y-63485029D02*
X67912446Y-63485029D01*
%TO.N,Net-(LED19-DOUT)*%
X84412446Y-61985029D02*
X79112446Y-61985029D01*
X92937446Y-63735029D02*
X86162446Y-63735029D01*
X86162446Y-63735029D02*
X84412446Y-61985029D01*
%TO.N,Net-(LED20-DOUT)*%
X111687446Y-63735029D02*
X105412446Y-63735029D01*
X105412446Y-63735029D02*
X103912446Y-62235029D01*
X103912446Y-62235029D02*
X98387446Y-62235029D01*
%TO.N,Net-(LED21-DOUT)*%
X124162446Y-63485029D02*
X122912446Y-62235029D01*
X122912446Y-62235029D02*
X117137446Y-62235029D01*
X130687446Y-63485029D02*
X124162446Y-63485029D01*
%TO.N,Net-(LED23-DOUT)*%
X155637446Y-62235029D02*
X162912446Y-62235029D01*
X162912446Y-62235029D02*
X164412446Y-63735029D01*
X164412446Y-63735029D02*
X168687446Y-63735029D01*
%TO.N,Net-(LED24-DOUT)*%
X187687446Y-63735029D02*
X181412446Y-63735029D01*
X179912446Y-62235029D02*
X174137446Y-62235029D01*
X181412446Y-63735029D02*
X179912446Y-62235029D01*
%TO.N,Net-(LED25-DOUT)*%
X201162446Y-63735029D02*
X199662446Y-62235029D01*
X206687446Y-63735029D02*
X201162446Y-63735029D01*
X199662446Y-62235029D02*
X193137446Y-62235029D01*
%TO.N,Net-(LED26-DOUT)*%
X217162446Y-62235029D02*
X212137446Y-62235029D01*
X225962446Y-63735029D02*
X218662446Y-63735029D01*
X218662446Y-63735029D02*
X217162446Y-62235029D01*
%TO.N,Net-(LED27-DOUT)*%
X237912446Y-63735029D02*
X236412446Y-62235029D01*
X244962446Y-63735029D02*
X237912446Y-63735029D01*
X236412446Y-62235029D02*
X231412446Y-62235029D01*
%TO.N,Net-(LED28-DOUT)*%
X257162446Y-63485029D02*
X255912446Y-62235029D01*
X264187446Y-63485029D02*
X257162446Y-63485029D01*
X255912446Y-62235029D02*
X250412446Y-62235029D01*
%TO.N,Net-(LED29-DOUT)*%
X289662446Y-63735029D02*
X292412446Y-63735029D01*
X287912446Y-61985029D02*
X289662446Y-63735029D01*
X269637446Y-61985029D02*
X287912446Y-61985029D01*
%TO.N,Net-(LED30-DOUT)*%
X318162446Y-62235029D02*
X318912446Y-62985029D01*
X318912446Y-62985029D02*
X320212446Y-62985029D01*
X297862446Y-62235029D02*
X318162446Y-62235029D01*
%TO.N,Net-(LED31-DOUT)*%
X325662446Y-61485029D02*
X327412446Y-61485029D01*
X37662446Y-81735029D02*
X38412446Y-82485029D01*
X38412446Y-82485029D02*
X40212446Y-82485029D01*
%TO.N,Net-(LED32-DOUT)*%
X60412446Y-80985029D02*
X62412446Y-82985029D01*
X45662446Y-80985029D02*
X60412446Y-80985029D01*
X62412446Y-82985029D02*
X64162446Y-82985029D01*
%TO.N,Net-(LED33-DOUT)*%
X77412446Y-82735029D02*
X82962446Y-82735029D01*
X69612446Y-81485029D02*
X76162446Y-81485029D01*
X76162446Y-81485029D02*
X77412446Y-82735029D01*
%TO.N,Net-(LED34-DOUT)*%
X88412446Y-81235029D02*
X97912446Y-81235029D01*
X99412446Y-82735029D02*
X102187446Y-82735029D01*
X97912446Y-81235029D02*
X99412446Y-82735029D01*
%TO.N,Net-(LED35-DOUT)*%
X120712446Y-82485029D02*
X120962446Y-82735029D01*
X115912446Y-81235029D02*
X117162446Y-82485029D01*
X107637446Y-81235029D02*
X115912446Y-81235029D01*
X117162446Y-82485029D02*
X120712446Y-82485029D01*
%TO.N,Net-(LED36-DOUT)*%
X133412446Y-81235029D02*
X135162446Y-82985029D01*
X126412446Y-81235029D02*
X133412446Y-81235029D01*
X135162446Y-82985029D02*
X140187446Y-82985029D01*
%TO.N,Net-(LED37-DOUT)*%
X152662446Y-82735029D02*
X151412446Y-81485029D01*
X158962446Y-82735029D02*
X152662446Y-82735029D01*
X151412446Y-81485029D02*
X145637446Y-81485029D01*
%TO.N,Net-(LED38-DOUT)*%
X175412446Y-82735029D02*
X178687446Y-82735029D01*
X173912446Y-81235029D02*
X175412446Y-82735029D01*
X164412446Y-81235029D02*
X173912446Y-81235029D01*
%TO.N,Net-(LED39-DOUT)*%
X189962446Y-81235029D02*
X184137446Y-81235029D01*
X191662446Y-82935029D02*
X189962446Y-81235029D01*
X197312446Y-82935029D02*
X191662446Y-82935029D01*
%TO.N,Net-(LED40-DOUT)*%
X209262446Y-82935029D02*
X207762446Y-81435029D01*
X216512446Y-82935029D02*
X209262446Y-82935029D01*
X207762446Y-81435029D02*
X202762446Y-81435029D01*
%TO.N,Net-(LED41-DOUT)*%
X230562446Y-81435029D02*
X232062446Y-82935029D01*
X232062446Y-82935029D02*
X235512446Y-82935029D01*
X221962446Y-81435029D02*
X230562446Y-81435029D01*
%TO.N,Net-(LED42-DOUT)*%
X240962446Y-81435029D02*
X248362446Y-81435029D01*
X249662446Y-82735029D02*
X254512446Y-82735029D01*
X248362446Y-81435029D02*
X249662446Y-82735029D01*
%TO.N,Net-(LED43-DOUT)*%
X268162446Y-81235029D02*
X269862446Y-82935029D01*
X269862446Y-82935029D02*
X273512446Y-82935029D01*
X259962446Y-81235029D02*
X268162446Y-81235029D01*
%TO.N,Net-(LED44-DOUT)*%
X294312446Y-82985029D02*
X297837446Y-82985029D01*
X278962446Y-81435029D02*
X292762446Y-81435029D01*
X292762446Y-81435029D02*
X294312446Y-82985029D01*
%TO.N,Net-(LED45-DOUT)*%
X303287446Y-81485029D02*
X315012446Y-81485029D01*
X316262446Y-82735029D02*
X320312446Y-82735029D01*
X315012446Y-81485029D02*
X316262446Y-82735029D01*
%TO.N,Net-(LED46-DOUT)*%
X325762446Y-81235029D02*
X327562446Y-81235029D01*
X43637446Y-101785029D02*
X40712446Y-101785029D01*
X40712446Y-101785029D02*
X40662446Y-101735029D01*
%TO.N,Net-(LED47-DOUT)*%
X56662446Y-101935029D02*
X68912446Y-101935029D01*
X55012446Y-100285029D02*
X56662446Y-101935029D01*
X49087446Y-100285029D02*
X55012446Y-100285029D01*
%TO.N,Net-(LED48-DOUT)*%
X82162446Y-100435029D02*
X83662446Y-101935029D01*
X83662446Y-101935029D02*
X87912446Y-101935029D01*
X74362446Y-100435029D02*
X82162446Y-100435029D01*
%TO.N,Net-(LED49-DOUT)*%
X93362446Y-100435029D02*
X100362446Y-100435029D01*
X101862446Y-101935029D02*
X107112446Y-101935029D01*
X100362446Y-100435029D02*
X101862446Y-101935029D01*
%TO.N,Net-(LED50-DOUT)*%
X112562446Y-100435029D02*
X120762446Y-100435029D01*
X122112446Y-101785029D02*
X126437446Y-101785029D01*
X120762446Y-100435029D02*
X122112446Y-101785029D01*
%TO.N,Net-(LED51-DOUT)*%
X145312446Y-101935029D02*
X138862446Y-101935029D01*
X137212446Y-100285029D02*
X131887446Y-100285029D01*
X138862446Y-101935029D02*
X137212446Y-100285029D01*
%TO.N,Net-(LED52-DOUT)*%
X150762446Y-100435029D02*
X159962446Y-100435029D01*
X161262446Y-101735029D02*
X164712446Y-101735029D01*
X159962446Y-100435029D02*
X161262446Y-101735029D01*
%TO.N,Net-(LED53-DOUT)*%
X170162446Y-100235029D02*
X177562446Y-100235029D01*
X177562446Y-100235029D02*
X179262446Y-101935029D01*
X179262446Y-101935029D02*
X183312446Y-101935029D01*
%TO.N,Net-(LED54-DOUT)*%
X198112446Y-101985029D02*
X202237446Y-101985029D01*
X188762446Y-100435029D02*
X196562446Y-100435029D01*
X196562446Y-100435029D02*
X198112446Y-101985029D01*
%TO.N,Net-(LED56-DOUT)*%
X207687446Y-100485029D02*
X217612446Y-100485029D01*
X219062446Y-101935029D02*
X222112446Y-101935029D01*
X217612446Y-100485029D02*
X219062446Y-101935029D01*
%TO.N,Net-(LED57-DOUT)*%
X235762446Y-102035029D02*
X235812446Y-101985029D01*
X235812446Y-101985029D02*
X240437446Y-101985029D01*
X227562446Y-100435029D02*
X234162446Y-100435029D01*
X234162446Y-100435029D02*
X235762446Y-102035029D01*
%TO.N,Net-(LED58-DOUT)*%
X259037446Y-101985029D02*
X253312446Y-101985029D01*
X251812446Y-100485029D02*
X245887446Y-100485029D01*
X253312446Y-101985029D02*
X251812446Y-100485029D01*
%TO.N,Net-(LED59-DOUT)*%
X264487446Y-100485029D02*
X286012446Y-100485029D01*
X286012446Y-100485029D02*
X287312446Y-101785029D01*
X287312446Y-101785029D02*
X290237446Y-101785029D01*
%TO.N,Net-(LED60-DOUT)*%
X317462446Y-101735029D02*
X320162446Y-101735029D01*
X295687446Y-100285029D02*
X316012446Y-100285029D01*
X316012446Y-100285029D02*
X317462446Y-101735029D01*
%TO.N,Net-(LED61-DOUT)*%
X45862446Y-120735029D02*
X47112446Y-120735029D01*
X41862446Y-116735029D02*
X45862446Y-120735029D01*
X327162446Y-100235029D02*
X325612446Y-100235029D01*
%TO.N,Net-(LED62-DOUT)*%
X74062446Y-120935029D02*
X78312446Y-120935029D01*
X72362446Y-119235029D02*
X74062446Y-120935029D01*
X52562446Y-119235029D02*
X72362446Y-119235029D01*
%TO.N,Net-(LED63-DOUT)*%
X94062446Y-120935029D02*
X96762446Y-120935029D01*
X92562446Y-119435029D02*
X94062446Y-120935029D01*
X83762446Y-119435029D02*
X92562446Y-119435029D01*
%TO.N,Net-(LED64-DOUT)*%
X109362446Y-119435029D02*
X110912446Y-120985029D01*
X102212446Y-119435029D02*
X109362446Y-119435029D01*
X110912446Y-120985029D02*
X116237446Y-120985029D01*
%TO.N,Net-(LED65-DOUT)*%
X128812446Y-119485029D02*
X130262446Y-120935029D01*
X121687446Y-119485029D02*
X128812446Y-119485029D01*
X130262446Y-120935029D02*
X135562446Y-120935029D01*
%TO.N,Net-(LED67-DOUT)*%
X147962446Y-119435029D02*
X141012446Y-119435029D01*
X149512446Y-120985029D02*
X147962446Y-119435029D01*
X154437446Y-120985029D02*
X149512446Y-120985029D01*
%TO.N,Net-(LED68-DOUT)*%
X168612446Y-119485029D02*
X170112446Y-120985029D01*
X170112446Y-120985029D02*
X173437446Y-120985029D01*
X159887446Y-119485029D02*
X168612446Y-119485029D01*
%TO.N,Net-(LED69-DOUT)*%
X187812446Y-119485029D02*
X189362446Y-121035029D01*
X178887446Y-119485029D02*
X187812446Y-119485029D01*
X189362446Y-121035029D02*
X192112446Y-121035029D01*
%TO.N,Net-(LED70-DOUT)*%
X207512446Y-120985029D02*
X212237446Y-120985029D01*
X197562446Y-119535029D02*
X206062446Y-119535029D01*
X206062446Y-119535029D02*
X207512446Y-120985029D01*
%TO.N,Net-(LED71-DOUT)*%
X225712446Y-120985029D02*
X224162446Y-119435029D01*
X224162446Y-119435029D02*
X224112446Y-119485029D01*
X231037446Y-120985029D02*
X225712446Y-120985029D01*
X224112446Y-119485029D02*
X217687446Y-119485029D01*
%TO.N,Net-(LED72-DOUT)*%
X245662446Y-120735029D02*
X249312446Y-120735029D01*
X236487446Y-119485029D02*
X244412446Y-119485029D01*
X244412446Y-119485029D02*
X245662446Y-120735029D01*
%TO.N,Net-(LED73-DOUT)*%
X272162446Y-119235029D02*
X274112446Y-121185029D01*
X274112446Y-121185029D02*
X276037446Y-121185029D01*
X254762446Y-119235029D02*
X272162446Y-119235029D01*
%TO.N,Net-(LED74-DOUT)*%
X299512446Y-120985029D02*
X301637446Y-120985029D01*
X281487446Y-119685029D02*
X298212446Y-119685029D01*
X298212446Y-119685029D02*
X299512446Y-120985029D01*
%TO.N,Net-(LED75-DOUT)*%
X316612446Y-119485029D02*
X317912446Y-120785029D01*
X317912446Y-120785029D02*
X321037446Y-120785029D01*
X307087446Y-119485029D02*
X316612446Y-119485029D01*
%TO.N,Net-(LED76-DOUT)*%
X35412446Y-139485029D02*
X37437446Y-139485029D01*
X326487446Y-119285029D02*
X327962446Y-119285029D01*
X35362446Y-139435029D02*
X35412446Y-139485029D01*
%TO.N,Net-(LED78-DOUT)*%
X42887446Y-137985029D02*
X56912446Y-137985029D01*
X56912446Y-137985029D02*
X59112446Y-140185029D01*
X59112446Y-140185029D02*
X61437446Y-140185029D01*
%TO.N,Net-(LED79-DOUT)*%
X80212446Y-138685029D02*
X81662446Y-140135029D01*
X81662446Y-140135029D02*
X85562446Y-140135029D01*
X66887446Y-138685029D02*
X80212446Y-138685029D01*
%TO.N,Net-(LED80-DOUT)*%
X152562446Y-138635029D02*
X154112446Y-140185029D01*
X154112446Y-140185029D02*
X156837446Y-140185029D01*
X91012446Y-138635029D02*
X152562446Y-138635029D01*
%TO.N,Net-(LED81-DOUT)*%
X162287446Y-138685029D02*
X222612446Y-138685029D01*
X222612446Y-138685029D02*
X223912446Y-139985029D01*
X223912446Y-139985029D02*
X225637446Y-139985029D01*
%TO.N,Net-(LED82-DOUT)*%
X239212446Y-138485029D02*
X240912446Y-140185029D01*
X231087446Y-138485029D02*
X239212446Y-138485029D01*
X240912446Y-140185029D02*
X244637446Y-140185029D01*
%TO.N,Net-(LED83-DOUT)*%
X250087446Y-138685029D02*
X259212446Y-138685029D01*
X260512446Y-139985029D02*
X263737446Y-139985029D01*
X259212446Y-138685029D02*
X260512446Y-139985029D01*
%TO.N,Net-(LED84-DOUT)*%
X277512446Y-138485029D02*
X279162446Y-140135029D01*
X279162446Y-140135029D02*
X282847375Y-140135029D01*
X282847375Y-140135029D02*
X282858372Y-140110458D01*
X269187446Y-138485029D02*
X277512446Y-138485029D01*
X282858372Y-140110458D02*
X282783801Y-140185029D01*
X282783801Y-140185029D02*
X282437446Y-140185029D01*
%TO.N,Net-(LED85-DOUT)*%
X297712446Y-138685029D02*
X299112446Y-140085029D01*
X299112446Y-140085029D02*
X302137446Y-140085029D01*
X287887446Y-138685029D02*
X297712446Y-138685029D01*
%TO.N,Net-(LED86-DOUT)*%
X320587446Y-139635029D02*
X320837446Y-139885029D01*
X316512446Y-138585029D02*
X317562446Y-139635029D01*
X307587446Y-138585029D02*
X316512446Y-138585029D01*
X317562446Y-139635029D02*
X320587446Y-139635029D01*
%TO.N,Net-(LED22-DOUT)*%
X141912446Y-61985029D02*
X136137446Y-61985029D01*
X150187446Y-63735029D02*
X143662446Y-63735029D01*
X143662446Y-63735029D02*
X141912446Y-61985029D01*
%TD*%
%TA.AperFunction,Conductor*%
%TO.N,/USB_D+*%
G36*
X30732734Y-2366805D02*
G01*
X30754469Y-2372624D01*
X30759628Y-2375603D01*
X30775745Y-2391727D01*
X30791871Y-2407846D01*
X30794850Y-2413004D01*
X30800670Y-2434741D01*
X30803552Y-2445490D01*
X30807093Y-2458697D01*
X30807485Y-2461677D01*
X30807481Y-2489880D01*
X30807485Y-2489889D01*
X30830306Y-2545003D01*
X30830308Y-2545005D01*
X30872490Y-2587194D01*
X30872494Y-2587197D01*
X30916375Y-2605374D01*
X30925918Y-2609328D01*
X30926312Y-2609491D01*
X30926314Y-2609492D01*
X30971125Y-2609330D01*
X30972289Y-2609384D01*
X30989526Y-2611082D01*
X30992793Y-2611900D01*
X31025156Y-2625305D01*
X31028886Y-2627798D01*
X31053241Y-2652153D01*
X31055734Y-2655884D01*
X31068916Y-2687706D01*
X31069791Y-2692107D01*
X31069791Y-2726548D01*
X31068916Y-2730949D01*
X31055734Y-2762771D01*
X31053241Y-2766502D01*
X31028886Y-2790857D01*
X31025155Y-2793350D01*
X30993313Y-2806540D01*
X30988954Y-2807415D01*
X30966906Y-2807495D01*
X30966898Y-2807496D01*
X30959658Y-2809436D01*
X30955182Y-2809730D01*
X30943114Y-2808142D01*
X30938962Y-2807596D01*
X30938960Y-2807596D01*
X30463294Y-2809309D01*
X30459835Y-2809764D01*
X30456830Y-2809763D01*
X30456088Y-2809664D01*
X30452904Y-2808812D01*
X30440145Y-2807555D01*
X30439953Y-2807530D01*
X30439796Y-2807439D01*
X30437063Y-2806754D01*
X30430804Y-2804162D01*
X30422110Y-2800561D01*
X30410423Y-2797430D01*
X30406018Y-2795140D01*
X30405627Y-2794813D01*
X30403784Y-2792970D01*
X30403074Y-2792676D01*
X30401724Y-2791545D01*
X30401576Y-2791262D01*
X30400974Y-2790859D01*
X30376614Y-2766499D01*
X30375298Y-2764525D01*
X30375135Y-2764635D01*
X30374506Y-2763695D01*
X30374506Y-2763694D01*
X30373019Y-2762207D01*
X30370046Y-2757055D01*
X30366913Y-2745365D01*
X30366912Y-2745362D01*
X30360943Y-2730949D01*
X30360170Y-2728079D01*
X30360068Y-2727318D01*
X30360068Y-2719816D01*
X30358050Y-2712287D01*
X30357953Y-2711560D01*
X30358243Y-2710466D01*
X30358243Y-2707056D01*
X30360068Y-2700244D01*
X30360068Y-2692107D01*
X30360943Y-2687706D01*
X30367976Y-2670728D01*
X30370046Y-2662999D01*
X30371427Y-2659845D01*
X30372109Y-2658763D01*
X30373513Y-2657360D01*
X30374501Y-2654974D01*
X30375023Y-2654148D01*
X30375516Y-2653799D01*
X30376613Y-2652157D01*
X30400976Y-2627794D01*
X30404704Y-2625305D01*
X30406175Y-2624696D01*
X30406180Y-2624690D01*
X30406914Y-2624201D01*
X30410328Y-2622654D01*
X30412526Y-2622066D01*
X30412527Y-2622065D01*
X30412529Y-2622065D01*
X30416366Y-2620475D01*
X30436549Y-2612114D01*
X30440196Y-2611264D01*
X30440530Y-2611242D01*
X30453085Y-2611197D01*
X30456897Y-2610175D01*
X30458023Y-2610102D01*
X30458181Y-2610155D01*
X30458763Y-2610078D01*
X30487285Y-2610078D01*
X30542422Y-2587235D01*
X30584619Y-2545030D01*
X30607451Y-2489888D01*
X30607446Y-2461525D01*
X30607837Y-2458550D01*
X30614221Y-2434741D01*
X30620042Y-2413000D01*
X30623017Y-2407848D01*
X30639144Y-2391728D01*
X30655265Y-2375600D01*
X30660418Y-2372625D01*
X30682157Y-2366805D01*
X30704471Y-2360822D01*
X30710421Y-2360822D01*
X30732734Y-2366805D01*
G37*
%TD.AperFunction*%
%TD*%
M02*
