%TF.GenerationSoftware,KiCad,Pcbnew,9.0.3*%
%TF.CreationDate,2025-12-04T16:15:46+02:00*%
%TF.ProjectId,MyCustom_75Keeb,4d794375-7374-46f6-9d5f-37354b656562,2.0.0*%
%TF.SameCoordinates,Original*%
%TF.FileFunction,Copper,L1,Top*%
%TF.FilePolarity,Positive*%
%FSLAX46Y46*%
G04 Gerber Fmt 4.6, Leading zero omitted, Abs format (unit mm)*
G04 Created by KiCad (PCBNEW 9.0.3) date 2025-12-04 16:15:46*
%MOMM*%
%LPD*%
G01*
G04 APERTURE LIST*
G04 Aperture macros list*
%AMRoundRect*
0 Rectangle with rounded corners*
0 $1 Rounding radius*
0 $2 $3 $4 $5 $6 $7 $8 $9 X,Y pos of 4 corners*
0 Add a 4 corners polygon primitive as box body*
4,1,4,$2,$3,$4,$5,$6,$7,$8,$9,$2,$3,0*
0 Add four circle primitives for the rounded corners*
1,1,$1+$1,$2,$3*
1,1,$1+$1,$4,$5*
1,1,$1+$1,$6,$7*
1,1,$1+$1,$8,$9*
0 Add four rect primitives between the rounded corners*
20,1,$1+$1,$2,$3,$4,$5,0*
20,1,$1+$1,$4,$5,$6,$7,0*
20,1,$1+$1,$6,$7,$8,$9,0*
20,1,$1+$1,$8,$9,$2,$3,0*%
G04 Aperture macros list end*
%TA.AperFunction,ComponentPad*%
%ADD10C,2.500000*%
%TD*%
%TA.AperFunction,ComponentPad*%
%ADD11C,4.000000*%
%TD*%
%TA.AperFunction,SMDPad,CuDef*%
%ADD12RoundRect,0.087500X0.537500X0.087500X-0.537500X0.087500X-0.537500X-0.087500X0.537500X-0.087500X0*%
%TD*%
%TA.AperFunction,ComponentPad*%
%ADD13O,1.600000X1.000000*%
%TD*%
%TA.AperFunction,ComponentPad*%
%ADD14O,2.100000X1.000000*%
%TD*%
%TA.AperFunction,ViaPad*%
%ADD15C,0.600000*%
%TD*%
%TA.AperFunction,Conductor*%
%ADD16C,0.500000*%
%TD*%
%TA.AperFunction,Conductor*%
%ADD17C,0.300000*%
%TD*%
%TA.AperFunction,Conductor*%
%ADD18C,0.200000*%
%TD*%
%TA.AperFunction,Conductor*%
%ADD19C,0.400000*%
%TD*%
G04 APERTURE END LIST*
D10*
%TO.P,SW70,1,1*%
%TO.N,Col_11*%
X229552500Y-111760000D03*
%TO.P,SW70,2,2*%
%TO.N,Net-(D70-A)*%
X235902500Y-109220000D03*
%TD*%
%TO.P,SW81,1,1*%
%TO.N,Col_12*%
X262890000Y-130810000D03*
%TO.P,SW81,2,2*%
%TO.N,Net-(D81-A)*%
X269240000Y-128270000D03*
%TD*%
%TO.P,SW19,1,1*%
%TO.N,Col_2*%
X72390000Y-54610000D03*
%TO.P,SW19,2,2*%
%TO.N,Net-(D19-A)*%
X78740000Y-52070000D03*
%TD*%
%TO.P,SW66,1,1*%
%TO.N,Col_7*%
X153352500Y-111760000D03*
%TO.P,SW66,2,2*%
%TO.N,Net-(D66-A)*%
X159702500Y-109220000D03*
%TD*%
%TO.P,SW65,1,1*%
%TO.N,Col_6*%
X134302500Y-111760000D03*
%TO.P,SW65,2,2*%
%TO.N,Net-(D65-A)*%
X140652500Y-109220000D03*
%TD*%
%TO.P,SW33,1,1*%
%TO.N,Col_3*%
X62865000Y-73660000D03*
%TO.P,SW33,2,2*%
%TO.N,Net-(D33-A)*%
X69215000Y-71120000D03*
%TD*%
%TO.P,SW56,1,1*%
%TO.N,Col_11*%
X220027500Y-92710000D03*
%TO.P,SW56,2,2*%
%TO.N,Net-(D56-A)*%
X226377500Y-90170000D03*
%TD*%
%TO.P,SW3,1,1*%
%TO.N,Col_2*%
X72390000Y-35560000D03*
%TO.P,SW3,2,2*%
%TO.N,Net-(D3-A)*%
X78740000Y-33020000D03*
%TD*%
%TO.P,SW77,1,1*%
%TO.N,Col_6*%
X84296250Y-130810000D03*
%TO.P,SW77,2,2*%
%TO.N,Net-(D77-A)*%
X90646250Y-128270000D03*
%TD*%
%TO.P,SW11,1,1*%
%TO.N,Col_10*%
X224790000Y-35560000D03*
%TO.P,SW11,2,2*%
%TO.N,Net-(D11-A)*%
X231140000Y-33020000D03*
%TD*%
%TO.P,SW15,1,1*%
%TO.N,Col_14*%
X300990000Y-35560000D03*
%TO.P,SW15,2,2*%
%TO.N,Net-(D15-A)*%
X307340000Y-33020000D03*
%TD*%
%TO.P,SW29,1,1*%
%TO.N,Col_12*%
X262890000Y-54610000D03*
%TO.P,SW29,2,2*%
%TO.N,Net-(D29-A)*%
X269240000Y-52070000D03*
%TD*%
%TO.P,SW32,1,1*%
%TO.N,Col_2*%
X39052500Y-73660000D03*
%TO.P,SW32,2,2*%
%TO.N,Net-(D32-A)*%
X45402500Y-71120000D03*
%TD*%
%TO.P,SW44,1,1*%
%TO.N,Col_14*%
X272415000Y-73660000D03*
%TO.P,SW44,2,2*%
%TO.N,Net-(D44-A)*%
X278765000Y-71120000D03*
%TD*%
D11*
%TO.P,S6,*%
%TO.N,*%
X283368750Y-50165000D03*
X307181250Y-50165000D03*
%TD*%
D10*
%TO.P,SW40,1,1*%
%TO.N,Col_10*%
X196215000Y-73660000D03*
%TO.P,SW40,2,2*%
%TO.N,Net-(D40-A)*%
X202565000Y-71120000D03*
%TD*%
%TO.P,SW71,1,1*%
%TO.N,Col_13*%
X248602500Y-111760000D03*
%TO.P,SW71,2,2*%
%TO.N,Net-(D71-A)*%
X254952500Y-109220000D03*
%TD*%
%TO.P,SW30,1,1*%
%TO.N,Col_15*%
X291465000Y-54610000D03*
%TO.P,SW30,2,2*%
%TO.N,Net-(D30-A)*%
X297815000Y-52070000D03*
%TD*%
%TO.P,SW1,1,1*%
%TO.N,Col_0*%
X34290000Y-35560000D03*
%TO.P,SW1,2,2*%
%TO.N,Net-(D1-A)*%
X40640000Y-33020000D03*
%TD*%
%TO.P,SW12,1,1*%
%TO.N,Col_11*%
X243840000Y-35560000D03*
%TO.P,SW12,2,2*%
%TO.N,Net-(D12-A)*%
X250190000Y-33020000D03*
%TD*%
%TO.P,SW47,1,1*%
%TO.N,Col_2*%
X41433750Y-92710000D03*
%TO.P,SW47,2,2*%
%TO.N,Net-(D47-A)*%
X47783750Y-90170000D03*
%TD*%
%TO.P,SW73,1,1*%
%TO.N,Col_15*%
X300990000Y-111760000D03*
%TO.P,SW73,2,2*%
%TO.N,Net-(D73-A)*%
X307340000Y-109220000D03*
%TD*%
%TO.P,SW54,1,1*%
%TO.N,Col_9*%
X181927500Y-92710000D03*
%TO.P,SW54,2,2*%
%TO.N,Net-(D54-A)*%
X188277500Y-90170000D03*
%TD*%
D11*
%TO.P,S2,*%
%TO.N,*%
X38100000Y-107315000D03*
X61912500Y-107315000D03*
%TD*%
D10*
%TO.P,SW74,1,1*%
%TO.N,Col_0*%
X320040000Y-111760000D03*
%TO.P,SW74,2,2*%
%TO.N,Net-(D74-A)*%
X326390000Y-109220000D03*
%TD*%
%TO.P,SW59,1,1*%
%TO.N,Col_15*%
X289083750Y-92710000D03*
%TO.P,SW59,2,2*%
%TO.N,Net-(D59-A)*%
X295433750Y-90170000D03*
%TD*%
%TO.P,SW26,1,1*%
%TO.N,Col_9*%
X205740000Y-54610000D03*
%TO.P,SW26,2,2*%
%TO.N,Net-(D26-A)*%
X212090000Y-52070000D03*
%TD*%
%TO.P,SW23,1,1*%
%TO.N,Col_6*%
X148590000Y-54610000D03*
%TO.P,SW23,2,2*%
%TO.N,Net-(D23-A)*%
X154940000Y-52070000D03*
%TD*%
%TO.P,SW37,1,1*%
%TO.N,Col_7*%
X139065000Y-73660000D03*
%TO.P,SW37,2,2*%
%TO.N,Net-(D37-A)*%
X145415000Y-71120000D03*
%TD*%
%TO.P,SW2,1,1*%
%TO.N,Col_1*%
X53340000Y-35560000D03*
%TO.P,SW2,2,2*%
%TO.N,Net-(D2-A)*%
X59690000Y-33020000D03*
%TD*%
%TO.P,SW43,1,1*%
%TO.N,Col_13*%
X253365000Y-73660000D03*
%TO.P,SW43,2,2*%
%TO.N,Net-(D43-A)*%
X259715000Y-71120000D03*
%TD*%
%TO.P,SW36,1,1*%
%TO.N,Col_6*%
X120015000Y-73660000D03*
%TO.P,SW36,2,2*%
%TO.N,Net-(D36-A)*%
X126365000Y-71120000D03*
%TD*%
%TO.P,SW20,1,1*%
%TO.N,Col_3*%
X91440000Y-54610000D03*
%TO.P,SW20,2,2*%
%TO.N,Net-(D20-A)*%
X97790000Y-52070000D03*
%TD*%
%TO.P,SW69,1,1*%
%TO.N,Col_10*%
X210502500Y-111760000D03*
%TO.P,SW69,2,2*%
%TO.N,Net-(D69-A)*%
X216852500Y-109220000D03*
%TD*%
%TO.P,SW4,1,1*%
%TO.N,Col_3*%
X91440000Y-35560000D03*
%TO.P,SW4,2,2*%
%TO.N,Net-(D4-A)*%
X97790000Y-33020000D03*
%TD*%
%TO.P,SW46,1,1*%
%TO.N,Col_0*%
X320040000Y-73660000D03*
%TO.P,SW46,2,2*%
%TO.N,Net-(D46-A)*%
X326390000Y-71120000D03*
%TD*%
%TO.P,SW18,1,1*%
%TO.N,Col_1*%
X53340000Y-54610000D03*
%TO.P,SW18,2,2*%
%TO.N,Net-(D18-A)*%
X59690000Y-52070000D03*
%TD*%
%TO.P,SW50,1,1*%
%TO.N,Col_5*%
X105727500Y-92710000D03*
%TO.P,SW50,2,2*%
%TO.N,Net-(D50-A)*%
X112077500Y-90170000D03*
%TD*%
%TO.P,SW53,1,1*%
%TO.N,Col_8*%
X162877500Y-92710000D03*
%TO.P,SW53,2,2*%
%TO.N,Net-(D53-A)*%
X169227500Y-90170000D03*
%TD*%
%TO.P,SW67,1,1*%
%TO.N,Col_8*%
X172402500Y-111760000D03*
%TO.P,SW67,2,2*%
%TO.N,Net-(D67-A)*%
X178752500Y-109220000D03*
%TD*%
%TO.P,SW35,1,1*%
%TO.N,Col_5*%
X100965000Y-73660000D03*
%TO.P,SW35,2,2*%
%TO.N,Net-(D35-A)*%
X107315000Y-71120000D03*
%TD*%
%TO.P,SW38,1,1*%
%TO.N,Col_8*%
X158115000Y-73660000D03*
%TO.P,SW38,2,2*%
%TO.N,Net-(D38-A)*%
X164465000Y-71120000D03*
%TD*%
%TO.P,SW17,1,1*%
%TO.N,Col_0*%
X34290000Y-54610000D03*
%TO.P,SW17,2,2*%
%TO.N,Net-(D17-A)*%
X40640000Y-52070000D03*
%TD*%
%TO.P,SW60,1,1*%
%TO.N,Col_0*%
X320040000Y-92710000D03*
%TO.P,SW60,2,2*%
%TO.N,Net-(D60-A)*%
X326390000Y-90170000D03*
%TD*%
%TO.P,SW28,1,1*%
%TO.N,Col_11*%
X243840000Y-54610000D03*
%TO.P,SW28,2,2*%
%TO.N,Net-(D28-A)*%
X250190000Y-52070000D03*
%TD*%
%TO.P,SW21,1,1*%
%TO.N,Col_4*%
X110490000Y-54610000D03*
%TO.P,SW21,2,2*%
%TO.N,Net-(D21-A)*%
X116840000Y-52070000D03*
%TD*%
%TO.P,SW68,1,1*%
%TO.N,Col_9*%
X191452500Y-111760000D03*
%TO.P,SW68,2,2*%
%TO.N,Net-(D68-A)*%
X197802500Y-109220000D03*
%TD*%
%TO.P,SW41,1,1*%
%TO.N,Col_11*%
X215265000Y-73660000D03*
%TO.P,SW41,2,2*%
%TO.N,Net-(D41-A)*%
X221615000Y-71120000D03*
%TD*%
%TO.P,SW55,1,1*%
%TO.N,Col_10*%
X200977500Y-92710000D03*
%TO.P,SW55,2,2*%
%TO.N,Net-(D55-A)*%
X207327500Y-90170000D03*
%TD*%
%TO.P,SW58,1,1*%
%TO.N,Col_14*%
X258127500Y-92710000D03*
%TO.P,SW58,2,2*%
%TO.N,Net-(D58-A)*%
X264477500Y-90170000D03*
%TD*%
%TO.P,SW64,1,1*%
%TO.N,Col_5*%
X115252500Y-111760000D03*
%TO.P,SW64,2,2*%
%TO.N,Net-(D64-A)*%
X121602500Y-109220000D03*
%TD*%
%TO.P,SW63,1,1*%
%TO.N,Col_4*%
X96202500Y-111760000D03*
%TO.P,SW63,2,2*%
%TO.N,Net-(D63-A)*%
X102552500Y-109220000D03*
%TD*%
%TO.P,SW13,1,1*%
%TO.N,Col_12*%
X262890000Y-35560000D03*
%TO.P,SW13,2,2*%
%TO.N,Net-(D13-A)*%
X269240000Y-33020000D03*
%TD*%
%TO.P,SW39,1,1*%
%TO.N,Col_9*%
X177165000Y-73660000D03*
%TO.P,SW39,2,2*%
%TO.N,Net-(D39-A)*%
X183515000Y-71120000D03*
%TD*%
%TO.P,SW61,1,1*%
%TO.N,Col_2*%
X46196250Y-111760000D03*
%TO.P,SW61,2,2*%
%TO.N,Net-(D61-A)*%
X52546250Y-109220000D03*
%TD*%
%TO.P,SW48,1,1*%
%TO.N,Col_3*%
X67627500Y-92710000D03*
%TO.P,SW48,2,2*%
%TO.N,Net-(D48-A)*%
X73977500Y-90170000D03*
%TD*%
%TO.P,SW82,1,1*%
%TO.N,Col_13*%
X281940000Y-130810000D03*
%TO.P,SW82,2,2*%
%TO.N,Net-(D82-A)*%
X288290000Y-128270000D03*
%TD*%
%TO.P,SW52,1,1*%
%TO.N,Col_7*%
X143827500Y-92710000D03*
%TO.P,SW52,2,2*%
%TO.N,Net-(D52-A)*%
X150177500Y-90170000D03*
%TD*%
%TO.P,SW25,1,1*%
%TO.N,Col_8*%
X186690000Y-54610000D03*
%TO.P,SW25,2,2*%
%TO.N,Net-(D25-A)*%
X193040000Y-52070000D03*
%TD*%
%TO.P,SW24,1,1*%
%TO.N,Col_7*%
X167640000Y-54610000D03*
%TO.P,SW24,2,2*%
%TO.N,Net-(D24-A)*%
X173990000Y-52070000D03*
%TD*%
%TO.P,SW76,1,1*%
%TO.N,Col_2*%
X60483750Y-130810000D03*
%TO.P,SW76,2,2*%
%TO.N,Net-(D76-A)*%
X66833750Y-128270000D03*
%TD*%
%TO.P,SW7,1,1*%
%TO.N,Col_6*%
X148590000Y-35560000D03*
%TO.P,SW7,2,2*%
%TO.N,Net-(D7-A)*%
X154940000Y-33020000D03*
%TD*%
%TO.P,SW75,1,1*%
%TO.N,Col_1*%
X36671250Y-130810000D03*
%TO.P,SW75,2,2*%
%TO.N,Net-(D75-A)*%
X43021250Y-128270000D03*
%TD*%
%TO.P,SW42,1,1*%
%TO.N,Col_12*%
X234315000Y-73660000D03*
%TO.P,SW42,2,2*%
%TO.N,Net-(D42-A)*%
X240665000Y-71120000D03*
%TD*%
D11*
%TO.P,S1,*%
%TO.N,*%
X109537500Y-126365000D03*
X209550000Y-126365000D03*
%TD*%
D10*
%TO.P,SW83,1,1*%
%TO.N,Col_14*%
X300990000Y-130810000D03*
%TO.P,SW83,2,2*%
%TO.N,Net-(D83-A)*%
X307340000Y-128270000D03*
%TD*%
%TO.P,SW49,1,1*%
%TO.N,Col_4*%
X86677500Y-92710000D03*
%TO.P,SW49,2,2*%
%TO.N,Net-(D49-A)*%
X93027500Y-90170000D03*
%TD*%
%TO.P,SW9,1,1*%
%TO.N,Col_8*%
X186690000Y-35560000D03*
%TO.P,SW9,2,2*%
%TO.N,Net-(D9-A)*%
X193040000Y-33020000D03*
%TD*%
%TO.P,SW84,1,1*%
%TO.N,Col_15*%
X320040000Y-130810000D03*
%TO.P,SW84,2,2*%
%TO.N,Net-(D84-A)*%
X326390000Y-128270000D03*
%TD*%
%TO.P,SW6,1,1*%
%TO.N,Col_5*%
X129540000Y-35560000D03*
%TO.P,SW6,2,2*%
%TO.N,Net-(D6-A)*%
X135890000Y-33020000D03*
%TD*%
%TO.P,SW78,1,1*%
%TO.N,Col_9*%
X155733750Y-130810000D03*
%TO.P,SW78,2,2*%
%TO.N,Net-(D78-A)*%
X162083750Y-128270000D03*
%TD*%
%TO.P,SW22,1,1*%
%TO.N,Col_5*%
X129540000Y-54610000D03*
%TO.P,SW22,2,2*%
%TO.N,Net-(D22-A)*%
X135890000Y-52070000D03*
%TD*%
%TO.P,SW80,1,1*%
%TO.N,Col_11*%
X243840000Y-130810000D03*
%TO.P,SW80,2,2*%
%TO.N,Net-(D80-A)*%
X250190000Y-128270000D03*
%TD*%
%TO.P,SW16,1,1*%
%TO.N,Col_15*%
X320040000Y-35560000D03*
%TO.P,SW16,2,2*%
%TO.N,Net-(D16-A)*%
X326390000Y-33020000D03*
%TD*%
%TO.P,SW8,1,1*%
%TO.N,Col_7*%
X167640000Y-35560000D03*
%TO.P,SW8,2,2*%
%TO.N,Net-(D8-A)*%
X173990000Y-33020000D03*
%TD*%
%TO.P,SW34,1,1*%
%TO.N,Col_4*%
X81915000Y-73660000D03*
%TO.P,SW34,2,2*%
%TO.N,Net-(D34-A)*%
X88265000Y-71120000D03*
%TD*%
%TO.P,SW62,1,1*%
%TO.N,Col_3*%
X77152500Y-111760000D03*
%TO.P,SW62,2,2*%
%TO.N,Net-(D62-A)*%
X83502500Y-109220000D03*
%TD*%
%TO.P,SW31,1,1*%
%TO.N,Col_0*%
X320040000Y-54610000D03*
%TO.P,SW31,2,2*%
%TO.N,Net-(D31-A)*%
X326390000Y-52070000D03*
%TD*%
%TO.P,SW79,1,1*%
%TO.N,Col_10*%
X224790000Y-130810000D03*
%TO.P,SW79,2,2*%
%TO.N,Net-(D79-A)*%
X231140000Y-128270000D03*
%TD*%
%TO.P,SW5,1,1*%
%TO.N,Col_4*%
X110490000Y-35560000D03*
%TO.P,SW5,2,2*%
%TO.N,Net-(D5-A)*%
X116840000Y-33020000D03*
%TD*%
%TO.P,SW14,1,1*%
%TO.N,Col_13*%
X281940000Y-35560000D03*
%TO.P,SW14,2,2*%
%TO.N,Net-(D14-A)*%
X288290000Y-33020000D03*
%TD*%
%TO.P,SW10,1,1*%
%TO.N,Col_9*%
X205740000Y-35560000D03*
%TO.P,SW10,2,2*%
%TO.N,Net-(D10-A)*%
X212090000Y-33020000D03*
%TD*%
%TO.P,SW51,1,1*%
%TO.N,Col_6*%
X124777500Y-92710000D03*
%TO.P,SW51,2,2*%
%TO.N,Net-(D51-A)*%
X131127500Y-90170000D03*
%TD*%
%TO.P,SW27,1,1*%
%TO.N,Col_10*%
X224790000Y-54610000D03*
%TO.P,SW27,2,2*%
%TO.N,Net-(D27-A)*%
X231140000Y-52070000D03*
%TD*%
D12*
%TO.P,U2,1,VCCA*%
%TO.N,+5V*%
X50662446Y-21085029D03*
%TO.P,U2,2,1A*%
%TO.N,RGB_OUTPUT*%
X50662446Y-20585029D03*
%TO.P,U2,3,2A*%
%TO.N,unconnected-(U2-2A-Pad3)*%
X50662446Y-20085029D03*
%TO.P,U2,4,GND*%
%TO.N,GND*%
X50662446Y-19585029D03*
%TO.P,U2,5,DIR*%
%TO.N,+3.3V*%
X47862446Y-19585029D03*
%TO.P,U2,6,2B*%
%TO.N,unconnected-(U2-2B-Pad6)*%
X47862446Y-20085029D03*
%TO.P,U2,7,1B*%
%TO.N,RGB_INPUT*%
X47862446Y-20585029D03*
%TO.P,U2,8,VCCB*%
%TO.N,+3.3V*%
X47862446Y-21085029D03*
%TD*%
D10*
%TO.P,SW45,1,1*%
%TO.N,Col_15*%
X296227500Y-73660000D03*
%TO.P,SW45,2,2*%
%TO.N,Net-(D45-A)*%
X302577500Y-71120000D03*
%TD*%
%TO.P,SW72,1,1*%
%TO.N,Col_14*%
X274796250Y-111760000D03*
%TO.P,SW72,2,2*%
%TO.N,Net-(D72-A)*%
X281146250Y-109220000D03*
%TD*%
%TO.P,SW57,1,1*%
%TO.N,Col_12*%
X239077500Y-92710000D03*
%TO.P,SW57,2,2*%
%TO.N,Net-(D57-A)*%
X245427500Y-90170000D03*
%TD*%
D13*
%TO.P,J1,S1,SHIELD*%
%TO.N,GND*%
X24387446Y-6780029D03*
D14*
X28567446Y-6780029D03*
D13*
X24387446Y1859971D03*
D14*
X28567446Y1859971D03*
%TD*%
D15*
%TO.N,GND*%
X176712446Y-81185029D03*
X209612446Y-119385029D03*
X223662446Y-43085029D03*
X104662446Y-100335029D03*
X44762446Y-117185029D03*
X290662446Y-62235029D03*
X52162446Y-42635029D03*
X128612446Y-62035029D03*
X166762446Y-62235029D03*
X204862446Y-42935029D03*
X90812446Y-42835029D03*
X162062446Y-100235029D03*
X52712446Y-61835029D03*
X59812446Y-138585029D03*
X91112446Y-62235029D03*
X204762446Y-62135029D03*
X242712446Y-138635029D03*
X242962446Y-42985029D03*
X123762446Y-100285029D03*
X228612446Y-119335029D03*
X114412446Y-119435029D03*
X299962446Y-138435029D03*
X214312446Y-81435029D03*
X319212446Y-43035029D03*
X237812446Y-100285029D03*
X252612446Y-81285029D03*
X154862446Y-138585029D03*
X37212446Y-79985029D03*
X33062446Y-61335029D03*
X71812446Y-42635029D03*
X147612446Y-42835029D03*
X280812446Y-42485029D03*
X318912446Y-138235029D03*
X109612446Y-42585029D03*
X199862446Y-100435029D03*
X33162446Y-42085029D03*
X318062446Y-100185029D03*
X287912446Y-100185029D03*
X76462446Y-119235029D03*
X224112446Y-62135029D03*
X262312446Y-62035029D03*
X40062446Y-99135029D03*
X185762446Y-62185029D03*
X233412446Y-81535029D03*
X42162446Y-20810029D03*
X318312446Y-81435029D03*
X95062446Y-119535029D03*
X247212446Y-119135029D03*
X271662446Y-81585029D03*
X156962446Y-81235029D03*
X261562446Y-138185029D03*
X295312446Y-81485029D03*
X148112446Y-62185029D03*
X195312446Y-81485029D03*
X280312446Y-138535029D03*
X180812446Y-100435029D03*
X100062446Y-81185029D03*
X118962446Y-81235029D03*
X81012446Y-81235029D03*
X190162446Y-119435029D03*
X223412446Y-138285029D03*
X86016727Y-100356783D03*
X71812446Y-62085029D03*
X62262446Y-81235029D03*
X274012446Y-119635029D03*
X300212446Y-42935029D03*
X243062446Y-62335029D03*
X50699946Y-17597529D03*
X35212446Y-137485029D03*
X142712446Y-100335029D03*
X219162446Y-100285029D03*
X185662446Y-42885029D03*
X66462446Y-100335029D03*
X83462446Y-138635029D03*
X109762446Y-62185029D03*
X256812446Y-100435029D03*
X129112446Y-42585029D03*
X166912446Y-42885029D03*
X318812446Y-119185029D03*
X261862446Y-42785029D03*
X299512446Y-119435029D03*
X318262446Y-61335029D03*
X171662446Y-119335029D03*
X152712446Y-119185029D03*
X133512446Y-119235029D03*
X138162446Y-81535029D03*
%TO.N,+3.3V*%
X49862446Y-1560029D03*
X68904948Y-500029D03*
X47699943Y-476278D03*
X66722446Y1682471D03*
X68904947Y-6652529D03*
X58059948Y1682471D03*
X47912446Y-17760029D03*
X58819943Y-9602537D03*
X47699943Y-5822524D03*
%TO.N,+5V*%
X54312446Y-120735029D03*
X224112446Y-83035029D03*
X90762446Y-82885029D03*
X68812446Y-140285029D03*
X271662446Y-140235029D03*
X281162446Y-82885029D03*
X164812446Y-140285029D03*
X128562446Y-82785029D03*
X209512446Y-101985029D03*
X248062446Y-102085029D03*
X309762446Y-140285029D03*
X262112446Y-82835029D03*
X157162446Y-63785029D03*
X238352257Y-120991771D03*
X104212446Y-120885029D03*
X233512446Y-140185029D03*
X61712446Y-44035029D03*
X305212446Y-82885029D03*
X161812446Y-120985029D03*
X195112446Y-44235029D03*
X242962446Y-82935029D03*
X290112446Y-140435029D03*
X134062446Y-101885029D03*
X138062446Y-63635029D03*
X95262446Y-101935029D03*
X327312446Y-82785029D03*
X199412446Y-121035029D03*
X100012446Y-44235029D03*
X266562446Y-102035029D03*
X93362446Y-140285029D03*
X147662446Y-83085029D03*
X42462446Y-44185029D03*
X271362446Y-63535029D03*
X44212446Y-63335029D03*
X214162446Y-44435029D03*
X176562446Y-63785029D03*
X327412446Y-62985029D03*
X219612446Y-121035029D03*
X309112446Y-120985029D03*
X76212446Y-101935029D03*
X85512446Y-120885029D03*
X166412446Y-82835029D03*
X180762446Y-121035029D03*
X233212446Y-44535029D03*
X297912446Y-101885029D03*
X299712446Y-63735029D03*
X63362446Y-63285029D03*
X100062446Y-63735029D03*
X80662446Y-43985029D03*
X123762446Y-121035029D03*
X328012446Y-140085029D03*
X43662446Y-141085029D03*
X328362446Y-120935029D03*
X71862446Y-82985029D03*
X195462446Y-63735029D03*
X172212446Y-101785029D03*
X51112446Y-101785029D03*
X229412446Y-101885029D03*
X186412446Y-82885029D03*
X118812446Y-63735029D03*
X48062446Y-82585029D03*
X81212446Y-63535029D03*
X176312446Y-44235029D03*
X109862446Y-82885029D03*
X118962446Y-43985029D03*
X256612446Y-120735029D03*
X49074946Y-22697529D03*
X252562446Y-140235029D03*
X290162446Y-43985029D03*
X138112446Y-43935029D03*
X157562446Y-44235029D03*
X114562446Y-101935029D03*
X328212446Y-44485029D03*
X204641485Y-82953349D03*
X214312446Y-63685029D03*
X190562446Y-102035029D03*
X41062446Y-635029D03*
X252462446Y-44485029D03*
X325212446Y-103035029D03*
X142912446Y-120985029D03*
X309212446Y-44485029D03*
X253062446Y-63685029D03*
X283462446Y-121035029D03*
X234062446Y-63685029D03*
X152910412Y-101910984D03*
X271212446Y-44285029D03*
%TO.N,VBUS*%
X37237446Y-2960029D03*
X30707446Y-4910029D03*
X30707446Y-10029D03*
%TO.N,Row_0*%
X67287446Y-12535029D03*
X24287446Y-39335029D03*
%TO.N,/BOOT0*%
X48349943Y-4210029D03*
X60599946Y-4210029D03*
%TO.N,Row_1*%
X67787446Y-13935029D03*
X28162446Y-59760029D03*
%TO.N,Row_2*%
X66612446Y-13985029D03*
X30937446Y-77385029D03*
%TO.N,Row_4*%
X22987446Y6164971D03*
X29461108Y-112632928D03*
%TO.N,Row_5*%
X31252013Y-134539884D03*
X20587446Y5764971D03*
%TO.N,RGB_OUTPUT*%
X52412446Y-20610029D03*
X31712446Y-43060029D03*
%TO.N,Col_0*%
X61837446Y-3060029D03*
%TO.N,Col_1*%
X63037446Y-2935029D03*
%TO.N,Col_2*%
X62612446Y-5310029D03*
%TO.N,Col_3*%
X62662446Y-6285029D03*
%TO.N,Col_5*%
X96212446Y-25485029D03*
%TO.N,Col_6*%
X121987446Y-26885029D03*
X62887446Y-14885029D03*
%TO.N,Col_7*%
X63612446Y-15785029D03*
%TO.N,Col_8*%
X64687446Y-16435029D03*
%TO.N,Col_9*%
X66437446Y-17360029D03*
%TO.N,Col_10*%
X65862446Y-5335029D03*
X224787446Y-27435029D03*
%TO.N,Col_11*%
X244262446Y-27935029D03*
X65387446Y-6210029D03*
%TO.N,Col_13*%
X70562446Y-9910029D03*
%TO.N,Col_14*%
X69612446Y-10585029D03*
%TO.N,Col_15*%
X69687446Y-11510029D03*
%TO.N,RGB_INPUT*%
X66962446Y-11610029D03*
X46262446Y-20685029D03*
X54637446Y-15160029D03*
%TO.N,Net-(LED16-DOUT)*%
X33412446Y-63235029D03*
X329162446Y-43485029D03*
%TO.N,Net-(LED31-DOUT)*%
X37662446Y-81735029D03*
X327412446Y-61485029D03*
%TO.N,Net-(LED46-DOUT)*%
X327562446Y-81235029D03*
X40662446Y-101735029D03*
%TO.N,Net-(LED61-DOUT)*%
X327162446Y-100235029D03*
X41862446Y-116735029D03*
%TO.N,Net-(LED76-DOUT)*%
X327962446Y-119285029D03*
X35362446Y-139435029D03*
%TD*%
D16*
%TO.N,GND*%
X50662446Y-17635029D02*
X50662446Y-19459029D01*
X50699946Y-17597529D02*
X50662446Y-17635029D01*
D17*
%TO.N,+3.3V*%
X68904948Y-6652528D02*
X68904947Y-6652529D01*
D18*
X48862446Y-19585029D02*
X49212446Y-19935029D01*
D17*
X66722448Y1682471D02*
X66722446Y1682471D01*
D18*
X49212446Y-19935029D02*
X49212446Y-20785029D01*
X47862446Y-19585029D02*
X48862446Y-19585029D01*
D17*
X49862446Y-476278D02*
X57141194Y-476278D01*
X49862446Y-476278D02*
X49862446Y-1560029D01*
D18*
X49212446Y-20785029D02*
X48912446Y-21085029D01*
D17*
X66722446Y1682471D02*
X58059948Y1682471D01*
X47888446Y-19559029D02*
X47862446Y-19559029D01*
X47912446Y-19535029D02*
X47888446Y-19559029D01*
X58059948Y442476D02*
X58059948Y1682471D01*
X47699943Y-476278D02*
X49862446Y-476278D01*
D18*
X48912446Y-21085029D02*
X47862446Y-21085029D01*
D17*
X68904948Y-500029D02*
X68904948Y-6652528D01*
X47699943Y-476278D02*
X47699943Y-5822524D01*
X65954939Y-9602537D02*
X58819943Y-9602537D01*
D18*
X47862446Y-19585029D02*
X47888446Y-19559029D01*
D17*
X47912446Y-17760029D02*
X47912446Y-19535029D01*
X68904947Y-6652529D02*
G75*
G02*
X65954939Y-9602537I-2950007J-1D01*
G01*
X57141194Y-476278D02*
G75*
G03*
X58059978Y442476I6J918778D01*
G01*
X68904948Y-500029D02*
G75*
G03*
X66722448Y1682548I-2182548J29D01*
G01*
D19*
%TO.N,+5V*%
X49074946Y-22672529D02*
X50586446Y-21161029D01*
X50586446Y-21161029D02*
X50662446Y-21161029D01*
X49074946Y-22697529D02*
X49074946Y-22672529D01*
%TO.N,VBUS*%
X30707446Y-2460029D02*
X30707446Y-10029D01*
X31207446Y-2960029D02*
X37237446Y-2960029D01*
X30707446Y-3460029D02*
X30707446Y-4910029D01*
D18*
%TO.N,/BOOT0*%
X48349943Y-4210029D02*
X60599946Y-4210029D01*
%TO.N,Row_4*%
X22412446Y6164971D02*
X20912446Y4664971D01*
X26762446Y-112660029D02*
X29337446Y-112660029D01*
X22987446Y6164971D02*
X22412446Y6164971D01*
X20887446Y-110029D02*
X20787446Y-210029D01*
X20787446Y-210029D02*
X20787446Y-106685029D01*
X20912446Y4664971D02*
X20912446Y-85029D01*
X20787446Y-106685029D02*
X26762446Y-112660029D01*
X20912446Y-85029D02*
X20887446Y-110029D01*
%TO.N,RGB_OUTPUT*%
X52412446Y-20610029D02*
X50687446Y-20610029D01*
X50687446Y-20610029D02*
X50662446Y-20585029D01*
%TO.N,Col_0*%
X320040000Y-54610000D02*
X320040000Y-73660000D01*
X320040000Y-73660000D02*
X320040000Y-92710000D01*
X61837446Y-4060029D02*
X60737446Y-5160029D01*
X34290000Y-26582475D02*
X34290000Y-35560000D01*
X34290000Y-54610000D02*
X34290000Y-35560000D01*
X61837446Y-3060029D02*
X61837446Y-4060029D01*
X60737446Y-5160029D02*
X55712446Y-5160029D01*
X55712446Y-5160029D02*
X34290000Y-26582475D01*
X320040000Y-92710000D02*
X320040000Y-111760000D01*
%TO.N,Col_1*%
X56087446Y-5910029D02*
X56037446Y-5910029D01*
X53340000Y-54610000D02*
X53340000Y-35560000D01*
X32162446Y-74485029D02*
X52037475Y-54610000D01*
X60612446Y-5910029D02*
X56087446Y-5910029D01*
X36671250Y-130810000D02*
X32162446Y-126301196D01*
X32162446Y-126301196D02*
X32162446Y-74485029D01*
X63037446Y-2935029D02*
X63037446Y-3485029D01*
X53340000Y-8657475D02*
X53340000Y-35560000D01*
X52037475Y-54610000D02*
X53340000Y-54610000D01*
X56087446Y-5910029D02*
X53340000Y-8657475D01*
X63037446Y-3485029D02*
X60612446Y-5910029D01*
%TO.N,Col_2*%
X39052500Y-73660000D02*
X52237475Y-73660000D01*
X62612446Y-5310029D02*
X61137446Y-6785029D01*
X72390000Y-54610000D02*
X72390000Y-35560000D01*
X56812446Y-6785029D02*
X56237446Y-7360029D01*
X56237446Y-7360029D02*
X56237446Y-19407446D01*
X61137446Y-6785029D02*
X56812446Y-6785029D01*
X39052500Y-73660000D02*
X39052500Y-90328750D01*
X52237475Y-73660000D02*
X71287475Y-54610000D01*
X46196250Y-121768833D02*
X55237417Y-130810000D01*
X39052500Y-90328750D02*
X41433750Y-92710000D01*
X41433750Y-92710000D02*
X41433750Y-106997500D01*
X55237417Y-130810000D02*
X60483750Y-130810000D01*
X71287475Y-54610000D02*
X72390000Y-54610000D01*
X56237446Y-19407446D02*
X72390000Y-35560000D01*
X46196250Y-111760000D02*
X46196250Y-121768833D01*
X41433750Y-106997500D02*
X46196250Y-111760000D01*
%TO.N,Col_3*%
X90976174Y-54610000D02*
X91440000Y-54610000D01*
X62865000Y-73660000D02*
X71926174Y-73660000D01*
X62662446Y-6285029D02*
X61762446Y-7185029D01*
X67627500Y-102235000D02*
X77152500Y-111760000D01*
X86587446Y-27885029D02*
X91440000Y-32737583D01*
X62865000Y-73660000D02*
X62865000Y-87947500D01*
X62865000Y-87947500D02*
X67627500Y-92710000D01*
X61762446Y-7185029D02*
X58937446Y-7185029D01*
X91440000Y-32737583D02*
X91440000Y-35560000D01*
X71926174Y-73660000D02*
X90976174Y-54610000D01*
X67627500Y-92710000D02*
X67627500Y-102235000D01*
X57337446Y-8785029D02*
X57337446Y-13960029D01*
X58937446Y-7185029D02*
X57337446Y-8785029D01*
X71262446Y-27885029D02*
X86587446Y-27885029D01*
X57337446Y-13960029D02*
X71262446Y-27885029D01*
X91440000Y-54610000D02*
X91440000Y-35560000D01*
%TO.N,Col_4*%
X110026174Y-54610000D02*
X110490000Y-54610000D01*
X90976174Y-73660000D02*
X110026174Y-54610000D01*
X110490000Y-54610000D02*
X110490000Y-35560000D01*
X81915000Y-73660000D02*
X81915000Y-87947500D01*
X81915000Y-73660000D02*
X90976174Y-73660000D01*
X86677500Y-102235000D02*
X96202500Y-111760000D01*
X86677500Y-92710000D02*
X86677500Y-102235000D01*
X81915000Y-87947500D02*
X86677500Y-92710000D01*
%TO.N,Col_5*%
X105727500Y-102235000D02*
X115252500Y-111760000D01*
X100965000Y-87947500D02*
X105727500Y-92710000D01*
X100965000Y-73660000D02*
X100965000Y-87947500D01*
X105727500Y-92710000D02*
X105727500Y-102235000D01*
X129540000Y-54610000D02*
X129540000Y-35560000D01*
X124212446Y-25485029D02*
X129540000Y-30812583D01*
X96212446Y-25485029D02*
X124212446Y-25485029D01*
X110026174Y-73660000D02*
X129076174Y-54610000D01*
X129540000Y-30812583D02*
X129540000Y-35560000D01*
X129076174Y-54610000D02*
X129540000Y-54610000D01*
X100965000Y-73660000D02*
X110026174Y-73660000D01*
%TO.N,Col_6*%
X148126174Y-54610000D02*
X148590000Y-54610000D01*
X62712446Y-18360029D02*
X71237446Y-26885029D01*
X84296250Y-130810000D02*
X118587475Y-130810000D01*
X90012446Y-26885029D02*
X121987446Y-26885029D01*
X62662446Y-15110029D02*
X62662446Y-18310029D01*
X124777500Y-102235000D02*
X124777500Y-92710000D01*
X124777500Y-92710000D02*
X120015000Y-87947500D01*
X120015000Y-73660000D02*
X129076174Y-73660000D01*
X120015000Y-87947500D02*
X120015000Y-73660000D01*
X118587475Y-130810000D02*
X134302500Y-115094975D01*
X62887446Y-14885029D02*
X62662446Y-15110029D01*
X129076174Y-73660000D02*
X148126174Y-54610000D01*
X134302500Y-115094975D02*
X134302500Y-111760000D01*
X148590000Y-54610000D02*
X148590000Y-35560000D01*
X134302500Y-111760000D02*
X124777500Y-102235000D01*
X71237446Y-26885029D02*
X90012446Y-26885029D01*
X62662446Y-18310029D02*
X62712446Y-18360029D01*
%TO.N,Col_7*%
X148126174Y-73660000D02*
X167176174Y-54610000D01*
X70611446Y-24884029D02*
X156964029Y-24884029D01*
X143827500Y-102235000D02*
X153352500Y-111760000D01*
X139065000Y-73660000D02*
X148126174Y-73660000D01*
X167176174Y-54610000D02*
X167640000Y-54610000D01*
X63612446Y-15785029D02*
X63612446Y-17885029D01*
X156964029Y-24884029D02*
X167640000Y-35560000D01*
X143827500Y-92710000D02*
X143827500Y-102235000D01*
X139065000Y-73660000D02*
X139065000Y-87947500D01*
X167640000Y-35560000D02*
X167640000Y-54610000D01*
X63612446Y-17885029D02*
X70611446Y-24884029D01*
X139065000Y-87947500D02*
X143827500Y-92710000D01*
%TO.N,Col_8*%
X158115000Y-87947500D02*
X162877500Y-92710000D01*
X186690000Y-30787583D02*
X186690000Y-35560000D01*
X162877500Y-102235000D02*
X172402500Y-111760000D01*
X184787475Y-54610000D02*
X186690000Y-54610000D01*
X186690000Y-35560000D02*
X186690000Y-54610000D01*
X162877500Y-92710000D02*
X162877500Y-102235000D01*
X70212446Y-23460029D02*
X179362446Y-23460029D01*
X64687446Y-16435029D02*
X64687446Y-17935029D01*
X158115000Y-73660000D02*
X158115000Y-87947500D01*
X64687446Y-17935029D02*
X70212446Y-23460029D01*
X158115000Y-73660000D02*
X165737475Y-73660000D01*
X165737475Y-73660000D02*
X184787475Y-54610000D01*
X179362446Y-23460029D02*
X186690000Y-30787583D01*
%TO.N,Col_9*%
X177165000Y-73660000D02*
X184737475Y-73660000D01*
X189187417Y-111760000D02*
X191452500Y-111760000D01*
X184737475Y-73660000D02*
X203787475Y-54610000D01*
X66437446Y-17360029D02*
X66437446Y-17910029D01*
X203787475Y-54610000D02*
X205740000Y-54610000D01*
X177587475Y-130810000D02*
X186662446Y-121735029D01*
X181927500Y-102235000D02*
X191452500Y-111760000D01*
X186662446Y-114235029D02*
X189162446Y-111735029D01*
X155733750Y-130810000D02*
X177587475Y-130810000D01*
X177165000Y-87947500D02*
X181927500Y-92710000D01*
X177165000Y-73660000D02*
X177165000Y-87947500D01*
X189162446Y-111735029D02*
X189187417Y-111760000D01*
X66437446Y-17910029D02*
X71237446Y-22710029D01*
X192890029Y-22710029D02*
X205740000Y-35560000D01*
X205740000Y-35560000D02*
X205740000Y-54610000D01*
X186662446Y-121735029D02*
X186662446Y-114235029D01*
X71237446Y-22710029D02*
X192890029Y-22710029D01*
X181927500Y-92710000D02*
X181927500Y-102235000D01*
%TO.N,Col_10*%
X196215000Y-87947500D02*
X200977500Y-92710000D01*
X196215000Y-73660000D02*
X203237475Y-73660000D01*
X203237475Y-73660000D02*
X222287475Y-54610000D01*
X200977500Y-102235000D02*
X210502500Y-111760000D01*
X222287475Y-54610000D02*
X224790000Y-54610000D01*
X224790000Y-35560000D02*
X224790000Y-54610000D01*
X224787446Y-27435029D02*
X224790000Y-27437583D01*
X210502500Y-121575083D02*
X219737417Y-130810000D01*
X196215000Y-73660000D02*
X196215000Y-87947500D01*
X200977500Y-92710000D02*
X200977500Y-102235000D01*
X210502500Y-111760000D02*
X210502500Y-121575083D01*
X219737417Y-130810000D02*
X224790000Y-130810000D01*
X224790000Y-27437583D02*
X224790000Y-35560000D01*
%TO.N,Col_11*%
X220027500Y-92710000D02*
X220027500Y-102235000D01*
X242287475Y-54610000D02*
X243840000Y-54610000D01*
X244262446Y-27935029D02*
X243840000Y-28357475D01*
X229552500Y-111760000D02*
X229552500Y-121125083D01*
X223237475Y-73660000D02*
X242287475Y-54610000D01*
X220027500Y-102235000D02*
X229552500Y-111760000D01*
X229552500Y-121125083D02*
X239237417Y-130810000D01*
X243840000Y-28357475D02*
X243840000Y-35560000D01*
X215265000Y-73660000D02*
X223237475Y-73660000D01*
X215265000Y-87947500D02*
X220027500Y-92710000D01*
X215265000Y-73660000D02*
X215265000Y-87947500D01*
X243840000Y-35560000D02*
X243840000Y-54610000D01*
X239237417Y-130810000D02*
X243840000Y-130810000D01*
%TO.N,Col_12*%
X254815029Y-122735029D02*
X262890000Y-130810000D01*
X262890000Y-35560000D02*
X262890000Y-54610000D01*
X242237475Y-73660000D02*
X261287475Y-54610000D01*
X244162446Y-122735029D02*
X254815029Y-122735029D01*
X234315000Y-73660000D02*
X234315000Y-87947500D01*
X239077500Y-101150083D02*
X244162446Y-106235029D01*
X234315000Y-87947500D02*
X239077500Y-92710000D01*
X261287475Y-54610000D02*
X262890000Y-54610000D01*
X244162446Y-106235029D02*
X244162446Y-122735029D01*
X234315000Y-73660000D02*
X242237475Y-73660000D01*
X239077500Y-92710000D02*
X239077500Y-101150083D01*
%TO.N,Col_13*%
X281940000Y-27037583D02*
X281940000Y-35560000D01*
X262890000Y-111760000D02*
X281940000Y-130810000D01*
X68912446Y-9910029D02*
X68137446Y-10685029D01*
X68137446Y-12585029D02*
X77562446Y-22010029D01*
X277162446Y-60735029D02*
X277162446Y-38735029D01*
X70562446Y-9910029D02*
X68912446Y-9910029D01*
X253365000Y-106997500D02*
X248602500Y-111760000D01*
X253365000Y-73660000D02*
X264237475Y-73660000D01*
X276912446Y-22010029D02*
X281940000Y-27037583D01*
X248602500Y-111760000D02*
X262890000Y-111760000D01*
X277162446Y-38735029D02*
X280337475Y-35560000D01*
X68137446Y-10685029D02*
X68137446Y-12585029D01*
X280337475Y-35560000D02*
X281940000Y-35560000D01*
X253365000Y-73660000D02*
X253365000Y-106997500D01*
X77562446Y-22010029D02*
X276912446Y-22010029D01*
X264237475Y-73660000D02*
X277162446Y-60735029D01*
%TO.N,Col_14*%
X300990000Y-124062583D02*
X288687417Y-111760000D01*
X69187446Y-10585029D02*
X68887446Y-10885029D01*
X266687417Y-111760000D02*
X274796250Y-111760000D01*
X272415000Y-73660000D02*
X279162446Y-66912554D01*
X296662446Y-41235029D02*
X296662446Y-37735029D01*
X68887446Y-12485029D02*
X68862446Y-12510029D01*
X68862446Y-12510029D02*
X70112446Y-13760029D01*
X279162446Y-49735029D02*
X282162446Y-46735029D01*
X70112446Y-13760029D02*
X70112446Y-13785029D01*
X68887446Y-10885029D02*
X68887446Y-12485029D01*
X258127500Y-92710000D02*
X258127500Y-103200083D01*
X298837475Y-35560000D02*
X300990000Y-35560000D01*
X296662446Y-37735029D02*
X298837475Y-35560000D01*
X279162446Y-66912554D02*
X279162446Y-49735029D01*
X272415000Y-78422500D02*
X258127500Y-92710000D01*
X279190029Y-13760029D02*
X300990000Y-35560000D01*
X272415000Y-73660000D02*
X272415000Y-78422500D01*
X282162446Y-46735029D02*
X291162446Y-46735029D01*
X70112446Y-13760029D02*
X279190029Y-13760029D01*
X288687417Y-111760000D02*
X274796250Y-111760000D01*
X69612446Y-10585029D02*
X69187446Y-10585029D01*
X258127500Y-103200083D02*
X266687417Y-111760000D01*
X300990000Y-130810000D02*
X300990000Y-124062583D01*
X291162446Y-46735029D02*
X296662446Y-41235029D01*
%TO.N,Col_15*%
X296990029Y-12510029D02*
X320040000Y-35560000D01*
X291465000Y-51932475D02*
X297412446Y-45985029D01*
X299687417Y-111760000D02*
X300990000Y-111760000D01*
X296227500Y-85566250D02*
X289083750Y-92710000D01*
X296227500Y-73660000D02*
X296227500Y-85566250D01*
X312662446Y-41169788D02*
X318272234Y-35560000D01*
X320040000Y-130810000D02*
X320040000Y-121612583D01*
X291465000Y-68897500D02*
X296227500Y-73660000D01*
X289083750Y-92710000D02*
X289083750Y-101156333D01*
X69687446Y-11510029D02*
X70362446Y-11510029D01*
X312662446Y-45985029D02*
X312662446Y-41169788D01*
X320040000Y-121612583D02*
X310187417Y-111760000D01*
X297412446Y-45985029D02*
X312662446Y-45985029D01*
X310187417Y-111760000D02*
X300990000Y-111760000D01*
X70362446Y-11510029D02*
X71362446Y-12510029D01*
X291465000Y-54610000D02*
X291465000Y-51932475D01*
X318272234Y-35560000D02*
X320040000Y-35560000D01*
X71362446Y-12510029D02*
X296990029Y-12510029D01*
X289083750Y-101156333D02*
X299687417Y-111760000D01*
X291465000Y-54610000D02*
X291465000Y-68897500D01*
%TO.N,RGB_INPUT*%
X46362446Y-20585029D02*
X46262446Y-20685029D01*
X47862446Y-20585029D02*
X46362446Y-20585029D01*
%TD*%
%TA.AperFunction,Conductor*%
%TO.N,VBUS*%
G36*
X30726774Y-2263872D02*
G01*
X30744175Y-2263872D01*
X30748576Y-2264747D01*
X30764671Y-2271414D01*
X30781755Y-2274813D01*
X30785900Y-2276531D01*
X30791160Y-2280047D01*
X30800368Y-2286201D01*
X30816448Y-2292860D01*
X30820178Y-2295353D01*
X30832489Y-2307666D01*
X30832495Y-2307671D01*
X30846978Y-2317350D01*
X30850151Y-2320523D01*
X30859816Y-2334992D01*
X30859817Y-2334993D01*
X30872120Y-2347295D01*
X30874614Y-2351026D01*
X30881280Y-2367121D01*
X30881285Y-2367129D01*
X30890957Y-2381606D01*
X30892674Y-2385752D01*
X30896067Y-2402821D01*
X30902735Y-2418915D01*
X30903611Y-2423274D01*
X30903676Y-2441091D01*
X30903677Y-2441092D01*
X30907264Y-2459139D01*
X30907485Y-2461382D01*
X30907482Y-2507555D01*
X30907483Y-2507562D01*
X30936837Y-2597929D01*
X30936838Y-2597931D01*
X30936839Y-2597932D01*
X30992688Y-2674809D01*
X30992691Y-2674811D01*
X31069554Y-2730661D01*
X31069558Y-2730663D01*
X31069561Y-2730665D01*
X31132144Y-2751000D01*
X31159929Y-2760028D01*
X31159930Y-2760028D01*
X31159933Y-2760029D01*
X31206027Y-2760029D01*
X31208127Y-2760222D01*
X31212473Y-2761029D01*
X31212483Y-2761035D01*
X31212607Y-2761055D01*
X31237894Y-2766086D01*
X31237893Y-2766086D01*
X31247564Y-2768009D01*
X31281740Y-2774806D01*
X31285880Y-2776520D01*
X31310148Y-2792737D01*
X31346965Y-2817336D01*
X31350138Y-2820509D01*
X31374738Y-2857327D01*
X31390952Y-2881591D01*
X31392669Y-2885737D01*
X31401389Y-2929581D01*
X31407000Y-2957783D01*
X31407000Y-2962271D01*
X31401389Y-2990477D01*
X31392669Y-3034320D01*
X31390952Y-3038466D01*
X31374738Y-3062732D01*
X31350138Y-3099548D01*
X31346965Y-3102721D01*
X31310148Y-3127322D01*
X31285883Y-3143535D01*
X31281738Y-3145252D01*
X31263099Y-3148959D01*
X31237894Y-3153973D01*
X31208558Y-3159808D01*
X31206471Y-3160028D01*
X31202787Y-3160078D01*
X31202708Y-3160046D01*
X31202631Y-3160079D01*
X31159932Y-3160079D01*
X31159930Y-3160079D01*
X31159926Y-3160080D01*
X31069560Y-3189438D01*
X31069558Y-3189439D01*
X30992681Y-3245289D01*
X30992676Y-3245294D01*
X30936822Y-3322162D01*
X30936821Y-3322162D01*
X30907450Y-3412532D01*
X30907449Y-3412536D01*
X30907446Y-3459456D01*
X30907391Y-3460582D01*
X30903770Y-3497348D01*
X30902950Y-3500621D01*
X30896062Y-3517251D01*
X30896060Y-3517256D01*
X30892661Y-3534339D01*
X30890943Y-3538484D01*
X30881277Y-3552947D01*
X30881274Y-3552952D01*
X30874615Y-3569029D01*
X30872122Y-3572759D01*
X30859807Y-3585075D01*
X30859801Y-3585083D01*
X30850125Y-3599562D01*
X30846952Y-3602734D01*
X30832486Y-3612398D01*
X30832477Y-3612405D01*
X30820176Y-3624705D01*
X30816447Y-3627197D01*
X30800355Y-3633864D01*
X30800352Y-3633865D01*
X30785866Y-3643542D01*
X30781721Y-3645258D01*
X30764654Y-3648651D01*
X30752938Y-3653504D01*
X30748575Y-3655311D01*
X30744176Y-3656186D01*
X30726757Y-3656186D01*
X30709671Y-3659582D01*
X30705185Y-3659582D01*
X30692212Y-3657001D01*
X30688117Y-3656186D01*
X30688116Y-3656186D01*
X30670715Y-3656186D01*
X30666316Y-3655311D01*
X30650220Y-3648645D01*
X30650218Y-3648644D01*
X30633134Y-3645244D01*
X30628990Y-3643526D01*
X30614523Y-3633858D01*
X30609248Y-3631673D01*
X30598442Y-3627196D01*
X30594713Y-3624704D01*
X30582400Y-3612392D01*
X30582392Y-3612385D01*
X30567912Y-3602708D01*
X30564741Y-3599536D01*
X30558440Y-3590105D01*
X30555075Y-3585067D01*
X30555074Y-3585066D01*
X30542766Y-3572757D01*
X30540278Y-3569033D01*
X30533610Y-3552937D01*
X30523930Y-3538446D01*
X30522217Y-3534306D01*
X30518823Y-3517237D01*
X30512154Y-3501136D01*
X30511280Y-3496783D01*
X30511214Y-3478967D01*
X30507777Y-3461679D01*
X30507612Y-3458323D01*
X30511010Y-3423848D01*
X30507448Y-2460607D01*
X30507502Y-2459451D01*
X30511122Y-2422704D01*
X30511939Y-2419439D01*
X30518830Y-2402804D01*
X30522231Y-2385716D01*
X30523946Y-2381576D01*
X30533617Y-2367107D01*
X30540278Y-2351024D01*
X30542766Y-2347300D01*
X30555086Y-2334981D01*
X30564767Y-2320494D01*
X30567934Y-2317327D01*
X30582409Y-2307658D01*
X30594717Y-2295349D01*
X30598444Y-2292859D01*
X30614538Y-2286194D01*
X30629025Y-2276515D01*
X30633168Y-2274800D01*
X30650238Y-2271407D01*
X30666316Y-2264747D01*
X30670717Y-2263872D01*
X30688133Y-2263872D01*
X30688134Y-2263872D01*
X30705221Y-2260475D01*
X30709705Y-2260475D01*
X30726774Y-2263872D01*
G37*
%TD.AperFunction*%
%TD*%
M02*
