%TF.GenerationSoftware,KiCad,Pcbnew,9.0.3*%
%TF.CreationDate,2025-12-04T16:15:47+02:00*%
%TF.ProjectId,MyCustom_75Keeb,4d794375-7374-46f6-9d5f-37354b656562,2.0.0*%
%TF.SameCoordinates,Original*%
%TF.FileFunction,Copper,L2,Inr*%
%TF.FilePolarity,Positive*%
%FSLAX46Y46*%
G04 Gerber Fmt 4.6, Leading zero omitted, Abs format (unit mm)*
G04 Created by KiCad (PCBNEW 9.0.3) date 2025-12-04 16:15:47*
%MOMM*%
%LPD*%
G01*
G04 APERTURE LIST*
%TA.AperFunction,ComponentPad*%
%ADD10C,2.500000*%
%TD*%
%TA.AperFunction,ComponentPad*%
%ADD11C,4.000000*%
%TD*%
%TA.AperFunction,ComponentPad*%
%ADD12O,1.600000X1.000000*%
%TD*%
%TA.AperFunction,ComponentPad*%
%ADD13O,2.100000X1.000000*%
%TD*%
%TA.AperFunction,ViaPad*%
%ADD14C,0.600000*%
%TD*%
%TA.AperFunction,Conductor*%
%ADD15C,0.300000*%
%TD*%
%TA.AperFunction,Conductor*%
%ADD16C,0.400000*%
%TD*%
%TA.AperFunction,Conductor*%
%ADD17C,0.200000*%
%TD*%
G04 APERTURE END LIST*
D10*
%TO.N,Col_11*%
%TO.C,SW70*%
X229552500Y-111760000D03*
%TO.N,Net-(D70-A)*%
X235902500Y-109220000D03*
%TD*%
%TO.N,Col_12*%
%TO.C,SW81*%
X262890000Y-130810000D03*
%TO.N,Net-(D81-A)*%
X269240000Y-128270000D03*
%TD*%
%TO.N,Col_2*%
%TO.C,SW19*%
X72390000Y-54610000D03*
%TO.N,Net-(D19-A)*%
X78740000Y-52070000D03*
%TD*%
%TO.N,Col_7*%
%TO.C,SW66*%
X153352500Y-111760000D03*
%TO.N,Net-(D66-A)*%
X159702500Y-109220000D03*
%TD*%
%TO.N,Col_6*%
%TO.C,SW65*%
X134302500Y-111760000D03*
%TO.N,Net-(D65-A)*%
X140652500Y-109220000D03*
%TD*%
%TO.N,Col_3*%
%TO.C,SW33*%
X62865000Y-73660000D03*
%TO.N,Net-(D33-A)*%
X69215000Y-71120000D03*
%TD*%
%TO.N,Col_11*%
%TO.C,SW56*%
X220027500Y-92710000D03*
%TO.N,Net-(D56-A)*%
X226377500Y-90170000D03*
%TD*%
%TO.N,Col_2*%
%TO.C,SW3*%
X72390000Y-35560000D03*
%TO.N,Net-(D3-A)*%
X78740000Y-33020000D03*
%TD*%
%TO.N,Col_6*%
%TO.C,SW77*%
X84296250Y-130810000D03*
%TO.N,Net-(D77-A)*%
X90646250Y-128270000D03*
%TD*%
%TO.N,Col_10*%
%TO.C,SW11*%
X224790000Y-35560000D03*
%TO.N,Net-(D11-A)*%
X231140000Y-33020000D03*
%TD*%
%TO.N,Col_14*%
%TO.C,SW15*%
X300990000Y-35560000D03*
%TO.N,Net-(D15-A)*%
X307340000Y-33020000D03*
%TD*%
%TO.N,Col_12*%
%TO.C,SW29*%
X262890000Y-54610000D03*
%TO.N,Net-(D29-A)*%
X269240000Y-52070000D03*
%TD*%
%TO.N,Col_2*%
%TO.C,SW32*%
X39052500Y-73660000D03*
%TO.N,Net-(D32-A)*%
X45402500Y-71120000D03*
%TD*%
%TO.N,Col_14*%
%TO.C,SW44*%
X272415000Y-73660000D03*
%TO.N,Net-(D44-A)*%
X278765000Y-71120000D03*
%TD*%
D11*
%TO.N,*%
%TO.C,S6*%
X283368750Y-50165000D03*
X307181250Y-50165000D03*
%TD*%
D10*
%TO.N,Col_10*%
%TO.C,SW40*%
X196215000Y-73660000D03*
%TO.N,Net-(D40-A)*%
X202565000Y-71120000D03*
%TD*%
%TO.N,Col_13*%
%TO.C,SW71*%
X248602500Y-111760000D03*
%TO.N,Net-(D71-A)*%
X254952500Y-109220000D03*
%TD*%
%TO.N,Col_15*%
%TO.C,SW30*%
X291465000Y-54610000D03*
%TO.N,Net-(D30-A)*%
X297815000Y-52070000D03*
%TD*%
%TO.N,Col_0*%
%TO.C,SW1*%
X34290000Y-35560000D03*
%TO.N,Net-(D1-A)*%
X40640000Y-33020000D03*
%TD*%
%TO.N,Col_11*%
%TO.C,SW12*%
X243840000Y-35560000D03*
%TO.N,Net-(D12-A)*%
X250190000Y-33020000D03*
%TD*%
%TO.N,Col_2*%
%TO.C,SW47*%
X41433750Y-92710000D03*
%TO.N,Net-(D47-A)*%
X47783750Y-90170000D03*
%TD*%
%TO.N,Col_15*%
%TO.C,SW73*%
X300990000Y-111760000D03*
%TO.N,Net-(D73-A)*%
X307340000Y-109220000D03*
%TD*%
%TO.N,Col_9*%
%TO.C,SW54*%
X181927500Y-92710000D03*
%TO.N,Net-(D54-A)*%
X188277500Y-90170000D03*
%TD*%
D11*
%TO.N,*%
%TO.C,S2*%
X38100000Y-107315000D03*
X61912500Y-107315000D03*
%TD*%
D10*
%TO.N,Col_0*%
%TO.C,SW74*%
X320040000Y-111760000D03*
%TO.N,Net-(D74-A)*%
X326390000Y-109220000D03*
%TD*%
%TO.N,Col_15*%
%TO.C,SW59*%
X289083750Y-92710000D03*
%TO.N,Net-(D59-A)*%
X295433750Y-90170000D03*
%TD*%
%TO.N,Col_9*%
%TO.C,SW26*%
X205740000Y-54610000D03*
%TO.N,Net-(D26-A)*%
X212090000Y-52070000D03*
%TD*%
%TO.N,Col_6*%
%TO.C,SW23*%
X148590000Y-54610000D03*
%TO.N,Net-(D23-A)*%
X154940000Y-52070000D03*
%TD*%
%TO.N,Col_7*%
%TO.C,SW37*%
X139065000Y-73660000D03*
%TO.N,Net-(D37-A)*%
X145415000Y-71120000D03*
%TD*%
%TO.N,Col_1*%
%TO.C,SW2*%
X53340000Y-35560000D03*
%TO.N,Net-(D2-A)*%
X59690000Y-33020000D03*
%TD*%
%TO.N,Col_13*%
%TO.C,SW43*%
X253365000Y-73660000D03*
%TO.N,Net-(D43-A)*%
X259715000Y-71120000D03*
%TD*%
%TO.N,Col_6*%
%TO.C,SW36*%
X120015000Y-73660000D03*
%TO.N,Net-(D36-A)*%
X126365000Y-71120000D03*
%TD*%
%TO.N,Col_3*%
%TO.C,SW20*%
X91440000Y-54610000D03*
%TO.N,Net-(D20-A)*%
X97790000Y-52070000D03*
%TD*%
%TO.N,Col_10*%
%TO.C,SW69*%
X210502500Y-111760000D03*
%TO.N,Net-(D69-A)*%
X216852500Y-109220000D03*
%TD*%
%TO.N,Col_3*%
%TO.C,SW4*%
X91440000Y-35560000D03*
%TO.N,Net-(D4-A)*%
X97790000Y-33020000D03*
%TD*%
%TO.N,Col_0*%
%TO.C,SW46*%
X320040000Y-73660000D03*
%TO.N,Net-(D46-A)*%
X326390000Y-71120000D03*
%TD*%
%TO.N,Col_1*%
%TO.C,SW18*%
X53340000Y-54610000D03*
%TO.N,Net-(D18-A)*%
X59690000Y-52070000D03*
%TD*%
%TO.N,Col_5*%
%TO.C,SW50*%
X105727500Y-92710000D03*
%TO.N,Net-(D50-A)*%
X112077500Y-90170000D03*
%TD*%
%TO.N,Col_8*%
%TO.C,SW53*%
X162877500Y-92710000D03*
%TO.N,Net-(D53-A)*%
X169227500Y-90170000D03*
%TD*%
%TO.N,Col_8*%
%TO.C,SW67*%
X172402500Y-111760000D03*
%TO.N,Net-(D67-A)*%
X178752500Y-109220000D03*
%TD*%
%TO.N,Col_5*%
%TO.C,SW35*%
X100965000Y-73660000D03*
%TO.N,Net-(D35-A)*%
X107315000Y-71120000D03*
%TD*%
%TO.N,Col_8*%
%TO.C,SW38*%
X158115000Y-73660000D03*
%TO.N,Net-(D38-A)*%
X164465000Y-71120000D03*
%TD*%
%TO.N,Col_0*%
%TO.C,SW17*%
X34290000Y-54610000D03*
%TO.N,Net-(D17-A)*%
X40640000Y-52070000D03*
%TD*%
%TO.N,Col_0*%
%TO.C,SW60*%
X320040000Y-92710000D03*
%TO.N,Net-(D60-A)*%
X326390000Y-90170000D03*
%TD*%
%TO.N,Col_11*%
%TO.C,SW28*%
X243840000Y-54610000D03*
%TO.N,Net-(D28-A)*%
X250190000Y-52070000D03*
%TD*%
%TO.N,Col_4*%
%TO.C,SW21*%
X110490000Y-54610000D03*
%TO.N,Net-(D21-A)*%
X116840000Y-52070000D03*
%TD*%
%TO.N,Col_9*%
%TO.C,SW68*%
X191452500Y-111760000D03*
%TO.N,Net-(D68-A)*%
X197802500Y-109220000D03*
%TD*%
%TO.N,Col_11*%
%TO.C,SW41*%
X215265000Y-73660000D03*
%TO.N,Net-(D41-A)*%
X221615000Y-71120000D03*
%TD*%
%TO.N,Col_10*%
%TO.C,SW55*%
X200977500Y-92710000D03*
%TO.N,Net-(D55-A)*%
X207327500Y-90170000D03*
%TD*%
%TO.N,Col_14*%
%TO.C,SW58*%
X258127500Y-92710000D03*
%TO.N,Net-(D58-A)*%
X264477500Y-90170000D03*
%TD*%
%TO.N,Col_5*%
%TO.C,SW64*%
X115252500Y-111760000D03*
%TO.N,Net-(D64-A)*%
X121602500Y-109220000D03*
%TD*%
%TO.N,Col_4*%
%TO.C,SW63*%
X96202500Y-111760000D03*
%TO.N,Net-(D63-A)*%
X102552500Y-109220000D03*
%TD*%
%TO.N,Col_12*%
%TO.C,SW13*%
X262890000Y-35560000D03*
%TO.N,Net-(D13-A)*%
X269240000Y-33020000D03*
%TD*%
%TO.N,Col_9*%
%TO.C,SW39*%
X177165000Y-73660000D03*
%TO.N,Net-(D39-A)*%
X183515000Y-71120000D03*
%TD*%
%TO.N,Col_2*%
%TO.C,SW61*%
X46196250Y-111760000D03*
%TO.N,Net-(D61-A)*%
X52546250Y-109220000D03*
%TD*%
%TO.N,Col_3*%
%TO.C,SW48*%
X67627500Y-92710000D03*
%TO.N,Net-(D48-A)*%
X73977500Y-90170000D03*
%TD*%
%TO.N,Col_13*%
%TO.C,SW82*%
X281940000Y-130810000D03*
%TO.N,Net-(D82-A)*%
X288290000Y-128270000D03*
%TD*%
%TO.N,Col_7*%
%TO.C,SW52*%
X143827500Y-92710000D03*
%TO.N,Net-(D52-A)*%
X150177500Y-90170000D03*
%TD*%
%TO.N,Col_8*%
%TO.C,SW25*%
X186690000Y-54610000D03*
%TO.N,Net-(D25-A)*%
X193040000Y-52070000D03*
%TD*%
%TO.N,Col_7*%
%TO.C,SW24*%
X167640000Y-54610000D03*
%TO.N,Net-(D24-A)*%
X173990000Y-52070000D03*
%TD*%
%TO.N,Col_2*%
%TO.C,SW76*%
X60483750Y-130810000D03*
%TO.N,Net-(D76-A)*%
X66833750Y-128270000D03*
%TD*%
%TO.N,Col_6*%
%TO.C,SW7*%
X148590000Y-35560000D03*
%TO.N,Net-(D7-A)*%
X154940000Y-33020000D03*
%TD*%
%TO.N,Col_1*%
%TO.C,SW75*%
X36671250Y-130810000D03*
%TO.N,Net-(D75-A)*%
X43021250Y-128270000D03*
%TD*%
%TO.N,Col_12*%
%TO.C,SW42*%
X234315000Y-73660000D03*
%TO.N,Net-(D42-A)*%
X240665000Y-71120000D03*
%TD*%
D11*
%TO.N,*%
%TO.C,S1*%
X109537500Y-126365000D03*
X209550000Y-126365000D03*
%TD*%
D10*
%TO.N,Col_14*%
%TO.C,SW83*%
X300990000Y-130810000D03*
%TO.N,Net-(D83-A)*%
X307340000Y-128270000D03*
%TD*%
%TO.N,Col_4*%
%TO.C,SW49*%
X86677500Y-92710000D03*
%TO.N,Net-(D49-A)*%
X93027500Y-90170000D03*
%TD*%
%TO.N,Col_8*%
%TO.C,SW9*%
X186690000Y-35560000D03*
%TO.N,Net-(D9-A)*%
X193040000Y-33020000D03*
%TD*%
%TO.N,Col_15*%
%TO.C,SW84*%
X320040000Y-130810000D03*
%TO.N,Net-(D84-A)*%
X326390000Y-128270000D03*
%TD*%
%TO.N,Col_5*%
%TO.C,SW6*%
X129540000Y-35560000D03*
%TO.N,Net-(D6-A)*%
X135890000Y-33020000D03*
%TD*%
%TO.N,Col_9*%
%TO.C,SW78*%
X155733750Y-130810000D03*
%TO.N,Net-(D78-A)*%
X162083750Y-128270000D03*
%TD*%
%TO.N,Col_5*%
%TO.C,SW22*%
X129540000Y-54610000D03*
%TO.N,Net-(D22-A)*%
X135890000Y-52070000D03*
%TD*%
%TO.N,Col_11*%
%TO.C,SW80*%
X243840000Y-130810000D03*
%TO.N,Net-(D80-A)*%
X250190000Y-128270000D03*
%TD*%
%TO.N,Col_15*%
%TO.C,SW16*%
X320040000Y-35560000D03*
%TO.N,Net-(D16-A)*%
X326390000Y-33020000D03*
%TD*%
%TO.N,Col_7*%
%TO.C,SW8*%
X167640000Y-35560000D03*
%TO.N,Net-(D8-A)*%
X173990000Y-33020000D03*
%TD*%
%TO.N,Col_4*%
%TO.C,SW34*%
X81915000Y-73660000D03*
%TO.N,Net-(D34-A)*%
X88265000Y-71120000D03*
%TD*%
%TO.N,Col_3*%
%TO.C,SW62*%
X77152500Y-111760000D03*
%TO.N,Net-(D62-A)*%
X83502500Y-109220000D03*
%TD*%
%TO.N,Col_0*%
%TO.C,SW31*%
X320040000Y-54610000D03*
%TO.N,Net-(D31-A)*%
X326390000Y-52070000D03*
%TD*%
%TO.N,Col_10*%
%TO.C,SW79*%
X224790000Y-130810000D03*
%TO.N,Net-(D79-A)*%
X231140000Y-128270000D03*
%TD*%
%TO.N,Col_4*%
%TO.C,SW5*%
X110490000Y-35560000D03*
%TO.N,Net-(D5-A)*%
X116840000Y-33020000D03*
%TD*%
%TO.N,Col_13*%
%TO.C,SW14*%
X281940000Y-35560000D03*
%TO.N,Net-(D14-A)*%
X288290000Y-33020000D03*
%TD*%
%TO.N,Col_9*%
%TO.C,SW10*%
X205740000Y-35560000D03*
%TO.N,Net-(D10-A)*%
X212090000Y-33020000D03*
%TD*%
%TO.N,Col_6*%
%TO.C,SW51*%
X124777500Y-92710000D03*
%TO.N,Net-(D51-A)*%
X131127500Y-90170000D03*
%TD*%
%TO.N,Col_10*%
%TO.C,SW27*%
X224790000Y-54610000D03*
%TO.N,Net-(D27-A)*%
X231140000Y-52070000D03*
%TD*%
%TO.N,Col_15*%
%TO.C,SW45*%
X296227500Y-73660000D03*
%TO.N,Net-(D45-A)*%
X302577500Y-71120000D03*
%TD*%
%TO.N,Col_14*%
%TO.C,SW72*%
X274796250Y-111760000D03*
%TO.N,Net-(D72-A)*%
X281146250Y-109220000D03*
%TD*%
%TO.N,Col_12*%
%TO.C,SW57*%
X239077500Y-92710000D03*
%TO.N,Net-(D57-A)*%
X245427500Y-90170000D03*
%TD*%
D12*
%TO.N,GND*%
%TO.C,J1*%
X24387446Y-6780029D03*
D13*
X28567446Y-6780029D03*
D12*
X24387446Y1859971D03*
D13*
X28567446Y1859971D03*
%TD*%
D14*
%TO.N,GND*%
X176712446Y-81185029D03*
X209612446Y-119385029D03*
X223662446Y-43085029D03*
X104662446Y-100335029D03*
X44762446Y-117185029D03*
X290662446Y-62235029D03*
X52162446Y-42635029D03*
X128612446Y-62035029D03*
X166762446Y-62235029D03*
X204862446Y-42935029D03*
X90812446Y-42835029D03*
X162062446Y-100235029D03*
X52712446Y-61835029D03*
X59812446Y-138585029D03*
X91112446Y-62235029D03*
X204762446Y-62135029D03*
X242712446Y-138635029D03*
X242962446Y-42985029D03*
X123762446Y-100285029D03*
X228612446Y-119335029D03*
X114412446Y-119435029D03*
X299962446Y-138435029D03*
X214312446Y-81435029D03*
X319212446Y-43035029D03*
X237812446Y-100285029D03*
X252612446Y-81285029D03*
X154862446Y-138585029D03*
X37212446Y-79985029D03*
X33062446Y-61335029D03*
X71812446Y-42635029D03*
X147612446Y-42835029D03*
X280812446Y-42485029D03*
X318912446Y-138235029D03*
X109612446Y-42585029D03*
X199862446Y-100435029D03*
X33162446Y-42085029D03*
X318062446Y-100185029D03*
X287912446Y-100185029D03*
X76462446Y-119235029D03*
X224112446Y-62135029D03*
X262312446Y-62035029D03*
X40062446Y-99135029D03*
X185762446Y-62185029D03*
X233412446Y-81535029D03*
X42162446Y-20810029D03*
X318312446Y-81435029D03*
X95062446Y-119535029D03*
X247212446Y-119135029D03*
X271662446Y-81585029D03*
X156962446Y-81235029D03*
X261562446Y-138185029D03*
X295312446Y-81485029D03*
X148112446Y-62185029D03*
X195312446Y-81485029D03*
X280312446Y-138535029D03*
X180812446Y-100435029D03*
X100062446Y-81185029D03*
X118962446Y-81235029D03*
X81012446Y-81235029D03*
X190162446Y-119435029D03*
X223412446Y-138285029D03*
X86016727Y-100356783D03*
X71812446Y-62085029D03*
X62262446Y-81235029D03*
X274012446Y-119635029D03*
X300212446Y-42935029D03*
X243062446Y-62335029D03*
X50699946Y-17597529D03*
X35212446Y-137485029D03*
X142712446Y-100335029D03*
X219162446Y-100285029D03*
X185662446Y-42885029D03*
X66462446Y-100335029D03*
X83462446Y-138635029D03*
X109762446Y-62185029D03*
X256812446Y-100435029D03*
X129112446Y-42585029D03*
X166912446Y-42885029D03*
X318812446Y-119185029D03*
X261862446Y-42785029D03*
X299512446Y-119435029D03*
X318262446Y-61335029D03*
X171662446Y-119335029D03*
X152712446Y-119185029D03*
X133512446Y-119235029D03*
X138162446Y-81535029D03*
%TO.N,+3.3V*%
X49862446Y-1560029D03*
X68904948Y-500029D03*
X47699943Y-476278D03*
X66722446Y1682471D03*
X68904947Y-6652529D03*
X58059948Y1682471D03*
X47912446Y-17760029D03*
X58819943Y-9602537D03*
X47699943Y-5822524D03*
%TO.N,+5V*%
X54312446Y-120735029D03*
X224112446Y-83035029D03*
X90762446Y-82885029D03*
X68812446Y-140285029D03*
X271662446Y-140235029D03*
X281162446Y-82885029D03*
X164812446Y-140285029D03*
X128562446Y-82785029D03*
X209512446Y-101985029D03*
X248062446Y-102085029D03*
X309762446Y-140285029D03*
X262112446Y-82835029D03*
X157162446Y-63785029D03*
X238352257Y-120991771D03*
X104212446Y-120885029D03*
X233512446Y-140185029D03*
X61712446Y-44035029D03*
X305212446Y-82885029D03*
X161812446Y-120985029D03*
X195112446Y-44235029D03*
X242962446Y-82935029D03*
X290112446Y-140435029D03*
X134062446Y-101885029D03*
X138062446Y-63635029D03*
X95262446Y-101935029D03*
X327312446Y-82785029D03*
X199412446Y-121035029D03*
X100012446Y-44235029D03*
X266562446Y-102035029D03*
X93362446Y-140285029D03*
X147662446Y-83085029D03*
X42462446Y-44185029D03*
X271362446Y-63535029D03*
X44212446Y-63335029D03*
X214162446Y-44435029D03*
X176562446Y-63785029D03*
X327412446Y-62985029D03*
X219612446Y-121035029D03*
X309112446Y-120985029D03*
X76212446Y-101935029D03*
X85512446Y-120885029D03*
X166412446Y-82835029D03*
X180762446Y-121035029D03*
X233212446Y-44535029D03*
X297912446Y-101885029D03*
X299712446Y-63735029D03*
X63362446Y-63285029D03*
X100062446Y-63735029D03*
X80662446Y-43985029D03*
X123762446Y-121035029D03*
X328012446Y-140085029D03*
X43662446Y-141085029D03*
X328362446Y-120935029D03*
X71862446Y-82985029D03*
X195462446Y-63735029D03*
X172212446Y-101785029D03*
X51112446Y-101785029D03*
X229412446Y-101885029D03*
X186412446Y-82885029D03*
X118812446Y-63735029D03*
X48062446Y-82585029D03*
X81212446Y-63535029D03*
X176312446Y-44235029D03*
X109862446Y-82885029D03*
X118962446Y-43985029D03*
X256612446Y-120735029D03*
X49074946Y-22697529D03*
X252562446Y-140235029D03*
X290162446Y-43985029D03*
X138112446Y-43935029D03*
X157562446Y-44235029D03*
X114562446Y-101935029D03*
X328212446Y-44485029D03*
X204641485Y-82953349D03*
X214312446Y-63685029D03*
X190562446Y-102035029D03*
X41062446Y-635029D03*
X252462446Y-44485029D03*
X325212446Y-103035029D03*
X142912446Y-120985029D03*
X309212446Y-44485029D03*
X253062446Y-63685029D03*
X283462446Y-121035029D03*
X234062446Y-63685029D03*
X152910412Y-101910984D03*
X271212446Y-44285029D03*
%TO.N,VBUS*%
X37237446Y-2960029D03*
X30707446Y-4910029D03*
X30707446Y-10029D03*
%TO.N,Row_0*%
X67287446Y-12535029D03*
X24287446Y-39335029D03*
%TO.N,/BOOT0*%
X48349943Y-4210029D03*
X60599946Y-4210029D03*
%TO.N,Row_1*%
X67787446Y-13935029D03*
X28162446Y-59760029D03*
%TO.N,Row_2*%
X66612446Y-13985029D03*
X30937446Y-77385029D03*
%TO.N,Row_4*%
X22987446Y6164971D03*
X29461108Y-112632928D03*
%TO.N,Row_5*%
X31252013Y-134539884D03*
X20587446Y5764971D03*
%TO.N,RGB_OUTPUT*%
X52412446Y-20610029D03*
X31712446Y-43060029D03*
%TO.N,Col_0*%
X61837446Y-3060029D03*
%TO.N,Col_1*%
X63037446Y-2935029D03*
%TO.N,Col_2*%
X62612446Y-5310029D03*
%TO.N,Col_3*%
X62662446Y-6285029D03*
%TO.N,Col_5*%
X96212446Y-25485029D03*
%TO.N,Col_6*%
X121987446Y-26885029D03*
X62887446Y-14885029D03*
%TO.N,Col_7*%
X63612446Y-15785029D03*
%TO.N,Col_8*%
X64687446Y-16435029D03*
%TO.N,Col_9*%
X66437446Y-17360029D03*
%TO.N,Col_10*%
X65862446Y-5335029D03*
X224787446Y-27435029D03*
%TO.N,Col_11*%
X244262446Y-27935029D03*
X65387446Y-6210029D03*
%TO.N,Col_13*%
X70562446Y-9910029D03*
%TO.N,Col_14*%
X69612446Y-10585029D03*
%TO.N,Col_15*%
X69687446Y-11510029D03*
%TO.N,RGB_INPUT*%
X66962446Y-11610029D03*
X46262446Y-20685029D03*
X54637446Y-15160029D03*
%TO.N,Net-(LED16-DOUT)*%
X33412446Y-63235029D03*
X329162446Y-43485029D03*
%TO.N,Net-(LED31-DOUT)*%
X37662446Y-81735029D03*
X327412446Y-61485029D03*
%TO.N,Net-(LED46-DOUT)*%
X327562446Y-81235029D03*
X40662446Y-101735029D03*
%TO.N,Net-(LED61-DOUT)*%
X327162446Y-100235029D03*
X41862446Y-116735029D03*
%TO.N,Net-(LED76-DOUT)*%
X327962446Y-119285029D03*
X35362446Y-139435029D03*
%TD*%
D15*
%TO.N,+3.3V*%
X49862446Y-1560029D02*
X49862446Y-15810029D01*
X49862446Y-15810029D02*
X47912446Y-17760029D01*
D16*
%TO.N,+5V*%
X49012446Y-22760029D02*
X49074946Y-22697529D01*
X48987446Y-22785029D02*
X49012446Y-22760029D01*
X41062446Y-635029D02*
X41062446Y-17360029D01*
X41062446Y-17360029D02*
X46487446Y-22785029D01*
X49074946Y-22697529D02*
X49212446Y-22560029D01*
X46487446Y-22785029D02*
X48987446Y-22785029D01*
D17*
%TO.N,RGB_OUTPUT*%
X31712446Y-41162738D02*
X31712446Y-43060029D01*
X31712446Y-43060029D02*
X31712446Y-43135029D01*
X52412446Y-20610029D02*
X41553475Y-31469000D01*
X37126184Y-34340370D02*
X37126184Y-35749000D01*
X41553475Y-31469000D02*
X39997554Y-31469000D01*
X37126184Y-35749000D02*
X31712446Y-41162738D01*
X39997554Y-31469000D02*
X37126184Y-34340370D01*
%TO.N,RGB_INPUT*%
X58187446Y-11610029D02*
X66962446Y-11610029D01*
X54637446Y-15160029D02*
X58187446Y-11610029D01*
%TO.N,Net-(LED15-DOUT)*%
X322112446Y-44235029D02*
X322162446Y-44285029D01*
%TO.N,Net-(LED16-DOUT)*%
X328662446Y-46735029D02*
X329662446Y-45735029D01*
X329662446Y-44235029D02*
X329162446Y-43735029D01*
X33412446Y-63235029D02*
X29662446Y-59485029D01*
X29662446Y-50235029D02*
X33162446Y-46735029D01*
X329162446Y-43735029D02*
X329162446Y-43485029D01*
X329662446Y-45735029D02*
X329662446Y-44235029D01*
X29662446Y-59485029D02*
X29662446Y-50235029D01*
X33162446Y-46735029D02*
X328662446Y-46735029D01*
%TO.N,Net-(LED17-DOUT)*%
X40412446Y-62135029D02*
X40412446Y-62235029D01*
%TO.N,Net-(LED31-DOUT)*%
X327662446Y-61735029D02*
X327412446Y-61485029D01*
X37662446Y-81735029D02*
X36912446Y-81735029D01*
X329912446Y-63235029D02*
X328412446Y-61735029D01*
X34162446Y-78985029D02*
X34162446Y-69485029D01*
X329912446Y-66735029D02*
X329912446Y-63235029D01*
X328412446Y-68235029D02*
X329912446Y-66735029D01*
X36912446Y-81735029D02*
X34162446Y-78985029D01*
X35412446Y-68235029D02*
X328412446Y-68235029D01*
X34162446Y-69485029D02*
X35412446Y-68235029D01*
X328412446Y-61735029D02*
X327662446Y-61735029D01*
%TO.N,Net-(LED46-DOUT)*%
X329162446Y-85985029D02*
X41412446Y-85985029D01*
X331037446Y-83360029D02*
X331037446Y-84110029D01*
X41412446Y-85985029D02*
X36412446Y-90985029D01*
X328912446Y-81235029D02*
X331037446Y-83360029D01*
X36412446Y-97485029D02*
X40662446Y-101735029D01*
X327562446Y-81235029D02*
X328912446Y-81235029D01*
X331037446Y-84110029D02*
X329162446Y-85985029D01*
X36412446Y-90985029D02*
X36412446Y-97485029D01*
%TO.N,Net-(LED61-DOUT)*%
X293062446Y-106135029D02*
X291962446Y-105035029D01*
X277562446Y-105935029D02*
X276162446Y-104535029D01*
X266362446Y-104535029D02*
X266062446Y-104835029D01*
X330162446Y-104235029D02*
X328262446Y-106135029D01*
X48162446Y-104835029D02*
X41862446Y-111135029D01*
X291962446Y-105035029D02*
X287362446Y-105035029D01*
X327162446Y-100235029D02*
X327962446Y-100235029D01*
X327962446Y-100235029D02*
X330162446Y-102435029D01*
X276162446Y-104535029D02*
X266362446Y-104535029D01*
X41862446Y-111135029D02*
X41862446Y-116735029D01*
X328262446Y-106135029D02*
X293062446Y-106135029D01*
X286462446Y-105935029D02*
X277562446Y-105935029D01*
X330162446Y-102435029D02*
X330162446Y-104235029D01*
X287362446Y-105035029D02*
X286462446Y-105935029D01*
X266062446Y-104835029D02*
X48162446Y-104835029D01*
%TO.N,Net-(LED76-DOUT)*%
X215362446Y-123235029D02*
X217027317Y-124899900D01*
X37762446Y-125235029D02*
X107413365Y-125235029D01*
X217027317Y-124899900D02*
X328097575Y-124899900D01*
X33362446Y-129635029D02*
X37762446Y-125235029D01*
X109413365Y-123235029D02*
X215362446Y-123235029D01*
X328097575Y-124899900D02*
X330162446Y-122835029D01*
X328812446Y-119285029D02*
X327962446Y-119285029D01*
X330162446Y-120635029D02*
X328812446Y-119285029D01*
X330162446Y-122835029D02*
X330162446Y-120635029D01*
X107413365Y-125235029D02*
X109413365Y-123235029D01*
X35362446Y-139435029D02*
X33362446Y-137435029D01*
X33362446Y-137435029D02*
X33362446Y-129635029D01*
%TD*%
M02*
